<?xml version="1.0" encoding="utf-8"?>
<!-- Generator: Adobe Illustrator 25.4.1, SVG Export Plug-In . SVG Version: 6.00 Build 0)  -->
<svg version="1.1" id="Capa_1" xmlns="http://www.w3.org/2000/svg" xmlns:xlink="http://www.w3.org/1999/xlink" x="0px" y="0px"
	 viewBox="0 0 300 60" style="enable-background:new 0 0 300 60;" xml:space="preserve">
<style type="text/css">
	.st0{fill:#FFFFFF;}
	.st1{fill:#E73255;}
	.st2{fill:#3C3C3B;}
</style>
<rect x="45.8" y="8.2" class="st0" width="178.5" height="43.5"/>
<path class="st0" d="M466.5,218.2l-15.1,15.1c-1.2,1.2-3.2,1.2-4.4,0c-1.2-1.2-1.2-3.2,0-4.4l9.7-9.7c1.2-1.2,1.2-3.2,0-4.4
	s-3.2-1.2-4.4,0l-16.4,16.3c-1.2,1.2-1.2,3.2,0,4.4s3.2,1.2,4.4,0l0.1-0.1c1.2-1.2,3.2-1.2,4.4,0c1.2,1.2,1.2,3.2,0,4.4l-5.6,5.6
	c-1.2,1.2-1.2,3.2,0,4.4s3.2,1.2,4.4,0l15.4-15.4c1.2-1.2,3.2-1.2,4.4,0c1.2,1.2,1.2,3.2,0,4.4l-10,9.9c-1.2,1.2-1.2,3.2,0,4.4
	s3.2,1.2,4.4,0l16.4-16.3c1.2-1.2,1.2-3.2,0-4.4s-3.2-1.2-4.4,0l0.1-0.1c-1.2,1.2-3.2,1.2-4.4,0c-1.2-1.2-1.2-3.2,0-4.4l5.3-5.3
	c1.2-1.2,1.2-3.2,0-4.4C469.6,217,467.7,217,466.5,218.2z"/>
<path class="st1" d="M45,7.5h-1.7H0v45h43.3H45h180v-45H45z M224.2,51.8H45.8V8.2h178.5V51.8z"/>
<g>
	<g>
		<g>
			<path class="st2" d="M60.8,39.8c-0.4,0-0.7-0.1-1.1-0.1c-0.3-0.2-0.6-0.3-0.8-0.5c-0.2-0.2-0.4-0.5-0.5-0.9s-0.1-0.8-0.1-1.2
				c0-0.5,0.1-0.8,0.2-1.2c0.1-0.4,0.3-0.6,0.5-0.9c0.2-0.2,0.5-0.4,0.8-0.5c0.3-0.2,0.6-0.2,1-0.2c0.2,0,0.4,0,0.6,0.1
				c0.2,0,0.3,0.1,0.5,0.1s0.2,0.1,0.3,0.2c0.1,0,0.2,0.1,0.2,0.1l-0.2,0.6c-0.1,0-0.1-0.1-0.2-0.1c-0.1,0-0.1-0.1-0.3-0.1
				c-0.1,0-0.2-0.1-0.4-0.1c-0.1,0-0.2,0-0.4,0c-0.3,0-0.5,0.1-0.8,0.2c-0.2,0.1-0.4,0.2-0.6,0.5c-0.2,0.1-0.3,0.4-0.4,0.7
				c-0.1,0.2-0.2,0.5-0.2,0.9c0,0.3,0.1,0.6,0.2,0.9c0.1,0.3,0.1,0.5,0.3,0.7c0.1,0.2,0.3,0.3,0.5,0.5c0.2,0.1,0.4,0.2,0.8,0.2
				c0.4,0,0.6,0,0.8-0.1c0.2-0.1,0.4-0.2,0.5-0.2l0.2,0.6c-0.1,0-0.1,0.1-0.2,0.1c-0.1,0-0.2,0.1-0.4,0.1c0-0.2-0.1-0.2-0.3-0.2
				C61.1,39.8,61,39.8,60.8,39.8z"/>
		</g>
	</g>
	<g>
		<g>
			<path class="st2" d="M66.6,37.7c0,0.3-0.1,0.6-0.2,0.9c-0.1,0.2-0.2,0.4-0.4,0.7c-0.2,0.1-0.4,0.3-0.6,0.4
				c-0.2,0.1-0.5,0.2-0.8,0.2c-0.3,0-0.5-0.1-0.8-0.2c-0.2-0.1-0.5-0.2-0.6-0.4c-0.2-0.2-0.3-0.4-0.4-0.7c-0.1-0.2-0.1-0.5-0.1-0.9
				c0-0.3,0.1-0.6,0.1-0.8s0.2-0.5,0.4-0.7c0.1-0.2,0.4-0.3,0.6-0.4c0.2-0.1,0.5-0.2,0.8-0.2c0.3,0,0.5,0.1,0.8,0.2
				c0.2,0.1,0.4,0.2,0.6,0.4s0.3,0.4,0.4,0.7C66.5,37.1,66.6,37.4,66.6,37.7z M65.9,37.7c0-0.4-0.1-0.8-0.3-1
				c-0.2-0.2-0.4-0.4-0.8-0.4s-0.6,0.1-0.8,0.4c-0.2,0.2-0.3,0.6-0.3,1c0,0.5,0.1,0.8,0.3,1.1c0.2,0.2,0.5,0.4,0.8,0.4
				s0.6-0.2,0.8-0.4C65.7,38.6,65.9,38.2,65.9,37.7z"/>
		</g>
	</g>
	<g>
		<g>
			<path class="st2" d="M67.6,35.8c0.2,0,0.4-0.1,0.7-0.2c0.3-0.1,0.6-0.1,0.9-0.1c0.3,0,0.6,0.1,0.8,0.2c0.2,0.1,0.4,0.2,0.5,0.4
				c0.2,0.2,0.2,0.4,0.2,0.6s0.1,0.4,0.1,0.8v2.2h-0.7v-2.1c0-0.2,0-0.5-0.1-0.6c0-0.2-0.1-0.3-0.2-0.5c-0.1-0.1-0.1-0.2-0.3-0.2
				c-0.2-0.1-0.3-0.1-0.5-0.1c-0.1,0-0.1,0-0.2,0s-0.2,0-0.2,0c-0.1,0-0.2,0-0.2,0c-0.1,0-0.1,0-0.1,0v3.4h-0.7L67.6,35.8L67.6,35.8
				z"/>
		</g>
	</g>
	<g>
		<g>
			<path class="st2" d="M72.9,39.2c0.3,0,0.5,0,0.7-0.2c0.2-0.1,0.2-0.2,0.2-0.4c0-0.1-0.1-0.3-0.2-0.4c-0.1-0.1-0.4-0.2-0.7-0.4
				c-0.1-0.1-0.3-0.1-0.4-0.1c-0.1-0.1-0.2-0.2-0.4-0.2c-0.1-0.1-0.1-0.2-0.2-0.3s-0.1-0.3-0.1-0.5c0-0.4,0.2-0.6,0.4-0.8
				c0.2-0.2,0.6-0.3,1.1-0.3c0.2,0,0.2,0,0.3,0c0.1,0,0.2,0,0.3,0.1s0.1,0,0.2,0.1c0.1,0,0.2,0,0.2,0.1L74,36.5
				c-0.1,0-0.2-0.1-0.4-0.2c-0.1-0.1-0.4-0.1-0.6-0.1c-0.2,0-0.4,0-0.5,0.2c-0.1,0.2-0.2,0.2-0.2,0.4c0,0.1,0,0.2,0.1,0.2
				c0,0.1,0.1,0.2,0.1,0.2c0.1,0.1,0.2,0.1,0.2,0.2c0.1,0.1,0.2,0.1,0.4,0.1s0.4,0.2,0.5,0.2c0.2,0.1,0.3,0.1,0.4,0.2
				c0.1,0.1,0.2,0.2,0.2,0.3s0.1,0.3,0.1,0.5c0,0.4-0.1,0.7-0.4,0.8c-0.3,0.2-0.7,0.3-1.2,0.3c-0.4,0-0.6,0-0.8-0.1
				c-0.2-0.1-0.3-0.1-0.4-0.1l0.1-0.6c0.1,0,0.2,0.1,0.4,0.2C72.4,39.2,72.6,39.2,72.9,39.2z"/>
		</g>
	</g>
	<g>
		<g>
			<path class="st2" d="M78.6,39.6c-0.2,0-0.4,0.1-0.7,0.2c-0.3,0.1-0.6,0.1-0.9,0.1s-0.6-0.1-0.8-0.1c-0.1-0.1-0.4-0.2-0.5-0.4
				c-0.2-0.2-0.2-0.4-0.3-0.6c-0.1-0.2-0.1-0.4-0.1-0.8v-2.2h0.7v2.1c0,0.5,0.1,0.8,0.2,1c0.1,0.2,0.4,0.3,0.8,0.3
				c0.1,0,0.1,0,0.2,0c0.1,0,0.1,0,0.2,0c0.1,0,0.2,0,0.2,0c0.1,0,0.1,0,0.2,0v-3.4h0.7L78.6,39.6L78.6,39.6z"/>
		</g>
	</g>
	<g>
		<g>
			<path class="st2" d="M81,39.8c-0.4,0-0.8-0.1-0.9-0.3c-0.2-0.2-0.3-0.5-0.3-0.8v-4.8l0.7-0.2v4.8c0,0.1,0,0.2,0,0.3
				c0,0.1,0.1,0.2,0.1,0.2c0.1,0.1,0.1,0.1,0.1,0.1s0.2,0.1,0.3,0.1V39.8z"/>
		</g>
	</g>
	<g>
		<g>
			<path class="st2" d="M82.6,35.8h1.5v0.6h-1.5v1.9c0,0.2,0,0.4,0.1,0.5c0.1,0.2,0.1,0.2,0.2,0.3s0.2,0.2,0.2,0.2
				c0.1,0,0.2,0.1,0.3,0.1c0.2,0,0.4,0,0.5-0.1c0.1-0.1,0.2-0.1,0.3-0.1l0.2,0.6c-0.1,0-0.2,0.1-0.4,0.1C83.8,40,83.5,40,83.3,40
				c-0.3,0-0.5,0-0.7-0.1c-0.2-0.1-0.3-0.1-0.4-0.3c-0.1-0.2-0.2-0.3-0.2-0.5c-0.1-0.2-0.1-0.4-0.1-0.7v-3.6l0.7-0.2V35.8L82.6,35.8
				z"/>
		</g>
	</g>
	<g>
		<g>
			<path class="st2" d="M88.4,37.7c0,0.3-0.1,0.6-0.2,0.9c-0.1,0.2-0.2,0.4-0.4,0.7c-0.1,0.1-0.4,0.3-0.6,0.4
				c-0.2,0.1-0.4,0.2-0.8,0.2s-0.5-0.1-0.8-0.2c-0.2-0.1-0.4-0.2-0.6-0.4c-0.2-0.2-0.3-0.4-0.4-0.7c-0.1-0.2-0.1-0.5-0.1-0.9
				c0-0.3,0.1-0.6,0.1-0.8s0.2-0.5,0.4-0.7c0.2-0.2,0.4-0.3,0.6-0.4c0.2-0.1,0.4-0.2,0.8-0.2s0.5,0.1,0.8,0.2
				c0.2,0.1,0.4,0.2,0.6,0.4s0.3,0.4,0.4,0.7C88.4,37.1,88.4,37.4,88.4,37.7z M87.7,37.7c0-0.4-0.1-0.8-0.3-1s-0.4-0.4-0.8-0.4
				s-0.6,0.1-0.8,0.4c-0.2,0.2-0.3,0.6-0.3,1c0,0.5,0.1,0.8,0.3,1.1c0.2,0.2,0.4,0.4,0.8,0.4s0.6-0.2,0.8-0.4
				C87.5,38.6,87.7,38.2,87.7,37.7z"/>
		</g>
	</g>
	<g>
		<g>
			<path class="st2" d="M90.9,35.6c0.1,0,0.2,0,0.2,0c0.1,0,0.1,0,0.2,0c0.1,0,0.1,0,0.2,0c0.1,0,0.2,0,0.2,0l-0.2,0.6
				c-0.1,0-0.2-0.1-0.3-0.1c-0.1,0-0.3-0.1-0.5-0.1c-0.2,0-0.2,0-0.4,0.1c-0.2,0-0.2,0.1-0.2,0.1v3.5h-0.7v-3.8
				c0.1-0.1,0.4-0.2,0.6-0.2C90.3,35.7,90.5,35.6,90.9,35.6z"/>
		</g>
	</g>
	<g>
		<g>
			<path class="st2" d="M93.7,34.2l-1.1,1.1l-0.4-0.3l1-1.2L93.7,34.2z M93.1,39.8h-0.7v-4h0.7V39.8z"/>
		</g>
	</g>
	<g>
		<g>
			<path class="st2" d="M95.6,35.6c0.3,0,0.5,0,0.7,0.2c0.2,0.1,0.4,0.2,0.5,0.3c0.1,0.2,0.2,0.3,0.2,0.5c0.1,0.2,0.1,0.4,0.1,0.6
				v2.5c-0.1,0-0.1,0-0.2,0.1c-0.1,0-0.2,0-0.4,0.1c-0.2,0-0.3,0-0.5,0.1c-0.1,0-0.3,0-0.4,0c-0.2,0-0.4,0-0.6-0.1
				c-0.2-0.1-0.4-0.1-0.5-0.2c-0.2-0.1-0.2-0.2-0.3-0.4S94,38.8,94,38.5c0-0.2,0.1-0.4,0.1-0.6c0.1-0.2,0.2-0.3,0.4-0.4
				c0.1-0.1,0.3-0.1,0.5-0.2c0.2-0.1,0.5-0.1,0.7-0.1c0.1,0,0.2,0,0.2,0c0.1,0,0.2,0,0.2,0c0.1,0,0.2,0,0.2,0c0.1,0,0.1,0,0.1,0
				v-0.2c0-0.2,0-0.2-0.1-0.4c0-0.2-0.1-0.2-0.2-0.3c-0.1-0.1-0.1-0.2-0.3-0.2c-0.2-0.1-0.2-0.1-0.5-0.1s-0.4,0-0.6,0.1
				c-0.2,0-0.3,0.1-0.4,0.1l-0.1-0.6c0.1,0,0.2-0.1,0.4-0.2C95.1,35.6,95.3,35.6,95.6,35.6z M95.6,39.2c0.1,0,0.3,0,0.5,0
				s0.2,0,0.3-0.1V38c-0.1,0-0.1-0.1-0.2-0.1c-0.1,0-0.2,0-0.4,0c-0.1,0-0.2,0-0.4,0c-0.1,0-0.2,0.1-0.3,0.1
				c-0.1,0.1-0.1,0.2-0.2,0.2c-0.1,0.1-0.1,0.2-0.1,0.3c0,0.2,0.1,0.5,0.2,0.5C95.2,39.2,95.4,39.2,95.6,39.2z"/>
		</g>
	</g>
	<g>
		<g>
			<path class="st2" d="M99.2,39.2c0.3,0,0.5,0,0.7-0.2c0.2-0.1,0.2-0.2,0.2-0.4c0-0.1-0.1-0.3-0.2-0.4c-0.1-0.1-0.4-0.2-0.7-0.4
				c-0.2-0.1-0.3-0.1-0.5-0.1c-0.1-0.1-0.3-0.2-0.4-0.2c-0.1-0.1-0.1-0.2-0.2-0.3s-0.1-0.3-0.1-0.5c0-0.4,0.1-0.6,0.4-0.8
				s0.6-0.3,1-0.3c0.1,0,0.2,0,0.3,0s0.2,0,0.3,0.1s0.2,0,0.2,0.1c0.1,0,0.2,0,0.2,0.1l-0.2,0.6c-0.1,0-0.2-0.1-0.4-0.2
				c-0.1-0.1-0.4-0.1-0.6-0.1s-0.4,0-0.5,0.2c-0.1,0.2-0.2,0.2-0.2,0.4c0,0.1,0,0.2,0.1,0.2c0,0.1,0.1,0.2,0.1,0.2
				c0.1,0.1,0.2,0.1,0.2,0.2c0.1,0.1,0.2,0.1,0.4,0.1s0.4,0.2,0.5,0.2c0.2,0.1,0.3,0.1,0.4,0.2c0.1,0.1,0.2,0.2,0.2,0.3
				s0.1,0.3,0.1,0.5c0,0.4-0.2,0.7-0.5,0.8c-0.3,0.2-0.7,0.3-1.2,0.3c-0.4,0-0.6,0-0.8-0.1c-0.2-0.1-0.3-0.1-0.4-0.1l0.1-0.6
				c0.1,0,0.2,0.1,0.4,0.2C98.7,39.2,98.9,39.2,99.2,39.2z"/>
		</g>
	</g>
	<g>
		<g>
			<path class="st2" d="M104.9,34.3c0.8,0,1.3,0.2,1.7,0.5s0.6,0.7,0.6,1.3c0,0.3-0.1,0.6-0.1,0.8c-0.1,0.2-0.3,0.4-0.5,0.5
				c-0.2,0.2-0.4,0.2-0.8,0.3c-0.3,0.1-0.6,0.1-1,0.1h-0.6v2h-0.8v-5.2c0.2-0.1,0.4-0.1,0.7-0.1C104.5,34.3,104.7,34.3,104.9,34.3z
				 M105,35c-0.3,0-0.6,0-0.8,0v2.1h0.6c0.2,0,0.4,0,0.7-0.1c0.2,0,0.4-0.1,0.5-0.2s0.2-0.2,0.3-0.3c0.1-0.2,0.1-0.3,0.1-0.5
				c0-0.2-0.1-0.4-0.2-0.5c-0.1-0.2-0.1-0.2-0.3-0.3c-0.2-0.1-0.3-0.1-0.5-0.1C105.4,35,105.2,35,105,35z"/>
		</g>
	</g>
	<g>
		<g>
			<path class="st2" d="M109.6,35.6c0.1,0,0.2,0,0.2,0s0.1,0,0.2,0c0.1,0,0.1,0,0.2,0s0.1,0,0.2,0l-0.2,0.6c-0.1,0-0.2-0.1-0.3-0.1
				s-0.3-0.1-0.5-0.1c-0.2,0-0.3,0-0.4,0.1c-0.2,0-0.2,0.1-0.2,0.1v3.5h-0.7v-3.8c0.2-0.1,0.4-0.2,0.6-0.2
				C109,35.7,109.4,35.6,109.6,35.6z"/>
		</g>
	</g>
	<g>
		<g>
			<path class="st2" d="M114.7,37.7c0,0.3-0.1,0.6-0.2,0.9c-0.1,0.2-0.2,0.4-0.4,0.7c-0.1,0.2-0.4,0.3-0.6,0.4
				c-0.2,0.1-0.5,0.2-0.8,0.2s-0.5-0.1-0.8-0.2c-0.2-0.1-0.5-0.2-0.6-0.4c-0.2-0.2-0.3-0.4-0.4-0.7c-0.1-0.2-0.2-0.5-0.2-0.9
				c0-0.3,0.1-0.6,0.2-0.8c0.1-0.2,0.2-0.5,0.4-0.7c0.1-0.2,0.4-0.3,0.6-0.4c0.2-0.1,0.5-0.2,0.8-0.2s0.5,0.1,0.8,0.2
				c0.2,0.1,0.5,0.2,0.6,0.4c0.2,0.2,0.3,0.4,0.4,0.7C114.6,37.1,114.7,37.4,114.7,37.7z M113.9,37.7c0-0.4-0.1-0.8-0.3-1
				c-0.2-0.2-0.5-0.4-0.8-0.4s-0.6,0.1-0.8,0.4c-0.2,0.2-0.3,0.6-0.3,1c0,0.5,0.1,0.8,0.3,1.1c0.2,0.2,0.5,0.4,0.8,0.4
				s0.6-0.2,0.8-0.4C113.8,38.6,113.9,38.2,113.9,37.7z"/>
		</g>
	</g>
	<g>
		<g>
			<path class="st2" d="M117.2,33.8c0.2,0,0.4,0,0.5,0.1c0.1,0.1,0.2,0.1,0.3,0.1l-0.2,0.6c-0.1,0-0.1-0.1-0.3-0.1
				c-0.2,0-0.2-0.1-0.5-0.1c-0.3,0-0.6,0.1-0.7,0.3c-0.1,0.2-0.2,0.4-0.2,0.8v0.4h1.6v0.6h-1.6v3.4h-0.7v-4.3c0-0.5,0.2-0.9,0.4-1.2
				C116.2,33.9,116.7,33.8,117.2,33.8z"/>
		</g>
	</g>
	<g>
		<g>
			<path class="st2" d="M118.4,37.7c0-0.4,0.1-0.7,0.1-0.9c0.1-0.2,0.2-0.4,0.4-0.7c0.1-0.2,0.4-0.3,0.6-0.4
				c0.2-0.1,0.4-0.2,0.7-0.2c0.5,0,1,0.2,1.2,0.5c0.3,0.4,0.4,0.8,0.4,1.5c0,0,0,0.1,0,0.2c0,0.1,0,0.1,0,0.1h-2.7
				c0,0.4,0.1,0.8,0.4,1c0.2,0.2,0.5,0.3,1,0.3c0.2,0,0.5,0,0.6-0.1c0.2-0.1,0.3-0.1,0.4-0.2l0.1,0.6c-0.1,0.1-0.2,0.1-0.5,0.2
				c-0.2,0.1-0.4,0.1-0.8,0.1c-0.4,0-0.7-0.1-0.9-0.1s-0.5-0.2-0.6-0.5c-0.1-0.2-0.3-0.4-0.4-0.7C118.4,38.3,118.4,38,118.4,37.7z
				 M121.1,37.3c0-0.3-0.1-0.6-0.2-0.8c-0.1-0.2-0.4-0.3-0.7-0.3c-0.2,0-0.3,0-0.5,0.1c-0.1,0.1-0.2,0.1-0.3,0.2
				c-0.1,0.1-0.2,0.2-0.2,0.4s-0.1,0.3-0.1,0.4C119.1,37.3,121.1,37.3,121.1,37.3z"/>
		</g>
	</g>
	<g>
		<g>
			<path class="st2" d="M123.8,39.2c0.3,0,0.5,0,0.7-0.2c0.1-0.1,0.2-0.2,0.2-0.4c0-0.1-0.1-0.3-0.2-0.4c-0.1-0.1-0.4-0.2-0.7-0.4
				c-0.2-0.1-0.3-0.1-0.5-0.1c-0.1-0.1-0.3-0.2-0.4-0.2c-0.1-0.1-0.1-0.2-0.2-0.3c-0.1-0.2-0.1-0.3-0.1-0.5c0-0.4,0.1-0.6,0.4-0.8
				c0.2-0.2,0.6-0.3,1-0.3c0.1,0,0.2,0,0.3,0c0.1,0,0.2,0,0.3,0.1c0.1,0.1,0.2,0,0.2,0.1c0.1,0,0.1,0,0.1,0.1l-0.1,0.6
				c-0.1,0-0.2-0.1-0.4-0.2c-0.1-0.1-0.4-0.1-0.6-0.1c-0.2,0-0.4,0-0.5,0.2s-0.2,0.2-0.2,0.4c0,0.1,0,0.2,0.1,0.2
				c0,0.1,0.1,0.2,0.1,0.2c0.1,0.1,0.1,0.1,0.2,0.2c0.1,0.1,0.2,0.1,0.4,0.1c0.1,0.1,0.4,0.2,0.5,0.2c0.1,0.1,0.3,0.1,0.4,0.2
				c0.1,0.1,0.1,0.2,0.2,0.3c0.1,0.1,0.1,0.3,0.1,0.5c0,0.4-0.1,0.7-0.4,0.8c-0.3,0.2-0.7,0.3-1.2,0.3c-0.4,0-0.6,0-0.8-0.1
				c-0.2-0.1-0.3-0.1-0.4-0.1l0.1-0.6c0.1,0,0.2,0.1,0.4,0.2C123.3,39.2,123.5,39.2,123.8,39.2z"/>
		</g>
	</g>
	<g>
		<g>
			<path class="st2" d="M126.7,35c-0.2,0-0.2-0.1-0.3-0.2c-0.1-0.1-0.1-0.2-0.1-0.4s0.1-0.2,0.1-0.4c0.1-0.1,0.2-0.2,0.3-0.2
				s0.2,0.1,0.3,0.2c0.1,0.1,0.1,0.2,0.1,0.4s-0.1,0.2-0.1,0.4C126.9,34.9,126.8,35,126.7,35z M127,39.8h-0.7v-4h0.7V39.8z"/>
		</g>
	</g>
	<g>
		<g>
			<path class="st2" d="M131.8,37.7c0,0.3-0.1,0.6-0.1,0.9c-0.1,0.2-0.2,0.4-0.4,0.7c-0.1,0.1-0.4,0.3-0.6,0.4
				c-0.2,0.1-0.4,0.2-0.8,0.2c-0.3,0-0.5-0.1-0.8-0.2c-0.2-0.1-0.4-0.2-0.6-0.4c-0.1-0.2-0.3-0.4-0.4-0.7c-0.1-0.2-0.1-0.5-0.1-0.9
				c0-0.3,0.1-0.6,0.1-0.8c0.1-0.2,0.2-0.5,0.4-0.7c0.2-0.2,0.4-0.3,0.6-0.4c0.2-0.1,0.5-0.2,0.8-0.2c0.3,0,0.5,0.1,0.8,0.2
				c0.2,0.1,0.5,0.2,0.6,0.4c0.1,0.2,0.3,0.4,0.4,0.7C131.7,37.1,131.8,37.4,131.8,37.7z M131,37.7c0-0.4-0.1-0.8-0.3-1
				c-0.2-0.2-0.5-0.4-0.8-0.4s-0.6,0.1-0.8,0.4c-0.2,0.2-0.3,0.6-0.3,1c0,0.5,0.1,0.8,0.3,1.1s0.4,0.4,0.8,0.4s0.6-0.2,0.8-0.4
				S131,38.2,131,37.7z"/>
		</g>
	</g>
	<g>
		<g>
			<path class="st2" d="M132.8,35.8c0.1,0,0.4-0.1,0.7-0.2c0.3-0.1,0.6-0.1,0.9-0.1c0.3,0,0.6,0.1,0.8,0.2c0.2,0.1,0.4,0.2,0.5,0.4
				c0.2,0.2,0.2,0.4,0.3,0.6s0.1,0.4,0.1,0.8v2.2h-0.7v-2.1c0-0.2,0-0.5-0.1-0.6c0-0.2-0.1-0.3-0.1-0.5c-0.1-0.1-0.1-0.2-0.3-0.2
				c-0.1-0.1-0.3-0.1-0.5-0.1c-0.1,0-0.1,0-0.2,0c-0.1,0-0.1,0-0.2,0c-0.1,0-0.2,0-0.2,0s-0.1,0-0.1,0v3.4h-0.8V35.8L132.8,35.8z"/>
		</g>
	</g>
	<g>
		<g>
			<path class="st2" d="M138.5,35.6c0.3,0,0.5,0,0.8,0.2c0.2,0.1,0.4,0.2,0.4,0.3c0.1,0.2,0.2,0.3,0.2,0.5c0.1,0.2,0.1,0.4,0.1,0.6
				v2.5c-0.1,0-0.1,0-0.2,0.1c-0.1,0.1-0.2,0-0.4,0.1c-0.1,0-0.3,0-0.4,0.1c-0.1,0-0.3,0-0.4,0c-0.2,0-0.5,0-0.6-0.1
				c-0.1-0.1-0.4-0.1-0.5-0.2c-0.1-0.1-0.2-0.2-0.3-0.4c-0.1-0.2-0.1-0.4-0.1-0.6c0-0.2,0.1-0.4,0.1-0.6c0.1-0.2,0.2-0.3,0.4-0.4
				c0.2-0.1,0.3-0.1,0.5-0.2c0.2-0.1,0.4-0.1,0.7-0.1c0.1,0,0.2,0,0.2,0s0.1,0,0.2,0c0.1,0,0.1,0,0.1,0c0.1,0,0.1,0,0.1,0v-0.2
				c0-0.2,0-0.2-0.1-0.4c-0.1-0.2-0.1-0.2-0.1-0.3s-0.2-0.2-0.3-0.2c-0.1-0.1-0.3-0.1-0.4-0.1c-0.2,0-0.5,0-0.6,0.1
				c-0.1,0-0.3,0.1-0.4,0.1l-0.1-0.6c0.1,0,0.2-0.1,0.4-0.2C138,35.6,138.2,35.6,138.5,35.6z M138.5,39.2c0.1,0,0.3,0,0.5,0
				c0.1,0,0.2,0,0.3-0.1V38c-0.1,0-0.1-0.1-0.2-0.1c-0.1,0-0.2,0-0.4,0c-0.1,0-0.2,0-0.4,0S138,38,137.9,38
				c-0.1,0.1-0.1,0.2-0.2,0.2c-0.1,0.1-0.1,0.2-0.1,0.3c0,0.2,0.1,0.5,0.2,0.5C138,39.2,138.2,39.2,138.5,39.2z"/>
		</g>
	</g>
	<g>
		<g>
			<path class="st2" d="M142.4,39.8c-0.5,0-0.8-0.1-0.9-0.3c-0.2-0.2-0.3-0.5-0.3-0.8v-4.8l0.7-0.2v4.8c0,0.1,0,0.2,0,0.3
				c0,0.1,0.1,0.2,0.1,0.2c0.1,0.1,0.1,0.1,0.1,0.1c0.1,0,0.2,0.1,0.3,0.1V39.8z"/>
		</g>
	</g>
	<g>
		<g>
			<path class="st2" d="M143,37.7c0-0.4,0.1-0.7,0.1-0.9c0.1-0.2,0.2-0.4,0.4-0.7c0.2-0.2,0.4-0.3,0.6-0.4s0.5-0.2,0.7-0.2
				c0.5,0,1,0.2,1.2,0.5c0.3,0.4,0.5,0.8,0.5,1.5c0,0,0,0.1,0,0.2c0,0.1,0,0.1,0,0.1h-2.7c0,0.4,0.1,0.8,0.4,1
				c0.2,0.2,0.5,0.3,1,0.3c0.2,0,0.5,0,0.6-0.1c0.1-0.1,0.3-0.1,0.4-0.2l0.1,0.6c-0.1,0.1-0.2,0.1-0.4,0.2c-0.2,0.1-0.5,0.1-0.8,0.1
				c-0.4,0-0.7-0.1-0.9-0.1c-0.2-0.1-0.5-0.2-0.6-0.5s-0.3-0.4-0.4-0.7C143.1,38.3,143,38,143,37.7z M145.8,37.3
				c0-0.3-0.1-0.6-0.2-0.8c-0.2-0.2-0.4-0.3-0.7-0.3c-0.1,0-0.3,0-0.4,0.1c-0.2,0.1-0.2,0.1-0.3,0.2s-0.1,0.2-0.2,0.4
				c-0.1,0.2-0.1,0.3-0.1,0.4C143.9,37.3,145.8,37.3,145.8,37.3z"/>
		</g>
	</g>
	<g>
		<g>
			<path class="st2" d="M148.5,39.2c0.3,0,0.5,0,0.7-0.2c0.2-0.1,0.2-0.2,0.2-0.4c0-0.1-0.1-0.3-0.2-0.4c-0.1-0.1-0.4-0.2-0.7-0.4
				c-0.1-0.1-0.3-0.1-0.5-0.1c-0.1-0.1-0.3-0.2-0.4-0.2c-0.1-0.1-0.1-0.2-0.2-0.3c-0.1-0.2-0.1-0.3-0.1-0.5c0-0.4,0.2-0.6,0.4-0.8
				c0.2-0.2,0.6-0.3,1.1-0.3c0.1,0,0.2,0,0.3,0c0.1,0,0.2,0,0.3,0.1s0.1,0,0.2,0.1c0.1,0,0.2,0,0.2,0.1l-0.2,0.6
				c-0.1,0-0.2-0.1-0.4-0.2c-0.1-0.1-0.4-0.1-0.6-0.1c-0.2,0-0.4,0-0.5,0.2c-0.1,0.2-0.2,0.2-0.2,0.4c0,0.1,0,0.2,0.1,0.2
				c0,0.1,0.1,0.2,0.1,0.2c0.1,0.1,0.2,0.1,0.2,0.2c0.1,0.1,0.2,0.1,0.4,0.1s0.4,0.2,0.5,0.2c0.2,0.1,0.3,0.1,0.4,0.2
				c0.1,0.1,0.2,0.2,0.2,0.3c0.1,0.1,0.1,0.3,0.1,0.5c0,0.4-0.1,0.7-0.5,0.8c-0.3,0.2-0.7,0.3-1.2,0.3c-0.4,0-0.6,0-0.8-0.1
				c-0.2-0.1-0.3-0.1-0.4-0.1l0.2-0.6c0.1,0,0.2,0.1,0.4,0.2C148,39.2,148.2,39.2,148.5,39.2z"/>
		</g>
	</g>
	<g>
		<g>
			<path class="st2" d="M152.5,37.7c0-0.4,0.1-0.7,0.2-0.9c0.1-0.2,0.2-0.4,0.4-0.7c0.1-0.2,0.4-0.3,0.6-0.4
				c0.2-0.1,0.5-0.2,0.7-0.2c0.5,0,1,0.2,1.2,0.5c0.3,0.4,0.5,0.8,0.5,1.5c0,0,0,0.1,0,0.2c0,0.1,0,0.1,0,0.1h-2.7
				c0,0.4,0.2,0.8,0.4,1c0.2,0.2,0.5,0.3,1,0.3c0.2,0,0.5,0,0.6-0.1c0.1-0.1,0.3-0.1,0.4-0.2l0.1,0.6c-0.1,0.1-0.2,0.1-0.5,0.2
				c-0.2,0.1-0.5,0.1-0.8,0.1c-0.4,0-0.7-0.1-0.9-0.1s-0.5-0.2-0.6-0.5c-0.1-0.2-0.3-0.4-0.4-0.7C152.5,38.3,152.5,38,152.5,37.7z
				 M155.2,37.3c0-0.3-0.1-0.6-0.2-0.8s-0.4-0.3-0.7-0.3c-0.1,0-0.3,0-0.5,0.1c-0.1,0.1-0.2,0.1-0.3,0.2c-0.1,0.1-0.1,0.2-0.2,0.4
				s-0.1,0.3-0.1,0.4S155.2,37.3,155.2,37.3z"/>
		</g>
	</g>
	<g>
		<g>
			<path class="st2" d="M157,35.8c0.2,0,0.4-0.1,0.7-0.2c0.3-0.1,0.6-0.1,0.9-0.1c0.3,0,0.6,0.1,0.8,0.2c0.2,0.1,0.4,0.2,0.5,0.4
				s0.2,0.4,0.3,0.6c0.1,0.2,0.1,0.4,0.1,0.8v2.2h-0.7v-2.1c0-0.2,0-0.5-0.1-0.6c0-0.2-0.1-0.3-0.1-0.5c-0.1-0.1-0.2-0.2-0.3-0.2
				c-0.1-0.1-0.3-0.1-0.4-0.1c-0.1,0-0.2,0-0.2,0s-0.1,0-0.2,0c-0.1,0-0.1,0-0.2,0c-0.1,0-0.1,0-0.2,0v3.4h-0.7L157,35.8L157,35.8z"
				/>
		</g>
	</g>
	<g>
		<g>
			<polygon class="st2" points="166.4,39.1 166.4,39.8 163.3,39.8 163.3,34.4 164,34.4 164,39.1 			"/>
		</g>
	</g>
	<g>
		<g>
			<path class="st2" d="M169.1,35.8c0.1,0,0.4-0.1,0.7-0.2c0.3-0.1,0.6-0.1,0.9-0.1c0.3,0,0.6,0.1,0.8,0.2c0.2,0.1,0.4,0.2,0.5,0.4
				c0.2,0.2,0.2,0.4,0.3,0.6s0.1,0.4,0.1,0.8v2.2h-0.7v-2.1c0-0.2,0-0.5-0.1-0.6c0-0.2-0.1-0.3-0.1-0.5c-0.1-0.1-0.1-0.2-0.3-0.2
				c-0.1-0.1-0.3-0.1-0.5-0.1c-0.1,0-0.1,0-0.2,0c-0.1,0-0.1,0-0.2,0c-0.1,0-0.2,0-0.2,0s-0.1,0-0.1,0v3.4h-0.7L169.1,35.8
				L169.1,35.8z"/>
		</g>
	</g>
	<g>
		<g>
			<path class="st2" d="M173.3,37.7c0-0.4,0.1-0.7,0.1-0.9c0.1-0.2,0.2-0.4,0.4-0.7c0.1-0.2,0.4-0.3,0.6-0.4
				c0.2-0.1,0.4-0.2,0.7-0.2c0.5,0,1,0.2,1.2,0.5c0.3,0.4,0.4,0.8,0.4,1.5c0,0,0,0.1,0,0.2c0,0.1,0,0.1,0,0.1h-2.7
				c0,0.4,0.1,0.8,0.4,1c0.2,0.2,0.5,0.3,1,0.3c0.2,0,0.5,0,0.6-0.1c0.1-0.1,0.3-0.1,0.4-0.2l0.1,0.6c-0.1,0.1-0.2,0.1-0.4,0.2
				c-0.2,0.1-0.4,0.1-0.8,0.1c-0.4,0-0.7-0.1-0.9-0.1c-0.2-0.1-0.5-0.2-0.6-0.5c-0.1-0.2-0.3-0.4-0.4-0.7
				C173.3,38.3,173.3,38,173.3,37.7z M176,37.3c0-0.3-0.1-0.6-0.2-0.8c-0.1-0.2-0.4-0.3-0.7-0.3c-0.1,0-0.3,0-0.5,0.1
				c-0.1,0.1-0.2,0.1-0.3,0.2c-0.1,0.1-0.1,0.2-0.2,0.4c-0.1,0.2-0.1,0.3-0.1,0.4C174.1,37.3,176,37.3,176,37.3z"/>
		</g>
	</g>
	<g>
		<g>
			<path class="st2" d="M179.1,35.6c0.3,0,0.5,0,0.8,0.2c0.2,0.1,0.4,0.2,0.4,0.3c0.2,0.2,0.2,0.3,0.2,0.5c0.1,0.2,0.1,0.4,0.1,0.6
				v2.5c-0.1,0-0.1,0-0.2,0.1c-0.1,0.1-0.2,0-0.4,0.1c-0.2,0-0.3,0-0.5,0.1c-0.1,0-0.3,0-0.4,0c-0.2,0-0.5,0-0.6-0.1
				c-0.1-0.1-0.4-0.1-0.5-0.2c-0.1-0.1-0.2-0.2-0.3-0.4c-0.1-0.2-0.1-0.4-0.1-0.6c0-0.2,0.1-0.4,0.2-0.6c0.1-0.2,0.2-0.3,0.4-0.4
				c0.1-0.1,0.3-0.1,0.5-0.2c0.2-0.1,0.4-0.1,0.7-0.1c0.1,0,0.1,0,0.2,0c0.1,0,0.2,0,0.2,0s0.1,0,0.1,0c0.1,0,0.1,0,0.1,0v-0.2
				c0-0.2,0-0.2-0.1-0.4c-0.1-0.2-0.1-0.2-0.1-0.3s-0.1-0.2-0.3-0.2c-0.1-0.1-0.3-0.1-0.4-0.1c-0.2,0-0.4,0-0.6,0.1
				c-0.1,0-0.3,0.1-0.4,0.1l-0.1-0.6c0.1,0,0.2-0.1,0.4-0.2C178.6,35.6,178.9,35.6,179.1,35.6z M179.2,39.2c0.2,0,0.3,0,0.5,0
				c0.1,0,0.2,0,0.3-0.1V38c-0.1,0-0.1-0.1-0.2-0.1c-0.1,0-0.2,0-0.5,0c-0.1,0-0.2,0-0.4,0c-0.1,0-0.2,0.1-0.3,0.1
				c-0.1,0.1-0.2,0.2-0.2,0.2c-0.1,0.1-0.1,0.2-0.1,0.3c0,0.2,0.1,0.5,0.2,0.5C178.6,39.2,178.9,39.2,179.2,39.2z"/>
		</g>
	</g>
	<g>
		<g>
			<path class="st2" d="M168.5,34.2l-1,1.1l-0.4-0.3l0.9-1.2L168.5,34.2z M167.9,39.8h-0.7v-4h0.7V39.8z"/>
		</g>
	</g>
</g>
<g>
	<g>
		<path class="st1" d="M64.9,28.4v2h-6.7v-10h2.2v8C60.4,28.4,64.9,28.4,64.9,28.4z"/>
	</g>
	<g>
		<path class="st1" d="M73.4,30.4c-0.2-0.4-0.2-0.7-0.4-1c-0.2-0.4-0.2-0.8-0.4-1.1h-3.9c-0.1,0.4-0.2,0.8-0.4,1.1
			c-0.1,0.4-0.2,0.8-0.4,1h-2.3c0.4-1,0.8-2.1,1.1-3c0.3-0.9,0.7-1.8,1-2.5c0.3-0.8,0.6-1.6,1-2.2s0.6-1.4,1-2.1h2.1
			c0.3,0.7,0.7,1.4,1,2.1c0.3,0.8,0.6,1.5,1,2.2s0.7,1.6,1,2.5c0.3,0.9,0.7,1.9,1.1,3H73.4L73.4,30.4z M70.7,22.7
			c-0.1,0.1-0.2,0.4-0.2,0.6c-0.1,0.2-0.2,0.5-0.3,0.8c-0.1,0.3-0.2,0.7-0.4,1c-0.1,0.4-0.3,0.8-0.4,1.2h2.8
			c-0.1-0.5-0.3-0.8-0.4-1.2s-0.3-0.8-0.4-1s-0.2-0.6-0.3-0.8C70.9,23,70.8,22.8,70.7,22.7z"/>
	</g>
	<g>
		<path class="st1" d="M83.3,20.4v1.9h-3v8h-2.2v-8h-3v-1.9H83.3z"/>
	</g>
	<g>
		<path class="st1" d="M90.3,30.4c-0.2-0.4-0.2-0.7-0.4-1c-0.2-0.4-0.2-0.8-0.4-1.1h-3.9c-0.1,0.4-0.2,0.8-0.4,1.1
			c-0.1,0.4-0.2,0.8-0.4,1h-2.3c0.4-1,0.8-2.1,1.1-3c0.3-0.9,0.7-1.8,1-2.5c0.3-0.8,0.6-1.6,1-2.2s0.6-1.4,1-2.1h2.1
			c0.3,0.7,0.7,1.4,1,2.1c0.3,0.8,0.6,1.5,1,2.2s0.7,1.6,1,2.5c0.3,0.9,0.7,1.9,1.1,3H90.3L90.3,30.4z M87.6,22.7
			c-0.1,0.1-0.2,0.4-0.2,0.6c-0.1,0.2-0.2,0.5-0.3,0.8c-0.1,0.3-0.2,0.7-0.4,1c-0.1,0.4-0.3,0.8-0.4,1.2H89
			c-0.1-0.5-0.3-0.8-0.4-1.2s-0.3-0.8-0.4-1s-0.2-0.6-0.3-0.8C87.8,23,87.6,22.8,87.6,22.7z"/>
	</g>
	<g>
		<path class="st1" d="M96.6,20.4c0.1,0.3,0.4,0.7,0.6,1.2c0.2,0.5,0.5,1,0.7,1.5c0.2,0.5,0.5,1.1,0.8,1.7c0.3,0.5,0.5,1.1,0.7,1.6
			c0.2-0.5,0.5-1,0.7-1.6c0.2-0.6,0.5-1.1,0.8-1.7c0.3-0.5,0.5-1,0.7-1.5c0.2-0.4,0.5-0.8,0.6-1.2h2c0.1,0.7,0.2,1.4,0.3,2.2
			c0.1,0.8,0.1,1.6,0.2,2.5c0.1,0.9,0.1,1.8,0.1,2.6c0.1,0.9,0.1,1.7,0.1,2.5h-2.2c0-1-0.1-2-0.1-3.2s-0.1-2.2-0.2-3.4
			c-0.2,0.4-0.4,0.8-0.6,1.3c-0.2,0.5-0.5,1-0.6,1.5c-0.2,0.5-0.4,1-0.6,1.4c-0.2,0.4-0.4,0.8-0.4,1.1h-1.6
			c-0.1-0.3-0.3-0.7-0.4-1.1c-0.2-0.5-0.4-0.9-0.6-1.4c-0.2-0.4-0.5-1-0.6-1.5c-0.2-0.4-0.4-0.9-0.6-1.3c-0.1,1.1-0.2,2.3-0.2,3.4
			c-0.1,1.1-0.1,2.2-0.2,3.2h-2.2c0.1-0.8,0.1-1.7,0.2-2.5C94,26.9,94,26,94,25.2c0.1-0.9,0.2-1.7,0.2-2.5c0.1-0.8,0.1-1.6,0.2-2.2
			C94.4,20.4,96.6,20.4,96.6,20.4z"/>
	</g>
	<g>
		<path class="st1" d="M110.2,30.4v-10h6.8v1.9h-4.5v1.9h4v1.9h-4v2.4h4.8v1.9C117.3,30.4,110.2,30.4,110.2,30.4z"/>
	</g>
	<g>
		<path class="st1" d="M125,30.4c-0.3-0.5-0.6-1.1-0.9-1.7c-0.3-0.6-0.7-1-1.1-1.4c-0.1,0.2-0.3,0.4-0.5,0.6
			c-0.2,0.3-0.5,0.5-0.6,0.8c-0.2,0.3-0.4,0.6-0.6,0.9c-0.1,0.3-0.3,0.6-0.4,0.8h-2.5c0.4-0.8,0.9-1.6,1.5-2.4
			c0.6-0.8,1.2-1.7,1.9-2.6l-3.2-4.9h2.7l1.8,2.9l2-2.8h2.5l-3.2,4.8c0.8,1,1.6,2,2.1,2.9s1,1.7,1.3,2.2H125L125,30.4z"/>
	</g>
	<g>
		<path class="st1" d="M131.9,20.2c1.5,0,2.6,0.3,3.5,0.8c0.8,0.5,1.2,1.3,1.2,2.5s-0.4,2.1-1.2,2.6c-0.8,0.5-2,0.8-3.5,0.8h-0.7
			v3.3H129v-9.8c0.5-0.1,1-0.1,1.6-0.2C131.2,20.3,131.5,20.2,131.9,20.2z M132.1,22.2c-0.2,0-0.3,0-0.5,0s-0.3,0-0.5,0V25h0.7
			c0.8,0,1.4-0.1,1.7-0.3s0.6-0.6,0.6-1.2c0-0.3-0.1-0.5-0.1-0.7c-0.1-0.2-0.2-0.3-0.4-0.5c-0.2-0.1-0.5-0.1-0.7-0.2
			C132.8,22.2,132.5,22.2,132.1,22.2z"/>
	</g>
	<g>
		<path class="st1" d="M147.7,25.3c0,0.8-0.1,1.6-0.4,2.2c-0.2,0.7-0.6,1.2-1,1.7s-1,0.8-1.6,1c-0.6,0.2-1.3,0.3-1.9,0.3
			s-1.4-0.1-1.9-0.3c-0.6-0.2-1.1-0.5-1.6-1s-0.8-1-1-1.7c-0.2-0.7-0.4-1.4-0.4-2.2c0-0.8,0.1-1.6,0.4-2.2c0.2-0.7,0.6-1.2,1-1.6
			c0.5-0.5,1-0.8,1.6-1c0.6-0.2,1.2-0.3,1.9-0.3c0.7,0,1.3,0.1,1.9,0.3c0.6,0.2,1.1,0.5,1.6,1c0.5,0.5,0.8,1,1.1,1.6
			C147.6,23.8,147.7,24.5,147.7,25.3z M140.1,25.3c0,0.5,0.1,0.9,0.1,1.4s0.3,0.8,0.5,1c0.2,0.3,0.5,0.5,0.8,0.7
			c0.3,0.1,0.7,0.2,1.1,0.2c0.4,0,0.8-0.1,1.1-0.2c0.3-0.2,0.6-0.4,0.8-0.7c0.2-0.3,0.4-0.6,0.5-1c0.1-0.5,0.1-0.8,0.1-1.4
			c0-0.5-0.1-0.9-0.1-1.3c-0.1-0.4-0.3-0.8-0.5-1c-0.2-0.3-0.5-0.5-0.8-0.7c-0.3-0.1-0.7-0.2-1.1-0.2c-0.5,0-0.8,0.1-1.1,0.2
			c-0.3,0.1-0.6,0.4-0.8,0.7s-0.4,0.6-0.5,1C140.2,24.5,140.1,24.9,140.1,25.3z"/>
	</g>
	<g>
		<path class="st1" d="M156.2,30.4c-0.7-1.1-1.4-2.2-2.1-3.4s-1.6-2.2-2.4-3.2v6.5h-2.2v-10h1.8c0.3,0.3,0.7,0.7,1,1.1
			c0.4,0.4,0.8,1,1.2,1.5c0.4,0.5,0.8,1,1.2,1.6s0.8,1.1,1.1,1.6v-5.9h2.2v10H156.2L156.2,30.4z"/>
	</g>
	<g>
		<path class="st1" d="M160.4,30.4v-10h6.8v1.9h-4.5v1.9h4v1.9h-4v2.4h4.8v1.9C167.5,30.4,160.4,30.4,160.4,30.4z"/>
	</g>
	<g>
		<path class="st1" d="M175.8,30.4c-0.7-1.1-1.3-2.2-2.1-3.4s-1.6-2.2-2.4-3.2v6.5h-2.2v-10h1.8c0.3,0.3,0.7,0.7,1.1,1.1
			c0.4,0.4,0.8,1,1.2,1.5c0.4,0.5,0.8,1,1.2,1.6s0.8,1.1,1.1,1.6v-5.9h2.2v10H175.8L175.8,30.4z"/>
	</g>
	<g>
		<path class="st1" d="M187.4,20.4v1.9h-3v8h-2.2v-8h-3v-1.9H187.4z"/>
	</g>
	<g>
		<path class="st1" d="M188.8,20.4h2.2v10h-2.2V20.4z"/>
	</g>
	<g>
		<path class="st1" d="M200,30.4c-0.1-0.4-0.2-0.7-0.4-1s-0.2-0.8-0.4-1.1h-3.9c-0.2,0.4-0.2,0.8-0.4,1.1s-0.2,0.8-0.4,1h-2.3
			c0.4-1,0.8-2.1,1.1-3c0.4-0.9,0.7-1.8,1-2.5c0.3-0.8,0.7-1.6,1-2.2c0.3-0.8,0.7-1.4,1-2.1h2.1c0.3,0.7,0.7,1.4,1,2.1
			c0.3,0.8,0.7,1.5,1,2.2s0.7,1.6,1,2.5c0.4,0.9,0.7,1.9,1,3H200L200,30.4z M197.3,22.7c-0.1,0.1-0.2,0.4-0.2,0.6
			c-0.1,0.2-0.2,0.5-0.3,0.8c-0.2,0.3-0.3,0.7-0.4,1c-0.2,0.4-0.3,0.8-0.5,1.2h2.9c-0.2-0.5-0.3-0.8-0.5-1.2s-0.3-0.8-0.4-1
			s-0.2-0.6-0.4-0.8C197.5,23,197.4,22.8,197.3,22.7z"/>
	</g>
	<g>
		<path class="st1" d="M210.4,28.4v2h-6.7v-10h2.2v8C206,28.4,210.4,28.4,210.4,28.4z"/>
	</g>
</g>
<path class="st0" d="M31.1,18.1L19.7,29.5c-0.9,0.9-2.4,0.9-3.3,0c-0.9-0.9-0.9-2.4,0-3.3l7.3-7.3c0.9-0.9,0.9-2.4,0-3.3
	s-2.4-0.9-3.3,0L8.2,28c-0.9,0.9-0.9,2.4,0,3.3c0.9,0.9,2.4,0.9,3.3,0l0.1-0.1c0.9-0.9,2.4-0.9,3.3,0s0.9,2.4,0,3.3l-4.2,4.2
	c-0.9,0.9-0.9,2.4,0,3.3c0.9,0.9,2.4,0.9,3.3,0l11.6-11.5c0.9-0.9,2.4-0.9,3.3,0c0.9,0.9,0.9,2.4,0,3.3l-7.5,7.5
	c-0.9,0.9-0.9,2.4,0,3.3c0.9,0.9,2.4,0.9,3.3,0l12.3-12.2c0.9-0.9,0.9-2.4,0-3.3c-0.9-0.9-2.4-0.9-3.3,0l0.1-0.1
	c-0.9,0.9-2.4,0.9-3.3,0c-0.9-0.9-0.9-2.4,0-3.3l4-4c0.9-0.9,0.9-2.4,0-3.3S32,17.2,31.1,18.1z"/>
</svg>
