<?xml version="1.0" encoding="utf-8"?>
<!-- Generator: Adobe Illustrator 25.4.1, SVG Export Plug-In . SVG Version: 6.00 Build 0)  -->
<svg version="1.1" id="Capa_1" xmlns="http://www.w3.org/2000/svg" xmlns:xlink="http://www.w3.org/1999/xlink" x="0px" y="0px"
	 viewBox="0 0 300 60" style="enable-background:new 0 0 300 60;" xml:space="preserve">
<style type="text/css">
	.st0{fill:#E72F54;}
	.st1{fill:#FFFFFF;}
	.st2{fill:#282828;}
</style>
<g>
	<rect class="st0" width="60" height="60"/>
</g>
<g>
	<rect x="60.5" y="0.5" class="st1" width="239" height="59"/>
	<path class="st0" d="M299,1v58H61V1H299 M300,0H60v60h240V0L300,0z"/>
</g>
<g>
	<g>
		<path class="st2" d="M80.99,43.12c-0.5,0-0.95-0.08-1.36-0.25c-0.41-0.16-0.76-0.4-1.05-0.72c-0.29-0.31-0.52-0.7-0.68-1.16
			c-0.16-0.46-0.24-0.99-0.24-1.58c0-0.59,0.09-1.12,0.27-1.58c0.18-0.46,0.42-0.85,0.73-1.16c0.31-0.31,0.66-0.55,1.07-0.72
			c0.41-0.16,0.85-0.25,1.31-0.25c0.29,0,0.56,0.02,0.79,0.06c0.24,0.04,0.44,0.09,0.61,0.14c0.17,0.05,0.32,0.11,0.42,0.16
			c0.11,0.05,0.18,0.1,0.23,0.12l-0.29,0.82c-0.06-0.04-0.15-0.09-0.27-0.13c-0.12-0.05-0.25-0.1-0.39-0.14
			c-0.15-0.05-0.31-0.09-0.48-0.12c-0.17-0.03-0.35-0.05-0.53-0.05c-0.37,0-0.71,0.06-1.01,0.19c-0.3,0.13-0.56,0.32-0.77,0.56
			c-0.21,0.25-0.37,0.54-0.49,0.89c-0.11,0.35-0.17,0.74-0.17,1.18c0,0.42,0.05,0.81,0.15,1.16c0.1,0.35,0.25,0.65,0.44,0.89
			c0.2,0.25,0.44,0.44,0.74,0.58c0.3,0.14,0.64,0.2,1.04,0.2c0.46,0,0.84-0.05,1.14-0.14s0.53-0.18,0.67-0.26l0.26,0.82
			c-0.05,0.03-0.13,0.08-0.26,0.13c-0.12,0.05-0.28,0.1-0.46,0.15c-0.18,0.05-0.4,0.09-0.64,0.12
			C81.54,43.11,81.28,43.12,80.99,43.12z"/>
	</g>
	<g>
		<path class="st2" d="M88.76,40.31c0,0.42-0.06,0.8-0.18,1.15c-0.12,0.34-0.3,0.63-0.52,0.88c-0.22,0.25-0.49,0.43-0.79,0.57
			c-0.31,0.13-0.64,0.2-1,0.2c-0.36,0-0.7-0.07-1-0.2c-0.31-0.13-0.57-0.32-0.79-0.57c-0.22-0.25-0.39-0.54-0.52-0.88
			c-0.12-0.34-0.18-0.72-0.18-1.15c0-0.42,0.06-0.8,0.18-1.14c0.12-0.34,0.29-0.64,0.52-0.88c0.22-0.25,0.49-0.43,0.79-0.57
			c0.31-0.13,0.64-0.2,1-0.2c0.36,0,0.7,0.07,1,0.2c0.31,0.13,0.57,0.32,0.79,0.57c0.22,0.25,0.39,0.54,0.52,0.88
			C88.7,39.52,88.76,39.9,88.76,40.31z M87.77,40.31c0-0.6-0.13-1.08-0.4-1.43c-0.27-0.35-0.64-0.53-1.1-0.53
			c-0.46,0-0.83,0.18-1.1,0.53s-0.4,0.83-0.4,1.43s0.13,1.08,0.4,1.43s0.64,0.53,1.1,0.53c0.46,0,0.83-0.18,1.1-0.53
			C87.64,41.39,87.77,40.91,87.77,40.31z"/>
	</g>
	<g>
		<path class="st2" d="M90.1,37.81c0.22-0.05,0.51-0.11,0.87-0.17c0.36-0.06,0.78-0.09,1.25-0.09c0.42,0,0.77,0.06,1.05,0.18
			c0.28,0.12,0.5,0.29,0.67,0.5c0.17,0.21,0.28,0.47,0.35,0.77c0.07,0.3,0.1,0.63,0.1,0.99v2.99h-0.95v-2.78
			c0-0.33-0.02-0.61-0.07-0.84c-0.04-0.23-0.12-0.42-0.22-0.56c-0.1-0.14-0.24-0.25-0.41-0.31c-0.17-0.06-0.38-0.1-0.63-0.1
			c-0.1,0-0.21,0-0.32,0.01c-0.11,0.01-0.21,0.01-0.31,0.03c-0.1,0.01-0.19,0.02-0.27,0.04c-0.08,0.01-0.13,0.02-0.17,0.03v4.49
			H90.1V37.81z"/>
	</g>
	<g>
		<path class="st2" d="M97.21,42.29c0.39,0,0.68-0.05,0.86-0.15c0.19-0.1,0.28-0.27,0.28-0.49c0-0.23-0.09-0.42-0.28-0.55
			c-0.18-0.14-0.49-0.29-0.91-0.46c-0.2-0.08-0.4-0.16-0.59-0.25c-0.19-0.08-0.35-0.19-0.49-0.3c-0.14-0.12-0.25-0.26-0.33-0.42
			c-0.08-0.16-0.12-0.36-0.12-0.6c0-0.47,0.17-0.84,0.52-1.12c0.35-0.28,0.82-0.41,1.42-0.41c0.15,0,0.3,0.01,0.45,0.03
			c0.15,0.02,0.29,0.04,0.42,0.06c0.13,0.02,0.24,0.05,0.34,0.08c0.1,0.03,0.18,0.05,0.23,0.07l-0.17,0.82
			c-0.1-0.05-0.26-0.11-0.48-0.17c-0.22-0.06-0.48-0.09-0.79-0.09c-0.27,0-0.5,0.05-0.7,0.16c-0.2,0.11-0.3,0.27-0.3,0.5
			c0,0.12,0.02,0.22,0.07,0.31c0.04,0.09,0.11,0.17,0.2,0.24c0.09,0.07,0.21,0.14,0.34,0.2c0.14,0.06,0.3,0.13,0.49,0.19
			c0.25,0.1,0.48,0.19,0.67,0.28c0.2,0.09,0.37,0.2,0.51,0.32c0.14,0.12,0.25,0.27,0.32,0.44c0.07,0.17,0.11,0.39,0.11,0.64
			c0,0.49-0.18,0.86-0.55,1.12c-0.36,0.25-0.88,0.38-1.56,0.38c-0.47,0-0.84-0.04-1.1-0.12s-0.45-0.14-0.54-0.18l0.17-0.82
			c0.11,0.04,0.28,0.1,0.52,0.18C96.5,42.25,96.81,42.29,97.21,42.29z"/>
	</g>
	<g>
		<path class="st2" d="M104.77,42.82c-0.22,0.05-0.51,0.11-0.86,0.17c-0.36,0.06-0.77,0.09-1.24,0.09c-0.41,0-0.75-0.06-1.03-0.18
			c-0.28-0.12-0.5-0.29-0.67-0.51c-0.17-0.22-0.29-0.48-0.37-0.77c-0.08-0.3-0.11-0.62-0.11-0.99v-2.99h0.95v2.78
			c0,0.65,0.1,1.11,0.31,1.39c0.2,0.28,0.55,0.42,1.03,0.42c0.1,0,0.21,0,0.32-0.01c0.11-0.01,0.21-0.01,0.31-0.02
			c0.1-0.01,0.18-0.02,0.26-0.03c0.08-0.01,0.13-0.02,0.17-0.04v-4.49h0.95V42.82z"/>
	</g>
	<g>
		<path class="st2" d="M108,43.07c-0.59-0.01-1-0.14-1.25-0.38c-0.25-0.24-0.37-0.61-0.37-1.11V35.2l0.95-0.16v6.39
			c0,0.16,0.01,0.29,0.04,0.39c0.03,0.1,0.07,0.18,0.13,0.25c0.06,0.06,0.14,0.11,0.25,0.14c0.1,0.03,0.23,0.06,0.38,0.08L108,43.07
			z"/>
	</g>
	<g>
		<path class="st2" d="M110.08,37.65h2.01v0.8h-2.01v2.45c0,0.27,0.02,0.49,0.06,0.66c0.04,0.17,0.1,0.31,0.18,0.41
			c0.08,0.1,0.18,0.17,0.31,0.21s0.27,0.06,0.43,0.06c0.29,0,0.52-0.03,0.69-0.1c0.17-0.06,0.3-0.11,0.36-0.14l0.18,0.79
			c-0.1,0.05-0.26,0.11-0.5,0.18c-0.24,0.07-0.51,0.11-0.82,0.11c-0.36,0-0.66-0.05-0.9-0.14c-0.24-0.09-0.42-0.23-0.57-0.41
			c-0.14-0.18-0.24-0.41-0.3-0.68c-0.06-0.27-0.09-0.58-0.09-0.94v-4.75l0.95-0.16V37.65z"/>
	</g>
	<g>
		<path class="st2" d="M117.86,40.31c0,0.42-0.06,0.8-0.18,1.15c-0.12,0.34-0.3,0.63-0.52,0.88c-0.22,0.25-0.49,0.43-0.79,0.57
			c-0.31,0.13-0.64,0.2-1,0.2c-0.36,0-0.7-0.07-1-0.2c-0.31-0.13-0.57-0.32-0.79-0.57c-0.22-0.25-0.39-0.54-0.52-0.88
			c-0.12-0.34-0.18-0.72-0.18-1.15c0-0.42,0.06-0.8,0.18-1.14c0.12-0.34,0.29-0.64,0.52-0.88c0.22-0.25,0.49-0.43,0.79-0.57
			c0.31-0.13,0.64-0.2,1-0.2c0.36,0,0.7,0.07,1,0.2c0.31,0.13,0.57,0.32,0.79,0.57c0.22,0.25,0.39,0.54,0.52,0.88
			C117.8,39.52,117.86,39.9,117.86,40.31z M116.86,40.31c0-0.6-0.13-1.08-0.4-1.43c-0.27-0.35-0.64-0.53-1.1-0.53
			s-0.83,0.18-1.1,0.53c-0.27,0.35-0.4,0.83-0.4,1.43s0.13,1.08,0.4,1.43c0.27,0.35,0.64,0.53,1.1,0.53s0.83-0.18,1.1-0.53
			C116.73,41.39,116.86,40.91,116.86,40.31z"/>
	</g>
	<g>
		<path class="st2" d="M121.16,37.54c0.08,0,0.18,0,0.28,0.02c0.11,0.01,0.21,0.02,0.31,0.04c0.1,0.02,0.2,0.03,0.28,0.05
			c0.09,0.02,0.15,0.03,0.19,0.05l-0.16,0.83c-0.07-0.03-0.2-0.06-0.37-0.1c-0.17-0.04-0.4-0.06-0.67-0.06
			c-0.18,0-0.35,0.02-0.53,0.06c-0.17,0.04-0.29,0.06-0.34,0.08v4.47h-0.95v-5.09c0.23-0.08,0.5-0.16,0.84-0.23
			C120.37,37.58,120.74,37.54,121.16,37.54z"/>
	</g>
	<g>
		<path class="st2" d="M124.86,35.64l-1.44,1.4l-0.48-0.43l1.31-1.57L124.86,35.64z M124.09,42.97h-0.95v-5.32h0.95V42.97z"/>
	</g>
	<g>
		<path class="st2" d="M127.45,37.52c0.38,0,0.7,0.05,0.97,0.15c0.26,0.1,0.47,0.24,0.63,0.42c0.16,0.18,0.27,0.4,0.34,0.64
			c0.07,0.25,0.1,0.52,0.1,0.82v3.32c-0.08,0.01-0.2,0.03-0.34,0.06c-0.15,0.02-0.31,0.05-0.5,0.07c-0.18,0.02-0.38,0.04-0.6,0.06
			c-0.21,0.02-0.43,0.03-0.64,0.03c-0.3,0-0.58-0.03-0.83-0.09c-0.25-0.06-0.47-0.16-0.65-0.29c-0.18-0.13-0.33-0.31-0.43-0.53
			c-0.1-0.22-0.15-0.48-0.15-0.79c0-0.29,0.06-0.55,0.18-0.76c0.12-0.21,0.28-0.38,0.49-0.51c0.2-0.13,0.44-0.23,0.72-0.29
			c0.27-0.06,0.56-0.09,0.86-0.09c0.1,0,0.19,0,0.3,0.01c0.1,0.01,0.2,0.02,0.29,0.04c0.09,0.02,0.17,0.03,0.24,0.05
			c0.07,0.01,0.12,0.02,0.14,0.03v-0.27c0-0.16-0.02-0.31-0.05-0.47c-0.03-0.15-0.1-0.29-0.18-0.41c-0.09-0.12-0.21-0.21-0.36-0.29
			c-0.15-0.07-0.35-0.11-0.6-0.11c-0.31,0-0.59,0.02-0.82,0.07c-0.24,0.04-0.41,0.09-0.53,0.14l-0.11-0.79
			c0.12-0.05,0.33-0.11,0.61-0.16C126.8,37.55,127.11,37.52,127.45,37.52z M127.53,42.29c0.23,0,0.42,0,0.6-0.02
			c0.17-0.01,0.32-0.03,0.43-0.06v-1.59c-0.07-0.03-0.18-0.06-0.33-0.09c-0.15-0.02-0.34-0.04-0.56-0.04c-0.14,0-0.3,0.01-0.46,0.03
			c-0.16,0.02-0.31,0.06-0.44,0.13c-0.13,0.06-0.24,0.15-0.33,0.27c-0.09,0.11-0.13,0.26-0.13,0.44c0,0.34,0.11,0.58,0.33,0.71
			C126.86,42.22,127.16,42.29,127.53,42.29z"/>
	</g>
	<g>
		<path class="st2" d="M132.31,42.29c0.39,0,0.68-0.05,0.86-0.15c0.19-0.1,0.28-0.27,0.28-0.49c0-0.23-0.09-0.42-0.28-0.55
			c-0.18-0.14-0.49-0.29-0.91-0.46c-0.2-0.08-0.4-0.16-0.59-0.25c-0.19-0.08-0.35-0.19-0.49-0.3c-0.14-0.12-0.25-0.26-0.33-0.42
			c-0.08-0.16-0.12-0.36-0.12-0.6c0-0.47,0.17-0.84,0.52-1.12c0.35-0.28,0.82-0.41,1.42-0.41c0.15,0,0.3,0.01,0.45,0.03
			c0.15,0.02,0.29,0.04,0.42,0.06c0.13,0.02,0.24,0.05,0.34,0.08c0.1,0.03,0.18,0.05,0.23,0.07l-0.17,0.82
			c-0.1-0.05-0.26-0.11-0.48-0.17c-0.22-0.06-0.48-0.09-0.79-0.09c-0.27,0-0.5,0.05-0.7,0.16c-0.2,0.11-0.3,0.27-0.3,0.5
			c0,0.12,0.02,0.22,0.07,0.31c0.04,0.09,0.11,0.17,0.2,0.24c0.09,0.07,0.21,0.14,0.34,0.2c0.14,0.06,0.3,0.13,0.49,0.19
			c0.25,0.1,0.48,0.19,0.67,0.28c0.2,0.09,0.37,0.2,0.51,0.32c0.14,0.12,0.25,0.27,0.32,0.44c0.07,0.17,0.11,0.39,0.11,0.64
			c0,0.49-0.18,0.86-0.55,1.12c-0.36,0.25-0.88,0.38-1.56,0.38c-0.47,0-0.84-0.04-1.1-0.12c-0.27-0.08-0.45-0.14-0.54-0.18
			l0.17-0.82c0.11,0.04,0.28,0.1,0.52,0.18C131.59,42.25,131.91,42.29,132.31,42.29z"/>
	</g>
	<g>
		<path class="st2" d="M139.94,35.81c0.99,0,1.76,0.19,2.3,0.57c0.54,0.38,0.8,0.94,0.8,1.69c0,0.41-0.07,0.76-0.22,1.05
			c-0.15,0.29-0.36,0.52-0.63,0.7c-0.28,0.18-0.61,0.31-1.01,0.39c-0.4,0.08-0.84,0.12-1.34,0.12h-0.79v2.63h-0.99v-6.98
			c0.28-0.07,0.59-0.11,0.94-0.14C139.33,35.83,139.65,35.81,139.94,35.81z M140.02,36.68c-0.42,0-0.75,0.01-0.97,0.03v2.78h0.75
			c0.34,0,0.65-0.02,0.92-0.07c0.27-0.04,0.5-0.12,0.69-0.22c0.19-0.11,0.33-0.25,0.43-0.43c0.1-0.18,0.15-0.42,0.15-0.71
			c0-0.27-0.05-0.5-0.16-0.67c-0.11-0.18-0.25-0.32-0.43-0.42s-0.39-0.18-0.63-0.22C140.53,36.7,140.28,36.68,140.02,36.68z"/>
	</g>
	<g>
		<path class="st2" d="M146.17,37.54c0.08,0,0.18,0,0.28,0.02c0.11,0.01,0.21,0.02,0.31,0.04c0.1,0.02,0.2,0.03,0.28,0.05
			c0.09,0.02,0.15,0.03,0.19,0.05l-0.16,0.83c-0.07-0.03-0.2-0.06-0.37-0.1c-0.17-0.04-0.4-0.06-0.67-0.06
			c-0.18,0-0.35,0.02-0.53,0.06c-0.17,0.04-0.29,0.06-0.34,0.08v4.47h-0.95v-5.09c0.23-0.08,0.5-0.16,0.84-0.23
			C145.38,37.58,145.76,37.54,146.17,37.54z"/>
	</g>
	<g>
		<path class="st2" d="M152.85,40.31c0,0.42-0.06,0.8-0.18,1.15c-0.12,0.34-0.3,0.63-0.52,0.88c-0.22,0.25-0.49,0.43-0.79,0.57
			c-0.31,0.13-0.64,0.2-1,0.2c-0.36,0-0.7-0.07-1-0.2c-0.31-0.13-0.57-0.32-0.79-0.57c-0.22-0.25-0.39-0.54-0.52-0.88
			c-0.12-0.34-0.18-0.72-0.18-1.15c0-0.42,0.06-0.8,0.18-1.14c0.12-0.34,0.29-0.64,0.52-0.88c0.22-0.25,0.49-0.43,0.79-0.57
			c0.31-0.13,0.64-0.2,1-0.2c0.36,0,0.7,0.07,1,0.2c0.31,0.13,0.57,0.32,0.79,0.57c0.22,0.25,0.39,0.54,0.52,0.88
			C152.79,39.52,152.85,39.9,152.85,40.31z M151.86,40.31c0-0.6-0.13-1.08-0.4-1.43c-0.27-0.35-0.64-0.53-1.1-0.53
			c-0.46,0-0.83,0.18-1.1,0.53c-0.27,0.35-0.4,0.83-0.4,1.43s0.13,1.08,0.4,1.43c0.27,0.35,0.64,0.53,1.1,0.53
			c0.46,0,0.83-0.18,1.1-0.53C151.72,41.39,151.86,40.91,151.86,40.31z"/>
	</g>
	<g>
		<path class="st2" d="M156.27,35.04c0.28,0,0.52,0.02,0.72,0.06c0.2,0.04,0.34,0.08,0.42,0.11l-0.17,0.82
			c-0.08-0.04-0.2-0.08-0.35-0.12s-0.33-0.06-0.55-0.06c-0.44,0-0.75,0.12-0.93,0.36c-0.18,0.24-0.27,0.57-0.27,0.98v0.46h2.05v0.8
			h-2.05v4.52h-0.95v-5.8c0-0.68,0.17-1.21,0.5-1.58C155.02,35.22,155.55,35.04,156.27,35.04z"/>
	</g>
	<g>
		<path class="st2" d="M157.84,40.32c0-0.47,0.07-0.88,0.2-1.23c0.14-0.35,0.32-0.64,0.54-0.87c0.23-0.23,0.48-0.41,0.78-0.52
			c0.29-0.12,0.59-0.17,0.9-0.17c0.72,0,1.26,0.22,1.65,0.67c0.38,0.45,0.57,1.13,0.57,2.04c0,0.04,0,0.09,0,0.16
			c0,0.06,0,0.12-0.01,0.18h-3.64c0.04,0.55,0.2,0.97,0.48,1.26c0.28,0.29,0.72,0.43,1.31,0.43c0.33,0,0.62-0.03,0.84-0.09
			c0.23-0.06,0.4-0.11,0.52-0.17l0.13,0.8c-0.11,0.06-0.32,0.13-0.61,0.19c-0.29,0.07-0.62,0.1-0.99,0.1c-0.46,0-0.86-0.07-1.2-0.21
			c-0.34-0.14-0.62-0.33-0.83-0.58c-0.22-0.25-0.38-0.54-0.49-0.87C157.89,41.1,157.84,40.73,157.84,40.32z M161.49,39.8
			c0.01-0.43-0.1-0.78-0.32-1.06c-0.22-0.28-0.53-0.41-0.92-0.41c-0.22,0-0.41,0.04-0.58,0.13c-0.17,0.08-0.31,0.2-0.42,0.33
			c-0.12,0.14-0.21,0.29-0.27,0.47c-0.06,0.18-0.11,0.36-0.13,0.54H161.49z"/>
	</g>
	<g>
		<path class="st2" d="M165.09,42.29c0.39,0,0.68-0.05,0.86-0.15c0.19-0.1,0.28-0.27,0.28-0.49c0-0.23-0.09-0.42-0.28-0.55
			c-0.18-0.14-0.49-0.29-0.91-0.46c-0.2-0.08-0.4-0.16-0.59-0.25c-0.19-0.08-0.35-0.19-0.49-0.3c-0.14-0.12-0.24-0.26-0.33-0.42
			c-0.08-0.16-0.12-0.36-0.12-0.6c0-0.47,0.17-0.84,0.52-1.12c0.35-0.28,0.82-0.41,1.42-0.41c0.15,0,0.3,0.01,0.45,0.03
			c0.15,0.02,0.29,0.04,0.42,0.06c0.13,0.02,0.24,0.05,0.34,0.08c0.1,0.03,0.17,0.05,0.23,0.07l-0.17,0.82
			c-0.1-0.05-0.26-0.11-0.48-0.17c-0.22-0.06-0.48-0.09-0.79-0.09c-0.27,0-0.5,0.05-0.7,0.16c-0.2,0.11-0.3,0.27-0.3,0.5
			c0,0.12,0.02,0.22,0.07,0.31c0.04,0.09,0.11,0.17,0.2,0.24c0.09,0.07,0.21,0.14,0.34,0.2c0.14,0.06,0.3,0.13,0.49,0.19
			c0.25,0.1,0.48,0.19,0.67,0.28c0.2,0.09,0.37,0.2,0.51,0.32c0.14,0.12,0.25,0.27,0.32,0.44c0.07,0.17,0.11,0.39,0.11,0.64
			c0,0.49-0.18,0.86-0.55,1.12c-0.37,0.25-0.88,0.38-1.56,0.38c-0.47,0-0.84-0.04-1.1-0.12c-0.27-0.08-0.45-0.14-0.54-0.18
			l0.17-0.82c0.11,0.04,0.28,0.1,0.52,0.18C164.38,42.25,164.69,42.29,165.09,42.29z"/>
	</g>
	<g>
		<path class="st2" d="M168.88,36.69c-0.17,0-0.32-0.06-0.43-0.17c-0.12-0.11-0.18-0.26-0.18-0.45c0-0.19,0.06-0.34,0.18-0.46
			c0.12-0.11,0.26-0.17,0.43-0.17s0.32,0.06,0.44,0.17c0.12,0.11,0.18,0.26,0.18,0.46c0,0.19-0.06,0.34-0.18,0.45
			C169.2,36.64,169.05,36.69,168.88,36.69z M169.37,42.97h-0.95v-5.32h0.95V42.97z"/>
	</g>
	<g>
		<path class="st2" d="M175.7,40.31c0,0.42-0.06,0.8-0.18,1.15c-0.12,0.34-0.29,0.63-0.52,0.88c-0.22,0.25-0.49,0.43-0.79,0.57
			c-0.31,0.13-0.64,0.2-1,0.2c-0.36,0-0.7-0.07-1-0.2c-0.31-0.13-0.57-0.32-0.79-0.57c-0.22-0.25-0.39-0.54-0.52-0.88
			c-0.12-0.34-0.18-0.72-0.18-1.15c0-0.42,0.06-0.8,0.18-1.14c0.12-0.34,0.29-0.64,0.52-0.88c0.22-0.25,0.49-0.43,0.79-0.57
			c0.31-0.13,0.64-0.2,1-0.2c0.36,0,0.7,0.07,1,0.2c0.31,0.13,0.57,0.32,0.79,0.57c0.22,0.25,0.39,0.54,0.52,0.88
			C175.63,39.52,175.7,39.9,175.7,40.31z M174.7,40.31c0-0.6-0.13-1.08-0.4-1.43c-0.27-0.35-0.64-0.53-1.1-0.53
			c-0.46,0-0.83,0.18-1.1,0.53s-0.4,0.83-0.4,1.43s0.13,1.08,0.4,1.43s0.64,0.53,1.1,0.53c0.46,0,0.83-0.18,1.1-0.53
			C174.57,41.39,174.7,40.91,174.7,40.31z"/>
	</g>
	<g>
		<path class="st2" d="M177.03,37.81c0.22-0.05,0.51-0.11,0.87-0.17c0.36-0.06,0.78-0.09,1.25-0.09c0.42,0,0.77,0.06,1.05,0.18
			c0.28,0.12,0.5,0.29,0.67,0.5c0.17,0.21,0.28,0.47,0.35,0.77c0.07,0.3,0.1,0.63,0.1,0.99v2.99h-0.95v-2.78
			c0-0.33-0.02-0.61-0.07-0.84c-0.04-0.23-0.12-0.42-0.22-0.56c-0.1-0.14-0.24-0.25-0.41-0.31c-0.17-0.06-0.38-0.1-0.63-0.1
			c-0.1,0-0.21,0-0.32,0.01c-0.11,0.01-0.21,0.01-0.31,0.03c-0.1,0.01-0.19,0.02-0.27,0.04c-0.08,0.01-0.13,0.02-0.17,0.03v4.49
			h-0.95V37.81z"/>
	</g>
	<g>
		<path class="st2" d="M184.62,37.52c0.38,0,0.7,0.05,0.97,0.15c0.26,0.1,0.47,0.24,0.63,0.42c0.16,0.18,0.27,0.4,0.34,0.64
			c0.07,0.25,0.1,0.52,0.1,0.82v3.32c-0.08,0.01-0.2,0.03-0.34,0.06s-0.31,0.05-0.5,0.07c-0.18,0.02-0.38,0.04-0.6,0.06
			c-0.21,0.02-0.43,0.03-0.64,0.03c-0.3,0-0.58-0.03-0.83-0.09c-0.25-0.06-0.47-0.16-0.65-0.29c-0.18-0.13-0.33-0.31-0.43-0.53
			c-0.1-0.22-0.15-0.48-0.15-0.79c0-0.29,0.06-0.55,0.18-0.76c0.12-0.21,0.28-0.38,0.49-0.51c0.2-0.13,0.44-0.23,0.72-0.29
			c0.27-0.06,0.56-0.09,0.86-0.09c0.1,0,0.19,0,0.3,0.01c0.1,0.01,0.2,0.02,0.29,0.04c0.09,0.02,0.17,0.03,0.24,0.05
			c0.07,0.01,0.12,0.02,0.14,0.03v-0.27c0-0.16-0.02-0.31-0.05-0.47s-0.09-0.29-0.18-0.41c-0.09-0.12-0.21-0.21-0.36-0.29
			c-0.15-0.07-0.35-0.11-0.6-0.11c-0.31,0-0.59,0.02-0.82,0.07c-0.24,0.04-0.41,0.09-0.53,0.14l-0.11-0.79
			c0.12-0.05,0.33-0.11,0.61-0.16C183.98,37.55,184.29,37.52,184.62,37.52z M184.7,42.29c0.22,0,0.42,0,0.6-0.02
			c0.17-0.01,0.32-0.03,0.43-0.06v-1.59c-0.07-0.03-0.18-0.06-0.33-0.09c-0.15-0.02-0.34-0.04-0.56-0.04c-0.14,0-0.3,0.01-0.46,0.03
			c-0.16,0.02-0.31,0.06-0.44,0.13c-0.13,0.06-0.24,0.15-0.33,0.27c-0.09,0.11-0.13,0.26-0.13,0.44c0,0.34,0.11,0.58,0.33,0.71
			C184.03,42.22,184.33,42.29,184.7,42.29z"/>
	</g>
	<g>
		<path class="st2" d="M189.84,43.07c-0.59-0.01-1-0.14-1.25-0.38c-0.25-0.24-0.37-0.61-0.37-1.11V35.2l0.95-0.16v6.39
			c0,0.16,0.01,0.29,0.04,0.39c0.03,0.1,0.07,0.18,0.13,0.25c0.06,0.06,0.14,0.11,0.25,0.14c0.1,0.03,0.23,0.06,0.38,0.08
			L189.84,43.07z"/>
	</g>
	<g>
		<path class="st2" d="M190.74,40.32c0-0.47,0.07-0.88,0.2-1.23c0.14-0.35,0.32-0.64,0.54-0.87c0.22-0.23,0.48-0.41,0.78-0.52
			c0.29-0.12,0.59-0.17,0.9-0.17c0.72,0,1.26,0.22,1.65,0.67c0.38,0.45,0.57,1.13,0.57,2.04c0,0.04,0,0.09,0,0.16
			c0,0.06,0,0.12-0.01,0.18h-3.64c0.04,0.55,0.2,0.97,0.48,1.26c0.28,0.29,0.72,0.43,1.31,0.43c0.33,0,0.62-0.03,0.84-0.09
			c0.23-0.06,0.4-0.11,0.52-0.17l0.13,0.8c-0.12,0.06-0.32,0.13-0.61,0.19c-0.29,0.07-0.62,0.1-0.99,0.1c-0.46,0-0.86-0.07-1.2-0.21
			c-0.34-0.14-0.62-0.33-0.83-0.58s-0.38-0.54-0.49-0.87C190.79,41.1,190.74,40.73,190.74,40.32z M194.39,39.8
			c0.01-0.43-0.1-0.78-0.32-1.06c-0.22-0.28-0.53-0.41-0.91-0.41c-0.22,0-0.41,0.04-0.58,0.13c-0.17,0.08-0.31,0.2-0.42,0.33
			c-0.12,0.14-0.21,0.29-0.27,0.47c-0.06,0.18-0.11,0.36-0.13,0.54H194.39z"/>
	</g>
	<g>
		<path class="st2" d="M197.99,42.29c0.39,0,0.68-0.05,0.86-0.15c0.19-0.1,0.28-0.27,0.28-0.49c0-0.23-0.09-0.42-0.28-0.55
			c-0.18-0.14-0.49-0.29-0.91-0.46c-0.2-0.08-0.4-0.16-0.59-0.25c-0.19-0.08-0.35-0.19-0.49-0.3c-0.14-0.12-0.24-0.26-0.33-0.42
			c-0.08-0.16-0.12-0.36-0.12-0.6c0-0.47,0.17-0.84,0.52-1.12c0.35-0.28,0.82-0.41,1.42-0.41c0.15,0,0.3,0.01,0.45,0.03
			c0.15,0.02,0.29,0.04,0.42,0.06c0.13,0.02,0.24,0.05,0.34,0.08c0.1,0.03,0.17,0.05,0.23,0.07l-0.17,0.82
			c-0.1-0.05-0.26-0.11-0.48-0.17c-0.22-0.06-0.48-0.09-0.79-0.09c-0.27,0-0.5,0.05-0.7,0.16c-0.2,0.11-0.3,0.27-0.3,0.5
			c0,0.12,0.02,0.22,0.07,0.31c0.04,0.09,0.11,0.17,0.2,0.24c0.09,0.07,0.21,0.14,0.34,0.2c0.14,0.06,0.3,0.13,0.49,0.19
			c0.25,0.1,0.48,0.19,0.67,0.28c0.2,0.09,0.37,0.2,0.51,0.32c0.14,0.12,0.25,0.27,0.32,0.44c0.07,0.17,0.11,0.39,0.11,0.64
			c0,0.49-0.18,0.86-0.55,1.12c-0.37,0.25-0.88,0.38-1.56,0.38c-0.47,0-0.84-0.04-1.1-0.12c-0.27-0.08-0.45-0.14-0.54-0.18
			l0.17-0.82c0.11,0.04,0.28,0.1,0.52,0.18C197.28,42.25,197.59,42.29,197.99,42.29z"/>
	</g>
	<g>
		<path class="st2" d="M203.38,40.32c0-0.47,0.07-0.88,0.2-1.23c0.14-0.35,0.32-0.64,0.54-0.87c0.22-0.23,0.48-0.41,0.78-0.52
			c0.29-0.12,0.59-0.17,0.9-0.17c0.72,0,1.26,0.22,1.65,0.67c0.38,0.45,0.57,1.13,0.57,2.04c0,0.04,0,0.09,0,0.16
			c0,0.06,0,0.12-0.01,0.18h-3.64c0.04,0.55,0.2,0.97,0.48,1.26c0.28,0.29,0.72,0.43,1.31,0.43c0.33,0,0.61-0.03,0.84-0.09
			c0.23-0.06,0.4-0.11,0.52-0.17l0.13,0.8c-0.12,0.06-0.32,0.13-0.61,0.19c-0.29,0.07-0.62,0.1-0.99,0.1c-0.46,0-0.86-0.07-1.2-0.21
			c-0.34-0.14-0.62-0.33-0.83-0.58c-0.22-0.25-0.38-0.54-0.49-0.87C203.43,41.1,203.38,40.73,203.38,40.32z M207.03,39.8
			c0.01-0.43-0.1-0.78-0.32-1.06c-0.22-0.28-0.53-0.41-0.91-0.41c-0.22,0-0.41,0.04-0.58,0.13c-0.17,0.08-0.31,0.2-0.42,0.33
			c-0.12,0.14-0.21,0.29-0.27,0.47c-0.06,0.18-0.11,0.36-0.13,0.54H207.03z"/>
	</g>
	<g>
		<path class="st2" d="M209.39,37.81c0.22-0.05,0.51-0.11,0.87-0.17c0.36-0.06,0.78-0.09,1.25-0.09c0.42,0,0.77,0.06,1.05,0.18
			c0.28,0.12,0.5,0.29,0.67,0.5c0.17,0.21,0.28,0.47,0.35,0.77c0.07,0.3,0.1,0.63,0.1,0.99v2.99h-0.95v-2.78
			c0-0.33-0.02-0.61-0.07-0.84c-0.04-0.23-0.12-0.42-0.22-0.56c-0.1-0.14-0.24-0.25-0.41-0.31c-0.17-0.06-0.38-0.1-0.63-0.1
			c-0.1,0-0.21,0-0.32,0.01c-0.11,0.01-0.21,0.01-0.31,0.03c-0.1,0.01-0.19,0.02-0.27,0.04c-0.08,0.01-0.13,0.02-0.17,0.03v4.49
			h-0.95V37.81z"/>
	</g>
	<g>
		<path class="st2" d="M221.95,42.11v0.86h-4.26v-7.09h0.99v6.23H221.95z"/>
	</g>
	<g>
		<path class="st2" d="M223.4,36.69c-0.17,0-0.32-0.06-0.43-0.17c-0.12-0.11-0.18-0.26-0.18-0.45c0-0.19,0.06-0.34,0.18-0.46
			c0.12-0.11,0.26-0.17,0.43-0.17c0.17,0,0.32,0.06,0.44,0.17c0.12,0.11,0.18,0.26,0.18,0.46c0,0.19-0.06,0.34-0.18,0.45
			C223.71,36.64,223.57,36.69,223.4,36.69z M223.88,42.97h-0.95v-5.32h0.95V42.97z"/>
	</g>
	<g>
		<path class="st2" d="M225.52,37.81c0.22-0.05,0.51-0.11,0.87-0.17c0.36-0.06,0.78-0.09,1.25-0.09c0.42,0,0.77,0.06,1.05,0.18
			c0.28,0.12,0.5,0.29,0.67,0.5c0.17,0.21,0.28,0.47,0.35,0.77c0.07,0.3,0.1,0.63,0.1,0.99v2.99h-0.95v-2.78
			c0-0.33-0.02-0.61-0.07-0.84c-0.04-0.23-0.12-0.42-0.22-0.56c-0.1-0.14-0.24-0.25-0.41-0.31c-0.17-0.06-0.38-0.1-0.63-0.1
			c-0.1,0-0.21,0-0.32,0.01c-0.11,0.01-0.21,0.01-0.31,0.03c-0.1,0.01-0.19,0.02-0.27,0.04c-0.08,0.01-0.13,0.02-0.17,0.03v4.49
			h-0.95V37.81z"/>
	</g>
	<g>
		<path class="st2" d="M231.09,40.32c0-0.47,0.07-0.88,0.2-1.23c0.14-0.35,0.32-0.64,0.54-0.87c0.22-0.23,0.48-0.41,0.78-0.52
			c0.29-0.12,0.59-0.17,0.9-0.17c0.72,0,1.26,0.22,1.65,0.67c0.38,0.45,0.57,1.13,0.57,2.04c0,0.04,0,0.09,0,0.16
			c0,0.06,0,0.12-0.01,0.18h-3.64c0.04,0.55,0.2,0.97,0.48,1.26c0.28,0.29,0.72,0.43,1.31,0.43c0.33,0,0.62-0.03,0.84-0.09
			c0.23-0.06,0.4-0.11,0.52-0.17l0.13,0.8c-0.12,0.06-0.32,0.13-0.61,0.19c-0.29,0.07-0.62,0.1-0.99,0.1c-0.46,0-0.86-0.07-1.2-0.21
			c-0.34-0.14-0.62-0.33-0.83-0.58c-0.22-0.25-0.38-0.54-0.49-0.87C231.14,41.1,231.09,40.73,231.09,40.32z M234.74,39.8
			c0.01-0.43-0.1-0.78-0.32-1.06c-0.22-0.28-0.53-0.41-0.91-0.41c-0.22,0-0.41,0.04-0.58,0.13c-0.17,0.08-0.31,0.2-0.42,0.33
			c-0.12,0.14-0.21,0.29-0.27,0.47c-0.06,0.18-0.11,0.36-0.13,0.54H234.74z"/>
	</g>
	<g>
		<path class="st2" d="M238.82,37.52c0.38,0,0.7,0.05,0.97,0.15c0.26,0.1,0.47,0.24,0.63,0.42c0.16,0.18,0.27,0.4,0.34,0.64
			c0.07,0.25,0.1,0.52,0.1,0.82v3.32c-0.08,0.01-0.2,0.03-0.34,0.06s-0.31,0.05-0.5,0.07c-0.18,0.02-0.38,0.04-0.6,0.06
			c-0.21,0.02-0.43,0.03-0.64,0.03c-0.3,0-0.58-0.03-0.83-0.09c-0.25-0.06-0.47-0.16-0.65-0.29c-0.18-0.13-0.33-0.31-0.43-0.53
			c-0.1-0.22-0.15-0.48-0.15-0.79c0-0.29,0.06-0.55,0.18-0.76c0.12-0.21,0.28-0.38,0.49-0.51c0.2-0.13,0.44-0.23,0.72-0.29
			c0.27-0.06,0.56-0.09,0.86-0.09c0.1,0,0.19,0,0.3,0.01c0.1,0.01,0.2,0.02,0.29,0.04c0.09,0.02,0.17,0.03,0.24,0.05
			c0.07,0.01,0.12,0.02,0.14,0.03v-0.27c0-0.16-0.02-0.31-0.05-0.47s-0.09-0.29-0.18-0.41c-0.09-0.12-0.21-0.21-0.36-0.29
			c-0.15-0.07-0.35-0.11-0.6-0.11c-0.31,0-0.59,0.02-0.82,0.07c-0.24,0.04-0.41,0.09-0.53,0.14l-0.11-0.79
			c0.12-0.05,0.33-0.11,0.61-0.16C238.18,37.55,238.49,37.52,238.82,37.52z M238.9,42.29c0.22,0,0.42,0,0.6-0.02
			c0.17-0.01,0.32-0.03,0.43-0.06v-1.59c-0.07-0.03-0.18-0.06-0.33-0.09c-0.15-0.02-0.34-0.04-0.56-0.04c-0.14,0-0.3,0.01-0.46,0.03
			c-0.16,0.02-0.31,0.06-0.44,0.13c-0.13,0.06-0.24,0.15-0.33,0.27c-0.09,0.11-0.13,0.26-0.13,0.44c0,0.34,0.11,0.58,0.33,0.71
			C238.23,42.22,238.53,42.29,238.9,42.29z"/>
	</g>
</g>
<g>
	<g>
		<path class="st0" d="M86.53,27.89v2.57h-8.87V17.18h2.99v10.71H86.53z"/>
	</g>
	<g>
		<path class="st0" d="M97.94,30.45c-0.15-0.46-0.31-0.94-0.48-1.42c-0.17-0.48-0.34-0.97-0.51-1.45h-5.18
			c-0.17,0.48-0.34,0.97-0.5,1.46s-0.33,0.96-0.47,1.42h-3.1c0.5-1.43,0.97-2.75,1.42-3.96c0.45-1.21,0.89-2.35,1.32-3.43
			c0.43-1.07,0.85-2.09,1.27-3.05c0.42-0.96,0.85-1.91,1.3-2.83h2.83c0.44,0.92,0.87,1.86,1.29,2.83c0.42,0.96,0.85,1.98,1.28,3.05
			c0.43,1.07,0.87,2.21,1.32,3.43c0.45,1.21,0.92,2.54,1.42,3.96H97.94z M94.35,20.19c-0.07,0.19-0.16,0.46-0.29,0.79
			c-0.13,0.33-0.27,0.72-0.44,1.15c-0.16,0.43-0.35,0.91-0.55,1.44c-0.2,0.52-0.41,1.07-0.62,1.64h3.8c-0.2-0.58-0.4-1.13-0.59-1.65
			c-0.19-0.53-0.37-1.01-0.54-1.44s-0.32-0.82-0.45-1.15C94.53,20.64,94.43,20.38,94.35,20.19z"/>
	</g>
	<g>
		<path class="st0" d="M111.12,17.18v2.55h-4v10.72h-2.99V19.73h-4v-2.55H111.12z"/>
	</g>
	<g>
		<path class="st0" d="M120.36,30.45c-0.15-0.46-0.31-0.94-0.48-1.42c-0.17-0.48-0.34-0.97-0.51-1.45h-5.18
			c-0.17,0.48-0.34,0.97-0.5,1.46s-0.33,0.96-0.47,1.42h-3.1c0.5-1.43,0.97-2.75,1.42-3.96c0.45-1.21,0.89-2.35,1.32-3.43
			c0.43-1.07,0.85-2.09,1.27-3.05c0.42-0.96,0.85-1.91,1.3-2.83h2.83c0.44,0.92,0.87,1.86,1.29,2.83c0.42,0.96,0.85,1.98,1.28,3.05
			c0.43,1.07,0.87,2.21,1.32,3.43c0.45,1.21,0.92,2.54,1.42,3.96H120.36z M116.77,20.19c-0.07,0.19-0.16,0.46-0.29,0.79
			c-0.13,0.33-0.27,0.72-0.44,1.15c-0.16,0.43-0.35,0.91-0.55,1.44c-0.2,0.52-0.41,1.07-0.62,1.64h3.8c-0.2-0.58-0.4-1.13-0.59-1.65
			c-0.19-0.53-0.37-1.01-0.54-1.44s-0.32-0.82-0.45-1.15C116.96,20.64,116.85,20.38,116.77,20.19z"/>
	</g>
	<g>
		<path class="st0" d="M128.79,17.18c0.23,0.42,0.5,0.94,0.8,1.56c0.3,0.62,0.61,1.29,0.94,2.01c0.33,0.72,0.65,1.46,0.97,2.21
			c0.32,0.75,0.62,1.46,0.9,2.13c0.28-0.66,0.58-1.37,0.9-2.13c0.32-0.75,0.64-1.49,0.97-2.21c0.33-0.72,0.64-1.39,0.94-2.01
			c0.3-0.62,0.57-1.14,0.8-1.56h2.72c0.13,0.88,0.25,1.87,0.35,2.96c0.11,1.09,0.2,2.23,0.29,3.41c0.08,1.18,0.16,2.37,0.23,3.55
			c0.07,1.19,0.13,2.3,0.18,3.35h-2.91c-0.04-1.29-0.09-2.69-0.15-4.21c-0.06-1.52-0.16-3.05-0.29-4.6
			c-0.23,0.54-0.49,1.13-0.77,1.78c-0.28,0.65-0.56,1.3-0.84,1.95c-0.28,0.65-0.54,1.27-0.8,1.87c-0.26,0.59-0.47,1.1-0.65,1.52
			h-2.09c-0.18-0.42-0.4-0.93-0.65-1.52c-0.26-0.59-0.52-1.22-0.8-1.87c-0.28-0.65-0.55-1.3-0.84-1.95
			c-0.28-0.65-0.54-1.24-0.77-1.78c-0.13,1.54-0.22,3.08-0.29,4.6c-0.06,1.52-0.12,2.92-0.15,4.21h-2.91
			c0.05-1.05,0.11-2.16,0.18-3.35c0.07-1.19,0.15-2.37,0.23-3.55c0.08-1.18,0.18-2.32,0.29-3.41c0.11-1.09,0.23-2.08,0.35-2.96
			H128.79z"/>
	</g>
	<g>
		<path class="st0" d="M147.04,30.45V17.18h8.96v2.51h-5.98v2.6h5.3v2.45h-5.3v3.2h6.42v2.51H147.04z"/>
	</g>
	<g>
		<path class="st0" d="M166.66,30.45c-0.37-0.74-0.78-1.49-1.23-2.25c-0.44-0.76-0.95-1.4-1.53-1.92c-0.18,0.2-0.41,0.47-0.68,0.82
			c-0.27,0.35-0.55,0.72-0.82,1.12c-0.27,0.39-0.53,0.8-0.77,1.23c-0.24,0.42-0.42,0.76-0.53,1h-3.41c0.56-1.04,1.22-2.11,1.98-3.21
			c0.76-1.1,1.61-2.27,2.54-3.51l-4.33-6.55h3.62l2.53,3.84l2.58-3.84h3.41l-4.31,6.41c1.13,1.42,2.06,2.71,2.79,3.89
			c0.73,1.18,1.31,2.17,1.73,2.98H166.66z"/>
	</g>
	<g>
		<path class="st0" d="M175.94,17.03c1.98,0,3.5,0.35,4.56,1.04c1.06,0.7,1.59,1.84,1.59,3.42c0,1.6-0.54,2.75-1.61,3.46
			c-1.07,0.71-2.6,1.06-4.6,1.06h-0.94v4.44h-2.99V17.37c0.65-0.13,1.34-0.22,2.07-0.27C174.75,17.05,175.39,17.03,175.94,17.03z
			 M176.13,19.57c-0.22,0-0.43,0.01-0.64,0.02c-0.21,0.01-0.39,0.02-0.55,0.04v3.83h0.94c1.03,0,1.81-0.14,2.34-0.42
			c0.52-0.28,0.79-0.81,0.79-1.57c0-0.37-0.07-0.68-0.2-0.92c-0.13-0.24-0.33-0.44-0.57-0.58c-0.25-0.15-0.55-0.25-0.91-0.31
			C176.96,19.6,176.57,19.57,176.13,19.57z"/>
	</g>
	<g>
		<path class="st0" d="M196.93,23.81c0,1.14-0.17,2.14-0.51,3c-0.34,0.86-0.8,1.58-1.39,2.16c-0.59,0.58-1.29,1.02-2.1,1.31
			c-0.81,0.29-1.68,0.44-2.61,0.44c-0.91,0-1.76-0.15-2.57-0.44c-0.8-0.29-1.51-0.73-2.11-1.31c-0.6-0.58-1.07-1.3-1.42-2.16
			c-0.34-0.86-0.52-1.86-0.52-3c0-1.14,0.18-2.14,0.54-3c0.36-0.86,0.84-1.59,1.45-2.17c0.61-0.59,1.31-1.03,2.11-1.32
			c0.8-0.29,1.64-0.44,2.52-0.44c0.91,0,1.76,0.15,2.57,0.44c0.8,0.29,1.51,0.74,2.11,1.32c0.6,0.59,1.07,1.31,1.42,2.17
			C196.76,21.67,196.93,22.67,196.93,23.81z M186.8,23.81c0,0.65,0.08,1.24,0.24,1.76c0.16,0.52,0.39,0.97,0.69,1.35
			c0.3,0.38,0.67,0.67,1.1,0.87c0.43,0.2,0.93,0.31,1.49,0.31c0.55,0,1.04-0.1,1.48-0.31c0.44-0.2,0.81-0.49,1.11-0.87
			c0.3-0.38,0.53-0.83,0.69-1.35c0.16-0.52,0.24-1.11,0.24-1.76s-0.08-1.24-0.24-1.77c-0.16-0.53-0.39-0.98-0.69-1.36
			c-0.3-0.38-0.67-0.67-1.11-0.87c-0.44-0.2-0.94-0.31-1.48-0.31c-0.56,0-1.06,0.11-1.49,0.32c-0.43,0.21-0.8,0.5-1.1,0.88
			c-0.3,0.38-0.53,0.83-0.69,1.36C186.88,22.59,186.8,23.17,186.8,23.81z"/>
	</g>
	<g>
		<path class="st0" d="M208.33,30.45c-0.86-1.52-1.78-3.02-2.78-4.5c-1-1.48-2.06-2.88-3.18-4.19v8.7h-2.95V17.18h2.43
			c0.42,0.42,0.89,0.94,1.4,1.55s1.03,1.27,1.56,1.96c0.53,0.7,1.06,1.42,1.58,2.16c0.52,0.75,1.01,1.47,1.47,2.15v-7.83h2.97v13.27
			H208.33z"/>
	</g>
	<g>
		<path class="st0" d="M213.9,30.45V17.18h8.96v2.51h-5.98v2.6h5.3v2.45h-5.3v3.2h6.42v2.51H213.9z"/>
	</g>
	<g>
		<path class="st0" d="M234.41,30.45c-0.86-1.52-1.78-3.02-2.78-4.5c-1-1.48-2.06-2.88-3.18-4.19v8.7h-2.95V17.18h2.43
			c0.42,0.42,0.89,0.94,1.4,1.55s1.03,1.27,1.56,1.96c0.53,0.7,1.06,1.42,1.58,2.16c0.52,0.75,1.01,1.47,1.47,2.15v-7.83h2.97v13.27
			H234.41z"/>
	</g>
	<g>
		<path class="st0" d="M249.83,17.18v2.55h-4v10.72h-2.99V19.73h-4v-2.55H249.83z"/>
	</g>
	<g>
		<path class="st0" d="M251.74,17.18h2.99v13.27h-2.99V17.18z"/>
	</g>
	<g>
		<path class="st0" d="M266.7,30.45c-0.15-0.46-0.31-0.94-0.48-1.42c-0.17-0.48-0.34-0.97-0.51-1.45h-5.18
			c-0.17,0.48-0.34,0.97-0.5,1.46c-0.17,0.49-0.32,0.96-0.47,1.42h-3.1c0.5-1.43,0.97-2.75,1.42-3.96c0.45-1.21,0.89-2.35,1.32-3.43
			c0.43-1.07,0.85-2.09,1.27-3.05c0.42-0.96,0.85-1.91,1.3-2.83h2.83c0.44,0.92,0.86,1.86,1.29,2.83c0.42,0.96,0.85,1.98,1.28,3.05
			c0.43,1.07,0.87,2.21,1.32,3.43c0.45,1.21,0.92,2.54,1.42,3.96H266.7z M263.11,20.19c-0.07,0.19-0.16,0.46-0.29,0.79
			c-0.13,0.33-0.27,0.72-0.44,1.15c-0.16,0.43-0.35,0.91-0.55,1.44c-0.2,0.52-0.41,1.07-0.62,1.64h3.8c-0.2-0.58-0.4-1.13-0.59-1.65
			c-0.19-0.53-0.37-1.01-0.54-1.44s-0.32-0.82-0.45-1.15C263.29,20.64,263.19,20.38,263.11,20.19z"/>
	</g>
	<g>
		<path class="st0" d="M280.47,27.89v2.57h-8.87V17.18h2.99v10.71H280.47z"/>
	</g>
</g>
<g>
	<path class="st1" d="M15,48.75c-0.96,0-1.92-0.37-2.65-1.1c-1.46-1.46-1.46-3.84,0-5.3l30-30c1.46-1.46,3.84-1.46,5.3,0
		c1.46,1.46,1.46,3.84,0,5.3l-30,30C16.92,48.38,15.96,48.75,15,48.75z"/>
</g>
<g>
	<path class="st1" d="M31.88,50.62c-0.96,0-1.92-0.37-2.65-1.1c-1.46-1.46-1.46-3.84,0-5.3l15-15c1.46-1.46,3.84-1.46,5.3,0
		c1.46,1.46,1.46,3.84,0,5.3l-15,15C33.79,50.26,32.83,50.62,31.88,50.62z"/>
</g>
<g>
	<path class="st1" d="M13.13,31.87c-0.96,0-1.92-0.37-2.65-1.1c-1.46-1.46-1.46-3.84,0-5.3l15-15c1.46-1.46,3.84-1.46,5.3,0
		c1.46,1.46,1.46,3.84,0,5.3l-15,15C15.04,31.51,14.08,31.87,13.13,31.87z"/>
</g>
</svg>
