<?xml version="1.0" encoding="utf-8"?>
<!-- Generator: Adobe Illustrator 25.4.1, SVG Export Plug-In . SVG Version: 6.00 Build 0)  -->
<svg version="1.1" id="Capa_1" xmlns="http://www.w3.org/2000/svg" xmlns:xlink="http://www.w3.org/1999/xlink" x="0px" y="0px"
	 viewBox="0 0 300 60" style="enable-background:new 0 0 300 60;" xml:space="preserve">
<style type="text/css">
	.st0{fill:#FFFFFF;}
	.st1{fill:#E73255;}
	.st2{fill:#3C3C3B;}
</style>
<rect x="61" y="1" class="st0" width="238" height="58"/>
<path class="st0" d="M466.5,218.2l-15.1,15.1c-1.2,1.2-3.2,1.2-4.4,0c-1.2-1.2-1.2-3.2,0-4.4l9.7-9.7c1.2-1.2,1.2-3.2,0-4.4
	c-1.2-1.2-3.2-1.2-4.4,0l-16.4,16.3c-1.2,1.2-1.2,3.2,0,4.4c1.2,1.2,3.2,1.2,4.4,0l0.1-0.1c1.2-1.2,3.2-1.2,4.4,0
	c1.2,1.2,1.2,3.2,0,4.4l-5.6,5.6c-1.2,1.2-1.2,3.2,0,4.4c1.2,1.2,3.2,1.2,4.4,0l15.4-15.4c1.2-1.2,3.2-1.2,4.4,0
	c1.2,1.2,1.2,3.2,0,4.4l-10,9.9c-1.2,1.2-1.2,3.2,0,4.4c1.2,1.2,3.2,1.2,4.4,0l16.4-16.3c1.2-1.2,1.2-3.2,0-4.4s-3.2-1.2-4.4,0
	l0.1-0.1c-1.2,1.2-3.2,1.2-4.4,0c-1.2-1.2-1.2-3.2,0-4.4l5.3-5.3c1.2-1.2,1.2-3.2,0-4.4C469.6,217,467.7,217,466.5,218.2z"/>
<path class="st1" d="M60,0h-2.3H0v60h57.7H60h240V0H60z M299,59H61V1h238V59z"/>
<g>
	<g>
		<g>
			<path class="st2" d="M81,43.1c-0.5,0-0.9-0.1-1.4-0.2c-0.4-0.2-0.8-0.4-1.1-0.7c-0.3-0.3-0.5-0.7-0.7-1.2s-0.2-1-0.2-1.6
				s0.1-1.1,0.3-1.6c0.2-0.5,0.4-0.8,0.7-1.2c0.3-0.3,0.7-0.5,1.1-0.7c0.4-0.2,0.8-0.2,1.3-0.2c0.3,0,0.6,0,0.8,0.1
				c0.2,0,0.4,0.1,0.6,0.1s0.3,0.1,0.4,0.2c0.1,0,0.2,0.1,0.2,0.1L82.8,37c-0.1,0-0.2-0.1-0.3-0.1c-0.1,0-0.2-0.1-0.4-0.1
				c-0.2,0-0.3-0.1-0.5-0.1c-0.2,0-0.3,0-0.5,0c-0.4,0-0.7,0.1-1,0.2c-0.3,0.1-0.6,0.3-0.8,0.6c-0.2,0.2-0.4,0.5-0.5,0.9
				c-0.1,0.3-0.2,0.7-0.2,1.2c0,0.4,0.1,0.8,0.2,1.2s0.2,0.7,0.4,0.9c0.2,0.2,0.4,0.4,0.7,0.6c0.3,0.1,0.6,0.2,1,0.2
				c0.5,0,0.8,0,1.1-0.1s0.5-0.2,0.7-0.3l0.3,0.8c-0.1,0-0.1,0.1-0.3,0.1c-0.1,0-0.3,0.1-0.5,0.2C82.2,43,82,43,81.8,43
				C81.5,43.1,81.3,43.1,81,43.1z"/>
		</g>
	</g>
	<g>
		<g>
			<path class="st2" d="M88.8,40.3c0,0.4-0.1,0.8-0.2,1.2c-0.1,0.3-0.3,0.6-0.5,0.9c-0.2,0.2-0.5,0.4-0.8,0.6
				c-0.3,0.1-0.6,0.2-1,0.2s-0.7-0.1-1-0.2c-0.3-0.1-0.6-0.3-0.8-0.6s-0.4-0.5-0.5-0.9c-0.1-0.3-0.2-0.7-0.2-1.2
				c0-0.4,0.1-0.8,0.2-1.1s0.3-0.6,0.5-0.9c0.2-0.2,0.5-0.4,0.8-0.6c0.3-0.1,0.6-0.2,1-0.2s0.7,0.1,1,0.2c0.3,0.1,0.6,0.3,0.8,0.6
				s0.4,0.5,0.5,0.9C88.7,39.5,88.8,39.9,88.8,40.3z M87.8,40.3c0-0.6-0.1-1.1-0.4-1.4c-0.3-0.3-0.6-0.5-1.1-0.5s-0.8,0.2-1.1,0.5
				s-0.4,0.8-0.4,1.4s0.1,1.1,0.4,1.4s0.6,0.5,1.1,0.5s0.8-0.2,1.1-0.5C87.6,41.4,87.8,40.9,87.8,40.3z"/>
		</g>
	</g>
	<g>
		<g>
			<path class="st2" d="M90.1,37.8c0.2,0,0.5-0.1,0.9-0.2c0.4-0.1,0.8-0.1,1.2-0.1c0.4,0,0.8,0.1,1.1,0.2c0.3,0.1,0.5,0.3,0.7,0.5
				s0.3,0.5,0.3,0.8s0.1,0.6,0.1,1v3h-0.9v-2.8c0-0.3,0-0.6-0.1-0.8c0-0.2-0.1-0.4-0.2-0.6c-0.1-0.1-0.2-0.2-0.4-0.3
				c-0.2-0.1-0.4-0.1-0.6-0.1c-0.1,0-0.2,0-0.3,0s-0.2,0-0.3,0c-0.1,0-0.2,0-0.3,0c-0.1,0-0.1,0-0.2,0V43h-0.9V37.8z"/>
		</g>
	</g>
	<g>
		<g>
			<path class="st2" d="M97.2,42.3c0.4,0,0.7,0,0.9-0.2c0.2-0.1,0.3-0.3,0.3-0.5c0-0.2-0.1-0.4-0.3-0.5c-0.2-0.1-0.5-0.3-0.9-0.5
				c-0.2-0.1-0.4-0.2-0.6-0.2c-0.2-0.1-0.3-0.2-0.5-0.3c-0.1-0.1-0.2-0.3-0.3-0.4s-0.1-0.4-0.1-0.6c0-0.5,0.2-0.8,0.5-1.1
				s0.8-0.4,1.4-0.4c0.2,0,0.3,0,0.4,0c0.2,0,0.3,0,0.4,0.1s0.2,0,0.3,0.1c0.1,0,0.2,0,0.2,0.1l-0.2,0.8c-0.1,0-0.3-0.1-0.5-0.2
				c-0.2-0.1-0.5-0.1-0.8-0.1c-0.3,0-0.5,0-0.7,0.2s-0.3,0.3-0.3,0.5c0,0.1,0,0.2,0.1,0.3c0,0.1,0.1,0.2,0.2,0.2
				c0.1,0.1,0.2,0.1,0.3,0.2c0.1,0.1,0.3,0.1,0.5,0.2c0.2,0.1,0.5,0.2,0.7,0.3c0.2,0.1,0.4,0.2,0.5,0.3s0.2,0.3,0.3,0.4
				s0.1,0.4,0.1,0.6c0,0.5-0.2,0.9-0.6,1.1c-0.4,0.2-0.9,0.4-1.6,0.4c-0.5,0-0.8,0-1.1-0.1s-0.4-0.1-0.5-0.2l0.2-0.8
				c0.1,0,0.3,0.1,0.5,0.2C96.5,42.2,96.8,42.3,97.2,42.3z"/>
		</g>
	</g>
	<g>
		<g>
			<path class="st2" d="M104.8,42.8c-0.2,0-0.5,0.1-0.9,0.2c-0.4,0.1-0.8,0.1-1.2,0.1c-0.4,0-0.8-0.1-1-0.2s-0.5-0.3-0.7-0.5
				c-0.2-0.2-0.3-0.5-0.4-0.8c-0.1-0.3-0.1-0.6-0.1-1v-3h0.9v2.8c0,0.7,0.1,1.1,0.3,1.4c0.2,0.3,0.6,0.4,1,0.4c0.1,0,0.2,0,0.3,0
				s0.2,0,0.3,0c0.1,0,0.2,0,0.3,0s0.1,0,0.2,0v-4.5h0.9L104.8,42.8L104.8,42.8z"/>
		</g>
	</g>
	<g>
		<g>
			<path class="st2" d="M108,43.1c-0.6,0-1-0.1-1.2-0.4s-0.4-0.6-0.4-1.1v-6.4l0.9-0.2v6.4c0,0.2,0,0.3,0,0.4s0.1,0.2,0.1,0.2
				c0.1,0.1,0.1,0.1,0.2,0.1c0.1,0,0.2,0.1,0.4,0.1L108,43.1z"/>
		</g>
	</g>
	<g>
		<g>
			<path class="st2" d="M110.1,37.7h2v0.8h-2v2.5c0,0.3,0,0.5,0.1,0.7s0.1,0.3,0.2,0.4s0.2,0.2,0.3,0.2s0.3,0.1,0.4,0.1
				c0.3,0,0.5,0,0.7-0.1c0.2-0.1,0.3-0.1,0.4-0.1l0.2,0.8c-0.1,0-0.3,0.1-0.5,0.2s-0.5,0.1-0.8,0.1c-0.4,0-0.7,0-0.9-0.1
				s-0.4-0.2-0.6-0.4c-0.1-0.2-0.2-0.4-0.3-0.7c-0.1-0.3-0.1-0.6-0.1-0.9v-4.8l0.9-0.2L110.1,37.7L110.1,37.7z"/>
		</g>
	</g>
	<g>
		<g>
			<path class="st2" d="M117.9,40.3c0,0.4-0.1,0.8-0.2,1.2c-0.1,0.3-0.3,0.6-0.5,0.9c-0.2,0.2-0.5,0.4-0.8,0.6
				c-0.3,0.1-0.6,0.2-1,0.2s-0.7-0.1-1-0.2c-0.3-0.1-0.6-0.3-0.8-0.6s-0.4-0.5-0.5-0.9c-0.1-0.3-0.2-0.7-0.2-1.2
				c0-0.4,0.1-0.8,0.2-1.1s0.3-0.6,0.5-0.9c0.2-0.2,0.5-0.4,0.8-0.6c0.3-0.1,0.6-0.2,1-0.2s0.7,0.1,1,0.2c0.3,0.1,0.6,0.3,0.8,0.6
				s0.4,0.5,0.5,0.9C117.8,39.5,117.9,39.9,117.9,40.3z M116.9,40.3c0-0.6-0.1-1.1-0.4-1.4c-0.3-0.3-0.6-0.5-1.1-0.5
				s-0.8,0.2-1.1,0.5s-0.4,0.8-0.4,1.4s0.1,1.1,0.4,1.4c0.3,0.3,0.6,0.5,1.1,0.5s0.8-0.2,1.1-0.5C116.7,41.4,116.9,40.9,116.9,40.3z
				"/>
		</g>
	</g>
	<g>
		<g>
			<path class="st2" d="M121.2,37.5c0.1,0,0.2,0,0.3,0c0.1,0,0.2,0,0.3,0s0.2,0,0.3,0c0.1,0,0.2,0,0.2,0l-0.2,0.8
				c-0.1,0-0.2-0.1-0.4-0.1c-0.2,0-0.4-0.1-0.7-0.1c-0.2,0-0.3,0-0.5,0.1c-0.2,0-0.3,0.1-0.3,0.1V43h-0.9v-5.1
				c0.2-0.1,0.5-0.2,0.8-0.2C120.4,37.6,120.7,37.5,121.2,37.5z"/>
		</g>
	</g>
	<g>
		<g>
			<path class="st2" d="M124.9,35.6l-1.4,1.4l-0.5-0.4l1.3-1.6L124.9,35.6z M124.1,43h-0.9v-5.3h0.9V43z"/>
		</g>
	</g>
	<g>
		<g>
			<path class="st2" d="M127.4,37.5c0.4,0,0.7,0,1,0.2c0.3,0.1,0.5,0.2,0.6,0.4c0.2,0.2,0.3,0.4,0.3,0.6c0.1,0.2,0.1,0.5,0.1,0.8
				v3.3c-0.1,0-0.2,0-0.3,0.1c-0.1,0-0.3,0-0.5,0.1c-0.2,0-0.4,0-0.6,0.1c-0.2,0-0.4,0-0.6,0c-0.3,0-0.6,0-0.8-0.1s-0.5-0.2-0.7-0.3
				s-0.3-0.3-0.4-0.5c-0.1-0.2-0.2-0.5-0.2-0.8c0-0.3,0.1-0.5,0.2-0.8s0.3-0.4,0.5-0.5c0.2-0.1,0.4-0.2,0.7-0.3
				c0.3-0.1,0.6-0.1,0.9-0.1c0.1,0,0.2,0,0.3,0c0.1,0,0.2,0,0.3,0s0.2,0,0.2,0c0.1,0,0.1,0,0.1,0v-0.3c0-0.2,0-0.3-0.1-0.5
				c0-0.2-0.1-0.3-0.2-0.4c-0.1-0.1-0.2-0.2-0.4-0.3c-0.2-0.1-0.3-0.1-0.6-0.1c-0.3,0-0.6,0-0.8,0.1c-0.2,0-0.4,0.1-0.5,0.1
				l-0.1-0.8c0.1,0,0.3-0.1,0.6-0.2C126.8,37.5,127.1,37.5,127.4,37.5z M127.5,42.3c0.2,0,0.4,0,0.6,0c0.2,0,0.3,0,0.4-0.1v-1.6
				c-0.1,0-0.2-0.1-0.3-0.1c-0.1,0-0.3,0-0.6,0c-0.1,0-0.3,0-0.5,0c-0.2,0-0.3,0.1-0.4,0.1c-0.1,0.1-0.2,0.2-0.3,0.3
				c-0.1,0.1-0.1,0.3-0.1,0.4c0,0.3,0.1,0.6,0.3,0.7C126.9,42.2,127.2,42.3,127.5,42.3z"/>
		</g>
	</g>
	<g>
		<g>
			<path class="st2" d="M132.3,42.3c0.4,0,0.7,0,0.9-0.2c0.2-0.1,0.3-0.3,0.3-0.5c0-0.2-0.1-0.4-0.3-0.5c-0.2-0.1-0.5-0.3-0.9-0.5
				c-0.2-0.1-0.4-0.2-0.6-0.2c-0.2-0.1-0.4-0.2-0.5-0.3c-0.1-0.1-0.2-0.3-0.3-0.4s-0.1-0.4-0.1-0.6c0-0.5,0.2-0.8,0.5-1.1
				s0.8-0.4,1.4-0.4c0.1,0,0.3,0,0.4,0s0.3,0,0.4,0.1s0.2,0,0.3,0.1c0.1,0,0.2,0,0.2,0.1l-0.2,0.8c-0.1,0-0.3-0.1-0.5-0.2
				c-0.2-0.1-0.5-0.1-0.8-0.1c-0.3,0-0.5,0-0.7,0.2s-0.3,0.3-0.3,0.5c0,0.1,0,0.2,0.1,0.3c0,0.1,0.1,0.2,0.2,0.2
				c0.1,0.1,0.2,0.1,0.3,0.2c0.1,0.1,0.3,0.1,0.5,0.2c0.2,0.1,0.5,0.2,0.7,0.3c0.2,0.1,0.4,0.2,0.5,0.3s0.2,0.3,0.3,0.4
				s0.1,0.4,0.1,0.6c0,0.5-0.2,0.9-0.6,1.1c-0.4,0.2-0.9,0.4-1.6,0.4c-0.5,0-0.8,0-1.1-0.1c-0.3-0.1-0.4-0.1-0.5-0.2l0.2-0.8
				c0.1,0,0.3,0.1,0.5,0.2C131.6,42.2,131.9,42.3,132.3,42.3z"/>
		</g>
	</g>
	<g>
		<g>
			<path class="st2" d="M139.9,35.8c1,0,1.8,0.2,2.3,0.6c0.5,0.4,0.8,0.9,0.8,1.7c0,0.4-0.1,0.8-0.2,1s-0.4,0.5-0.6,0.7
				c-0.3,0.2-0.6,0.3-1,0.4c-0.4,0.1-0.8,0.1-1.3,0.1h-0.8V43h-1v-7c0.3-0.1,0.6-0.1,0.9-0.1C139.3,35.8,139.6,35.8,139.9,35.8z
				 M140,36.7c-0.4,0-0.8,0-1,0v2.8h0.8c0.3,0,0.6,0,0.9-0.1c0.3,0,0.5-0.1,0.7-0.2c0.2-0.1,0.3-0.2,0.4-0.4
				c0.1-0.2,0.1-0.4,0.1-0.7c0-0.3-0.1-0.5-0.2-0.7c-0.1-0.2-0.2-0.3-0.4-0.4s-0.4-0.2-0.6-0.2C140.5,36.7,140.3,36.7,140,36.7z"/>
		</g>
	</g>
	<g>
		<g>
			<path class="st2" d="M146.2,37.5c0.1,0,0.2,0,0.3,0c0.1,0,0.2,0,0.3,0c0.1,0,0.2,0,0.3,0c0.1,0,0.1,0,0.2,0l-0.2,0.8
				c-0.1,0-0.2-0.1-0.4-0.1c-0.2,0-0.4-0.1-0.7-0.1c-0.2,0-0.4,0-0.5,0.1c-0.2,0-0.3,0.1-0.3,0.1V43h-0.9v-5.1
				c0.2-0.1,0.5-0.2,0.8-0.2C145.4,37.6,145.8,37.5,146.2,37.5z"/>
		</g>
	</g>
	<g>
		<g>
			<path class="st2" d="M152.9,40.3c0,0.4-0.1,0.8-0.2,1.2c-0.1,0.3-0.3,0.6-0.5,0.9s-0.5,0.4-0.8,0.6c-0.3,0.1-0.6,0.2-1,0.2
				s-0.7-0.1-1-0.2c-0.3-0.1-0.6-0.3-0.8-0.6c-0.2-0.2-0.4-0.5-0.5-0.9c-0.1-0.3-0.2-0.7-0.2-1.2c0-0.4,0.1-0.8,0.2-1.1
				s0.3-0.6,0.5-0.9c0.2-0.2,0.5-0.4,0.8-0.6c0.3-0.1,0.6-0.2,1-0.2s0.7,0.1,1,0.2c0.3,0.1,0.6,0.3,0.8,0.6c0.2,0.2,0.4,0.5,0.5,0.9
				C152.8,39.5,152.9,39.9,152.9,40.3z M151.9,40.3c0-0.6-0.1-1.1-0.4-1.4c-0.3-0.3-0.6-0.5-1.1-0.5s-0.8,0.2-1.1,0.5
				s-0.4,0.8-0.4,1.4s0.1,1.1,0.4,1.4c0.3,0.3,0.6,0.5,1.1,0.5s0.8-0.2,1.1-0.5C151.7,41.4,151.9,40.9,151.9,40.3z"/>
		</g>
	</g>
	<g>
		<g>
			<path class="st2" d="M156.3,35c0.3,0,0.5,0,0.7,0.1s0.3,0.1,0.4,0.1l-0.2,0.8c-0.1,0-0.2-0.1-0.4-0.1s-0.3-0.1-0.6-0.1
				c-0.4,0-0.8,0.1-0.9,0.4s-0.3,0.6-0.3,1v0.5h2.1v0.8h-2.1V43h-0.9v-5.8c0-0.7,0.2-1.2,0.5-1.6C155,35.2,155.6,35,156.3,35z"/>
		</g>
	</g>
	<g>
		<g>
			<path class="st2" d="M157.8,40.3c0-0.5,0.1-0.9,0.2-1.2c0.1-0.3,0.3-0.6,0.5-0.9c0.2-0.2,0.5-0.4,0.8-0.5
				c0.3-0.1,0.6-0.2,0.9-0.2c0.7,0,1.3,0.2,1.6,0.7c0.4,0.5,0.6,1.1,0.6,2c0,0,0,0.1,0,0.2c0,0.1,0,0.1,0,0.2h-3.6
				c0,0.5,0.2,1,0.5,1.3c0.3,0.3,0.7,0.4,1.3,0.4c0.3,0,0.6,0,0.8-0.1c0.2-0.1,0.4-0.1,0.5-0.2l0.1,0.8c-0.1,0.1-0.3,0.1-0.6,0.2
				c-0.3,0.1-0.6,0.1-1,0.1c-0.5,0-0.9-0.1-1.2-0.2s-0.6-0.3-0.8-0.6c-0.2-0.2-0.4-0.5-0.5-0.9C157.9,41.1,157.8,40.7,157.8,40.3z
				 M161.5,39.8c0-0.4-0.1-0.8-0.3-1.1c-0.2-0.3-0.5-0.4-0.9-0.4c-0.2,0-0.4,0-0.6,0.1c-0.2,0.1-0.3,0.2-0.4,0.3
				c-0.1,0.1-0.2,0.3-0.3,0.5s-0.1,0.4-0.1,0.5C158.8,39.8,161.5,39.8,161.5,39.8z"/>
		</g>
	</g>
	<g>
		<g>
			<path class="st2" d="M165.1,42.3c0.4,0,0.7,0,0.9-0.2c0.2-0.1,0.3-0.3,0.3-0.5c0-0.2-0.1-0.4-0.3-0.5c-0.2-0.1-0.5-0.3-0.9-0.5
				c-0.2-0.1-0.4-0.2-0.6-0.2c-0.2-0.1-0.4-0.2-0.5-0.3c-0.1-0.1-0.2-0.3-0.3-0.4c-0.1-0.2-0.1-0.4-0.1-0.6c0-0.5,0.2-0.8,0.5-1.1
				s0.8-0.4,1.4-0.4c0.1,0,0.3,0,0.4,0s0.3,0,0.4,0.1s0.2,0,0.3,0.1c0.1,0,0.2,0,0.2,0.1l-0.2,0.8c-0.1,0-0.3-0.1-0.5-0.2
				c-0.2-0.1-0.5-0.1-0.8-0.1c-0.3,0-0.5,0-0.7,0.2s-0.3,0.3-0.3,0.5c0,0.1,0,0.2,0.1,0.3c0,0.1,0.1,0.2,0.2,0.2
				c0.1,0.1,0.2,0.1,0.3,0.2c0.1,0.1,0.3,0.1,0.5,0.2c0.2,0.1,0.5,0.2,0.7,0.3c0.2,0.1,0.4,0.2,0.5,0.3s0.2,0.3,0.3,0.4
				s0.1,0.4,0.1,0.6c0,0.5-0.2,0.9-0.6,1.1c-0.4,0.2-0.9,0.4-1.6,0.4c-0.5,0-0.8,0-1.1-0.1c-0.3-0.1-0.4-0.1-0.5-0.2l0.2-0.8
				c0.1,0,0.3,0.1,0.5,0.2C164.4,42.2,164.7,42.3,165.1,42.3z"/>
		</g>
	</g>
	<g>
		<g>
			<path class="st2" d="M168.9,36.7c-0.2,0-0.3-0.1-0.4-0.2c-0.1-0.1-0.2-0.3-0.2-0.5c0-0.2,0.1-0.3,0.2-0.5
				c0.1-0.1,0.3-0.2,0.4-0.2s0.3,0.1,0.4,0.2c0.1,0.1,0.2,0.3,0.2,0.5c0,0.2-0.1,0.3-0.2,0.5C169.2,36.6,169.1,36.7,168.9,36.7z
				 M169.4,43h-0.9v-5.3h0.9V43z"/>
		</g>
	</g>
	<g>
		<g>
			<path class="st2" d="M175.7,40.3c0,0.4-0.1,0.8-0.2,1.2c-0.1,0.3-0.3,0.6-0.5,0.9c-0.2,0.2-0.5,0.4-0.8,0.6
				c-0.3,0.1-0.6,0.2-1,0.2s-0.7-0.1-1-0.2c-0.3-0.1-0.6-0.3-0.8-0.6c-0.2-0.2-0.4-0.5-0.5-0.9c-0.1-0.3-0.2-0.7-0.2-1.2
				c0-0.4,0.1-0.8,0.2-1.1s0.3-0.6,0.5-0.9c0.2-0.2,0.5-0.4,0.8-0.6c0.3-0.1,0.6-0.2,1-0.2s0.7,0.1,1,0.2c0.3,0.1,0.6,0.3,0.8,0.6
				c0.2,0.2,0.4,0.5,0.5,0.9C175.6,39.5,175.7,39.9,175.7,40.3z M174.7,40.3c0-0.6-0.1-1.1-0.4-1.4c-0.3-0.3-0.6-0.5-1.1-0.5
				s-0.8,0.2-1.1,0.5s-0.4,0.8-0.4,1.4s0.1,1.1,0.4,1.4s0.6,0.5,1.1,0.5s0.8-0.2,1.1-0.5C174.6,41.4,174.7,40.9,174.7,40.3z"/>
		</g>
	</g>
	<g>
		<g>
			<path class="st2" d="M177,37.8c0.2,0,0.5-0.1,0.9-0.2c0.4-0.1,0.8-0.1,1.2-0.1c0.4,0,0.8,0.1,1.1,0.2s0.5,0.3,0.7,0.5
				s0.3,0.5,0.4,0.8s0.1,0.6,0.1,1v3h-0.9v-2.8c0-0.3,0-0.6-0.1-0.8c0-0.2-0.1-0.4-0.2-0.6c-0.1-0.1-0.2-0.2-0.4-0.3
				s-0.4-0.1-0.6-0.1c-0.1,0-0.2,0-0.3,0s-0.2,0-0.3,0c-0.1,0-0.2,0-0.3,0c-0.1,0-0.1,0-0.2,0V43H177L177,37.8L177,37.8z"/>
		</g>
	</g>
	<g>
		<g>
			<path class="st2" d="M184.6,37.5c0.4,0,0.7,0,1,0.2c0.3,0.1,0.5,0.2,0.6,0.4c0.2,0.2,0.3,0.4,0.3,0.6c0.1,0.2,0.1,0.5,0.1,0.8
				v3.3c-0.1,0-0.2,0-0.3,0.1s-0.3,0-0.5,0.1c-0.2,0-0.4,0-0.6,0.1c-0.2,0-0.4,0-0.6,0c-0.3,0-0.6,0-0.8-0.1s-0.5-0.2-0.6-0.3
				s-0.3-0.3-0.4-0.5c-0.1-0.2-0.1-0.5-0.1-0.8c0-0.3,0.1-0.5,0.2-0.8s0.3-0.4,0.5-0.5c0.2-0.1,0.4-0.2,0.7-0.3
				c0.3-0.1,0.6-0.1,0.9-0.1c0.1,0,0.2,0,0.3,0c0.1,0,0.2,0,0.3,0s0.2,0,0.2,0c0.1,0,0.1,0,0.1,0v-0.3c0-0.2,0-0.3-0.1-0.5
				s-0.1-0.3-0.2-0.4s-0.2-0.2-0.4-0.3c-0.1-0.1-0.4-0.1-0.6-0.1c-0.3,0-0.6,0-0.8,0.1c-0.2,0-0.4,0.1-0.5,0.1l-0.1-0.8
				c0.1,0,0.3-0.1,0.6-0.2C184,37.5,184.3,37.5,184.6,37.5z M184.7,42.3c0.2,0,0.4,0,0.6,0c0.2,0,0.3,0,0.4-0.1v-1.6
				c-0.1,0-0.2-0.1-0.3-0.1c-0.1,0-0.3,0-0.6,0c-0.1,0-0.3,0-0.5,0s-0.3,0.1-0.4,0.1c-0.1,0.1-0.2,0.2-0.3,0.3
				c-0.1,0.1-0.1,0.3-0.1,0.4c0,0.3,0.1,0.6,0.3,0.7C184,42.2,184.3,42.3,184.7,42.3z"/>
		</g>
	</g>
	<g>
		<g>
			<path class="st2" d="M189.8,43.1c-0.6,0-1-0.1-1.2-0.4s-0.4-0.6-0.4-1.1v-6.4l0.9-0.2v6.4c0,0.2,0,0.3,0,0.4s0.1,0.2,0.1,0.2
				c0.1,0.1,0.1,0.1,0.2,0.1c0.1,0,0.2,0.1,0.4,0.1L189.8,43.1z"/>
		</g>
	</g>
	<g>
		<g>
			<path class="st2" d="M190.7,40.3c0-0.5,0.1-0.9,0.2-1.2c0.1-0.3,0.3-0.6,0.5-0.9c0.2-0.2,0.5-0.4,0.8-0.5
				c0.3-0.1,0.6-0.2,0.9-0.2c0.7,0,1.3,0.2,1.6,0.7c0.4,0.5,0.6,1.1,0.6,2c0,0,0,0.1,0,0.2c0,0.1,0,0.1,0,0.2h-3.6
				c0,0.5,0.2,1,0.5,1.3c0.3,0.3,0.7,0.4,1.3,0.4c0.3,0,0.6,0,0.8-0.1c0.2-0.1,0.4-0.1,0.5-0.2l0.1,0.8c-0.1,0.1-0.3,0.1-0.6,0.2
				c-0.3,0.1-0.6,0.1-1,0.1c-0.5,0-0.9-0.1-1.2-0.2s-0.6-0.3-0.8-0.6s-0.4-0.5-0.5-0.9C190.8,41.1,190.7,40.7,190.7,40.3z
				 M194.4,39.8c0-0.4-0.1-0.8-0.3-1.1c-0.2-0.3-0.5-0.4-0.9-0.4c-0.2,0-0.4,0-0.6,0.1c-0.2,0.1-0.3,0.2-0.4,0.3
				c-0.1,0.1-0.2,0.3-0.3,0.5s-0.1,0.4-0.1,0.5C191.8,39.8,194.4,39.8,194.4,39.8z"/>
		</g>
	</g>
	<g>
		<g>
			<path class="st2" d="M198,42.3c0.4,0,0.7,0,0.9-0.2c0.2-0.1,0.3-0.3,0.3-0.5c0-0.2-0.1-0.4-0.3-0.5c-0.2-0.1-0.5-0.3-0.9-0.5
				c-0.2-0.1-0.4-0.2-0.6-0.2c-0.2-0.1-0.4-0.2-0.5-0.3c-0.1-0.1-0.2-0.3-0.3-0.4c-0.1-0.2-0.1-0.4-0.1-0.6c0-0.5,0.2-0.8,0.5-1.1
				s0.8-0.4,1.4-0.4c0.1,0,0.3,0,0.4,0s0.3,0,0.4,0.1s0.2,0,0.3,0.1c0.1,0,0.2,0,0.2,0.1l-0.2,0.8c-0.1,0-0.3-0.1-0.5-0.2
				c-0.2-0.1-0.5-0.1-0.8-0.1c-0.3,0-0.5,0-0.7,0.2s-0.3,0.3-0.3,0.5c0,0.1,0,0.2,0.1,0.3c0,0.1,0.1,0.2,0.2,0.2
				c0.1,0.1,0.2,0.1,0.3,0.2c0.1,0.1,0.3,0.1,0.5,0.2c0.2,0.1,0.5,0.2,0.7,0.3c0.2,0.1,0.4,0.2,0.5,0.3s0.2,0.3,0.3,0.4
				s0.1,0.4,0.1,0.6c0,0.5-0.2,0.9-0.6,1.1c-0.4,0.2-0.9,0.4-1.6,0.4c-0.5,0-0.8,0-1.1-0.1c-0.3-0.1-0.4-0.1-0.5-0.2l0.2-0.8
				c0.1,0,0.3,0.1,0.5,0.2C197.3,42.2,197.6,42.3,198,42.3z"/>
		</g>
	</g>
	<g>
		<g>
			<path class="st2" d="M203.4,40.3c0-0.5,0.1-0.9,0.2-1.2c0.1-0.3,0.3-0.6,0.5-0.9c0.2-0.2,0.5-0.4,0.8-0.5
				c0.3-0.1,0.6-0.2,0.9-0.2c0.7,0,1.3,0.2,1.6,0.7c0.4,0.5,0.6,1.1,0.6,2c0,0,0,0.1,0,0.2c0,0.1,0,0.1,0,0.2h-3.6
				c0,0.5,0.2,1,0.5,1.3c0.3,0.3,0.7,0.4,1.3,0.4c0.3,0,0.6,0,0.8-0.1s0.4-0.1,0.5-0.2l0.1,0.8c-0.1,0.1-0.3,0.1-0.6,0.2
				c-0.3,0.1-0.6,0.1-1,0.1c-0.5,0-0.9-0.1-1.2-0.2s-0.6-0.3-0.8-0.6c-0.2-0.2-0.4-0.5-0.5-0.9C203.4,41.1,203.4,40.7,203.4,40.3z
				 M207,39.8c0-0.4-0.1-0.8-0.3-1.1c-0.2-0.3-0.5-0.4-0.9-0.4c-0.2,0-0.4,0-0.6,0.1c-0.2,0.1-0.3,0.2-0.4,0.3
				c-0.1,0.1-0.2,0.3-0.3,0.5s-0.1,0.4-0.1,0.5C204.4,39.8,207,39.8,207,39.8z"/>
		</g>
	</g>
	<g>
		<g>
			<path class="st2" d="M209.4,37.8c0.2,0,0.5-0.1,0.9-0.2c0.4-0.1,0.8-0.1,1.2-0.1c0.4,0,0.8,0.1,1.1,0.2s0.5,0.3,0.7,0.5
				s0.3,0.5,0.4,0.8s0.1,0.6,0.1,1v3h-0.9v-2.8c0-0.3,0-0.6-0.1-0.8c0-0.2-0.1-0.4-0.2-0.6c-0.1-0.1-0.2-0.2-0.4-0.3
				s-0.4-0.1-0.6-0.1c-0.1,0-0.2,0-0.3,0s-0.2,0-0.3,0c-0.1,0-0.2,0-0.3,0c-0.1,0-0.1,0-0.2,0V43h-0.9L209.4,37.8L209.4,37.8z"/>
		</g>
	</g>
	<g>
		<g>
			<polygon class="st2" points="221.9,42.1 221.9,43 217.7,43 217.7,35.9 218.7,35.9 218.7,42.1 			"/>
		</g>
	</g>
	<g>
		<g>
			<path class="st2" d="M225.5,37.8c0.2,0,0.5-0.1,0.9-0.2c0.4-0.1,0.8-0.1,1.2-0.1c0.4,0,0.8,0.1,1.1,0.2s0.5,0.3,0.7,0.5
				s0.3,0.5,0.4,0.8s0.1,0.6,0.1,1v3h-0.9v-2.8c0-0.3,0-0.6-0.1-0.8c0-0.2-0.1-0.4-0.2-0.6c-0.1-0.1-0.2-0.2-0.4-0.3
				s-0.4-0.1-0.6-0.1c-0.1,0-0.2,0-0.3,0s-0.2,0-0.3,0c-0.1,0-0.2,0-0.3,0c-0.1,0-0.1,0-0.2,0V43h-0.9L225.5,37.8L225.5,37.8z"/>
		</g>
	</g>
	<g>
		<g>
			<path class="st2" d="M231.1,40.3c0-0.5,0.1-0.9,0.2-1.2c0.1-0.3,0.3-0.6,0.5-0.9c0.2-0.2,0.5-0.4,0.8-0.5
				c0.3-0.1,0.6-0.2,0.9-0.2c0.7,0,1.3,0.2,1.6,0.7c0.4,0.5,0.6,1.1,0.6,2c0,0,0,0.1,0,0.2c0,0.1,0,0.1,0,0.2h-3.6
				c0,0.5,0.2,1,0.5,1.3c0.3,0.3,0.7,0.4,1.3,0.4c0.3,0,0.6,0,0.8-0.1c0.2-0.1,0.4-0.1,0.5-0.2l0.1,0.8c-0.1,0.1-0.3,0.1-0.6,0.2
				c-0.3,0.1-0.6,0.1-1,0.1c-0.5,0-0.9-0.1-1.2-0.2s-0.6-0.3-0.8-0.6c-0.2-0.2-0.4-0.5-0.5-0.9C231.1,41.1,231.1,40.7,231.1,40.3z
				 M234.7,39.8c0-0.4-0.1-0.8-0.3-1.1c-0.2-0.3-0.5-0.4-0.9-0.4c-0.2,0-0.4,0-0.6,0.1c-0.2,0.1-0.3,0.2-0.4,0.3
				c-0.1,0.1-0.2,0.3-0.3,0.5s-0.1,0.4-0.1,0.5C232.1,39.8,234.7,39.8,234.7,39.8z"/>
		</g>
	</g>
	<g>
		<g>
			<path class="st2" d="M238.8,37.5c0.4,0,0.7,0,1,0.2c0.3,0.1,0.5,0.2,0.6,0.4c0.2,0.2,0.3,0.4,0.3,0.6c0.1,0.2,0.1,0.5,0.1,0.8
				v3.3c-0.1,0-0.2,0-0.3,0.1s-0.3,0-0.5,0.1c-0.2,0-0.4,0-0.6,0.1c-0.2,0-0.4,0-0.6,0c-0.3,0-0.6,0-0.8-0.1s-0.5-0.2-0.6-0.3
				s-0.3-0.3-0.4-0.5c-0.1-0.2-0.1-0.5-0.1-0.8c0-0.3,0.1-0.5,0.2-0.8s0.3-0.4,0.5-0.5c0.2-0.1,0.4-0.2,0.7-0.3
				c0.3-0.1,0.6-0.1,0.9-0.1c0.1,0,0.2,0,0.3,0c0.1,0,0.2,0,0.3,0s0.2,0,0.2,0c0.1,0,0.1,0,0.1,0v-0.3c0-0.2,0-0.3-0.1-0.5
				s-0.1-0.3-0.2-0.4s-0.2-0.2-0.4-0.3c-0.1-0.1-0.4-0.1-0.6-0.1c-0.3,0-0.6,0-0.8,0.1c-0.2,0-0.4,0.1-0.5,0.1l-0.1-0.8
				c0.1,0,0.3-0.1,0.6-0.2C238.2,37.5,238.5,37.5,238.8,37.5z M238.9,42.3c0.2,0,0.4,0,0.6,0c0.2,0,0.3,0,0.4-0.1v-1.6
				c-0.1,0-0.2-0.1-0.3-0.1c-0.1,0-0.3,0-0.6,0c-0.1,0-0.3,0-0.5,0s-0.3,0.1-0.4,0.1c-0.1,0.1-0.2,0.2-0.3,0.3
				c-0.1,0.1-0.1,0.3-0.1,0.4c0,0.3,0.1,0.6,0.3,0.7C238.2,42.2,238.5,42.3,238.9,42.3z"/>
		</g>
	</g>
	<g>
		<g>
			<path class="st2" d="M224.7,35.6l-1.4,1.4l-0.5-0.4L224,35L224.7,35.6z M223.9,43h-0.9v-5.3h0.9V43z"/>
		</g>
	</g>
</g>
<g>
	<g>
		<path class="st1" d="M86.5,27.9v2.6h-8.9V17.2h3v10.7H86.5z"/>
	</g>
	<g>
		<path class="st1" d="M97.9,30.5c-0.2-0.5-0.3-0.9-0.5-1.4c-0.2-0.5-0.3-1-0.5-1.5h-5.2c-0.2,0.5-0.3,1-0.5,1.5s-0.3,1-0.5,1.4
			h-3.1c0.5-1.4,1-2.8,1.4-4c0.4-1.2,0.9-2.4,1.3-3.4c0.4-1.1,0.8-2.1,1.3-3s0.8-1.9,1.3-2.8h2.8c0.4,0.9,0.9,1.9,1.3,2.8
			c0.4,1,0.8,2,1.3,3s0.9,2.2,1.3,3.4c0.4,1.2,0.9,2.5,1.4,4L97.9,30.5L97.9,30.5z M94.3,20.2c-0.1,0.2-0.2,0.5-0.3,0.8
			c-0.1,0.3-0.3,0.7-0.4,1.1c-0.2,0.4-0.3,0.9-0.6,1.4c-0.2,0.5-0.4,1.1-0.6,1.6h3.8c-0.2-0.6-0.4-1.1-0.6-1.6
			c-0.2-0.5-0.4-1-0.5-1.4s-0.3-0.8-0.4-1.1C94.5,20.6,94.4,20.4,94.3,20.2z"/>
	</g>
	<g>
		<path class="st1" d="M111.1,17.2v2.5h-4v10.7h-3V19.7h-4v-2.5H111.1z"/>
	</g>
	<g>
		<path class="st1" d="M120.4,30.5c-0.2-0.5-0.3-0.9-0.5-1.4c-0.2-0.5-0.3-1-0.5-1.5h-5.2c-0.2,0.5-0.3,1-0.5,1.5s-0.3,1-0.5,1.4
			h-3.1c0.5-1.4,1-2.8,1.4-4c0.4-1.2,0.9-2.4,1.3-3.4c0.4-1.1,0.8-2.1,1.3-3s0.8-1.9,1.3-2.8h2.8c0.4,0.9,0.9,1.9,1.3,2.8
			c0.4,1,0.8,2,1.3,3s0.9,2.2,1.3,3.4c0.4,1.2,0.9,2.5,1.4,4L120.4,30.5L120.4,30.5z M116.8,20.2c-0.1,0.2-0.2,0.5-0.3,0.8
			c-0.1,0.3-0.3,0.7-0.4,1.1c-0.2,0.4-0.3,0.9-0.6,1.4c-0.2,0.5-0.4,1.1-0.6,1.6h3.8c-0.2-0.6-0.4-1.1-0.6-1.6
			c-0.2-0.5-0.4-1-0.5-1.4s-0.3-0.8-0.4-1.1C117,20.6,116.8,20.4,116.8,20.2z"/>
	</g>
	<g>
		<path class="st1" d="M128.8,17.2c0.2,0.4,0.5,0.9,0.8,1.6c0.3,0.6,0.6,1.3,0.9,2c0.3,0.7,0.6,1.5,1,2.2s0.6,1.5,0.9,2.1
			c0.3-0.7,0.6-1.4,0.9-2.1c0.3-0.8,0.6-1.5,1-2.2s0.6-1.4,0.9-2s0.6-1.1,0.8-1.6h2.7c0.1,0.9,0.2,1.9,0.4,3
			c0.1,1.1,0.2,2.2,0.3,3.4c0.1,1.2,0.2,2.4,0.2,3.5c0.1,1.2,0.1,2.3,0.2,3.4h-2.9c0-1.3-0.1-2.7-0.1-4.2s-0.2-3-0.3-4.6
			c-0.2,0.5-0.5,1.1-0.8,1.8c-0.3,0.6-0.6,1.3-0.8,2c-0.3,0.6-0.5,1.3-0.8,1.9c-0.3,0.6-0.5,1.1-0.6,1.5h-2.1
			c-0.2-0.4-0.4-0.9-0.6-1.5c-0.3-0.6-0.5-1.2-0.8-1.9c-0.3-0.6-0.6-1.3-0.8-2c-0.3-0.6-0.5-1.2-0.8-1.8c-0.1,1.5-0.2,3.1-0.3,4.6
			c-0.1,1.5-0.1,2.9-0.2,4.2h-2.9c0.1-1,0.1-2.2,0.2-3.4s0.2-2.4,0.2-3.5c0.1-1.2,0.2-2.3,0.3-3.4s0.2-2.1,0.3-3
			C125.9,17.2,128.8,17.2,128.8,17.2z"/>
	</g>
	<g>
		<path class="st1" d="M147,30.5V17.2h9v2.5h-6v2.6h5.3v2.5H150v3.2h6.4v2.5C156.4,30.5,147,30.5,147,30.5z"/>
	</g>
	<g>
		<path class="st1" d="M166.7,30.5c-0.4-0.7-0.8-1.5-1.2-2.2c-0.4-0.8-0.9-1.4-1.5-1.9c-0.2,0.2-0.4,0.5-0.7,0.8
			c-0.3,0.4-0.6,0.7-0.8,1.1c-0.3,0.4-0.5,0.8-0.8,1.2c-0.2,0.4-0.4,0.8-0.5,1h-3.4c0.6-1,1.2-2.1,2-3.2c0.8-1.1,1.6-2.3,2.5-3.5
			l-4.3-6.6h3.6L164,21l2.6-3.8h3.4l-4.3,6.4c1.1,1.4,2.1,2.7,2.8,3.9s1.3,2.2,1.7,3L166.7,30.5L166.7,30.5z"/>
	</g>
	<g>
		<path class="st1" d="M175.9,17c2,0,3.5,0.4,4.6,1c1.1,0.7,1.6,1.8,1.6,3.4c0,1.6-0.5,2.8-1.6,3.5c-1.1,0.7-2.6,1.1-4.6,1.1h-0.9
			v4.4h-3V17.4c0.6-0.1,1.3-0.2,2.1-0.3S175.4,17,175.9,17z M176.1,19.6c-0.2,0-0.4,0-0.6,0s-0.4,0-0.6,0v3.8h0.9
			c1,0,1.8-0.1,2.3-0.4c0.5-0.3,0.8-0.8,0.8-1.6c0-0.4-0.1-0.7-0.2-0.9c-0.1-0.2-0.3-0.4-0.6-0.6c-0.2-0.1-0.6-0.2-0.9-0.3
			C177,19.6,176.6,19.6,176.1,19.6z"/>
	</g>
	<g>
		<path class="st1" d="M196.9,23.8c0,1.1-0.2,2.1-0.5,3s-0.8,1.6-1.4,2.2s-1.3,1-2.1,1.3c-0.8,0.3-1.7,0.4-2.6,0.4
			c-0.9,0-1.8-0.1-2.6-0.4c-0.8-0.3-1.5-0.7-2.1-1.3s-1.1-1.3-1.4-2.2c-0.3-0.9-0.5-1.9-0.5-3s0.2-2.1,0.5-3s0.8-1.6,1.4-2.2
			c0.6-0.6,1.3-1,2.1-1.3c0.8-0.3,1.6-0.4,2.5-0.4c0.9,0,1.8,0.1,2.6,0.4c0.8,0.3,1.5,0.7,2.1,1.3c0.6,0.6,1.1,1.3,1.4,2.2
			C196.8,21.7,196.9,22.7,196.9,23.8z M186.8,23.8c0,0.6,0.1,1.2,0.2,1.8s0.4,1,0.7,1.4c0.3,0.4,0.7,0.7,1.1,0.9
			c0.4,0.2,0.9,0.3,1.5,0.3c0.6,0,1-0.1,1.5-0.3c0.4-0.2,0.8-0.5,1.1-0.9c0.3-0.4,0.5-0.8,0.7-1.4s0.2-1.1,0.2-1.8s-0.1-1.2-0.2-1.8
			s-0.4-1-0.7-1.4c-0.3-0.4-0.7-0.7-1.1-0.9s-0.9-0.3-1.5-0.3c-0.6,0-1.1,0.1-1.5,0.3c-0.4,0.2-0.8,0.5-1.1,0.9s-0.5,0.8-0.7,1.4
			C186.9,22.6,186.8,23.2,186.8,23.8z"/>
	</g>
	<g>
		<path class="st1" d="M208.3,30.5c-0.9-1.5-1.8-3-2.8-4.5s-2.1-2.9-3.2-4.2v8.7h-2.9V17.2h2.4c0.4,0.4,0.9,0.9,1.4,1.5s1,1.3,1.6,2
			c0.5,0.7,1.1,1.4,1.6,2.2c0.5,0.8,1,1.5,1.5,2.1v-7.8h3v13.3L208.3,30.5L208.3,30.5z"/>
	</g>
	<g>
		<path class="st1" d="M213.9,30.5V17.2h9v2.5h-6v2.6h5.3v2.5h-5.3v3.2h6.4v2.5C223.3,30.5,213.9,30.5,213.9,30.5z"/>
	</g>
	<g>
		<path class="st1" d="M234.4,30.5c-0.9-1.5-1.8-3-2.8-4.5s-2.1-2.9-3.2-4.2v8.7h-2.9V17.2h2.4c0.4,0.4,0.9,0.9,1.4,1.5s1,1.3,1.6,2
			c0.5,0.7,1.1,1.4,1.6,2.2c0.5,0.8,1,1.5,1.5,2.1v-7.8h3v13.3L234.4,30.5L234.4,30.5z"/>
	</g>
	<g>
		<path class="st1" d="M249.8,17.2v2.5h-4v10.7h-3V19.7h-4v-2.5H249.8z"/>
	</g>
	<g>
		<path class="st1" d="M251.7,17.2h3v13.3h-3V17.2z"/>
	</g>
	<g>
		<path class="st1" d="M266.7,30.5c-0.1-0.5-0.3-0.9-0.5-1.4s-0.3-1-0.5-1.5h-5.2c-0.2,0.5-0.3,1-0.5,1.5c-0.2,0.5-0.3,1-0.5,1.4
			h-3.1c0.5-1.4,1-2.8,1.4-4c0.5-1.2,0.9-2.4,1.3-3.4c0.4-1.1,0.9-2.1,1.3-3c0.4-1,0.9-1.9,1.3-2.8h2.8c0.4,0.9,0.9,1.9,1.3,2.8
			c0.4,1,0.9,2,1.3,3s0.9,2.2,1.3,3.4c0.5,1.2,0.9,2.5,1.4,4L266.7,30.5L266.7,30.5z M263.1,20.2c-0.1,0.2-0.2,0.5-0.3,0.8
			c-0.1,0.3-0.3,0.7-0.4,1.1c-0.2,0.4-0.4,0.9-0.5,1.4c-0.2,0.5-0.4,1.1-0.6,1.6h3.8c-0.2-0.6-0.4-1.1-0.6-1.6
			c-0.2-0.5-0.4-1-0.5-1.4s-0.3-0.8-0.5-1.1C263.3,20.6,263.2,20.4,263.1,20.2z"/>
	</g>
	<g>
		<path class="st1" d="M280.5,27.9v2.6h-8.9V17.2h3v10.7H280.5z"/>
	</g>
</g>
<path class="st0" d="M41.5,14.2L26.3,29.3c-1.2,1.2-3.2,1.2-4.4,0s-1.2-3.2,0-4.4l9.7-9.7c1.2-1.2,1.2-3.2,0-4.4s-3.2-1.2-4.4,0
	L10.9,27.3c-1.2,1.2-1.2,3.2,0,4.4s3.2,1.2,4.4,0l0.1-0.1c1.2-1.2,3.2-1.2,4.4,0s1.2,3.2,0,4.4l-5.6,5.6c-1.2,1.2-1.2,3.2,0,4.4
	s3.2,1.2,4.4,0l15.4-15.4c1.2-1.2,3.2-1.2,4.4,0s1.2,3.2,0,4.4l-10,10c-1.2,1.2-1.2,3.2,0,4.4s3.2,1.2,4.4,0l16.4-16.3
	c1.2-1.2,1.2-3.2,0-4.4s-3.2-1.2-4.4,0l0.1-0.1c-1.2,1.2-3.2,1.2-4.4,0s-1.2-3.2,0-4.4l5.3-5.3c1.2-1.2,1.2-3.2,0-4.4
	S42.7,13,41.5,14.2z"/>
</svg>
