<?xml version="1.0" encoding="utf-8"?>
<!-- Generator: Adobe Illustrator 25.4.1, SVG Export Plug-In . SVG Version: 6.00 Build 0)  -->
<svg version="1.1" id="Capa_1" xmlns="http://www.w3.org/2000/svg" xmlns:xlink="http://www.w3.org/1999/xlink" x="0px" y="0px"
	 viewBox="0 0 308 68" style="enable-background:new 0 0 308 68;" xml:space="preserve">
<style type="text/css">
	.st0{fill:#E51135;}
	.st1{fill:#FFFFFF;}
	.st2{fill:#282828;}
</style>
<g>
	<rect x="4" y="4" class="st0" width="60" height="60"/>
</g>
<g>
	<rect x="64.5" y="4.5" class="st1" width="239" height="59"/>
	<path class="st0" d="M303,5v58H65V5H303 M304,4H64v60h240V4L304,4z"/>
</g>
<g>
	<g>
		<path class="st2" d="M84.99,47.12c-0.5,0-0.95-0.08-1.36-0.25c-0.41-0.16-0.76-0.4-1.05-0.72c-0.29-0.31-0.52-0.7-0.68-1.16
			c-0.16-0.46-0.24-0.99-0.24-1.58c0-0.59,0.09-1.12,0.27-1.58c0.18-0.46,0.42-0.85,0.73-1.16c0.31-0.31,0.66-0.55,1.07-0.72
			c0.41-0.16,0.85-0.25,1.31-0.25c0.29,0,0.56,0.02,0.79,0.06c0.24,0.04,0.44,0.09,0.61,0.14c0.17,0.05,0.32,0.11,0.42,0.16
			c0.11,0.05,0.18,0.1,0.23,0.12l-0.29,0.82c-0.06-0.04-0.15-0.09-0.27-0.13c-0.12-0.05-0.25-0.1-0.39-0.14
			c-0.15-0.05-0.31-0.09-0.48-0.12c-0.17-0.03-0.35-0.05-0.53-0.05c-0.37,0-0.71,0.06-1.01,0.19c-0.3,0.13-0.56,0.32-0.77,0.56
			c-0.21,0.25-0.37,0.54-0.49,0.89c-0.11,0.35-0.17,0.74-0.17,1.18c0,0.42,0.05,0.81,0.15,1.16c0.1,0.35,0.25,0.65,0.44,0.89
			c0.2,0.25,0.44,0.44,0.74,0.58c0.3,0.14,0.64,0.2,1.04,0.2c0.46,0,0.84-0.05,1.14-0.14s0.53-0.18,0.67-0.26l0.26,0.82
			c-0.05,0.03-0.13,0.08-0.26,0.13c-0.12,0.05-0.28,0.1-0.46,0.15c-0.18,0.05-0.4,0.09-0.64,0.12
			C85.54,47.11,85.28,47.12,84.99,47.12z"/>
	</g>
	<g>
		<path class="st2" d="M92.76,44.31c0,0.42-0.06,0.8-0.18,1.15c-0.12,0.34-0.3,0.63-0.52,0.88c-0.22,0.25-0.49,0.43-0.79,0.57
			c-0.31,0.13-0.64,0.2-1,0.2c-0.36,0-0.7-0.07-1-0.2c-0.31-0.13-0.57-0.32-0.79-0.57c-0.22-0.25-0.39-0.54-0.52-0.88
			c-0.12-0.34-0.18-0.72-0.18-1.15c0-0.42,0.06-0.8,0.18-1.14c0.12-0.34,0.29-0.64,0.52-0.88c0.22-0.25,0.49-0.43,0.79-0.57
			c0.31-0.13,0.64-0.2,1-0.2c0.36,0,0.7,0.07,1,0.2c0.31,0.13,0.57,0.32,0.79,0.57c0.22,0.25,0.39,0.54,0.52,0.88
			C92.7,43.52,92.76,43.9,92.76,44.31z M91.77,44.31c0-0.6-0.13-1.08-0.4-1.43c-0.27-0.35-0.64-0.53-1.1-0.53
			c-0.46,0-0.83,0.18-1.1,0.53s-0.4,0.83-0.4,1.43s0.13,1.08,0.4,1.43s0.64,0.53,1.1,0.53c0.46,0,0.83-0.18,1.1-0.53
			C91.64,45.39,91.77,44.91,91.77,44.31z"/>
	</g>
	<g>
		<path class="st2" d="M94.1,41.81c0.22-0.05,0.51-0.11,0.87-0.17c0.36-0.06,0.78-0.09,1.25-0.09c0.42,0,0.77,0.06,1.05,0.18
			c0.28,0.12,0.5,0.29,0.67,0.5c0.17,0.21,0.28,0.47,0.35,0.77c0.07,0.3,0.1,0.63,0.1,0.99v2.99h-0.95v-2.78
			c0-0.33-0.02-0.61-0.07-0.84c-0.04-0.23-0.12-0.42-0.22-0.56c-0.1-0.14-0.24-0.25-0.41-0.31c-0.17-0.06-0.38-0.1-0.63-0.1
			c-0.1,0-0.21,0-0.32,0.01c-0.11,0.01-0.21,0.01-0.31,0.03c-0.1,0.01-0.19,0.02-0.27,0.04c-0.08,0.01-0.13,0.02-0.17,0.03v4.49
			H94.1V41.81z"/>
	</g>
	<g>
		<path class="st2" d="M101.21,46.29c0.39,0,0.68-0.05,0.86-0.15c0.19-0.1,0.28-0.27,0.28-0.49c0-0.23-0.09-0.42-0.28-0.55
			c-0.18-0.14-0.49-0.29-0.91-0.46c-0.2-0.08-0.4-0.16-0.59-0.25c-0.19-0.08-0.35-0.19-0.49-0.3c-0.14-0.12-0.25-0.26-0.33-0.42
			c-0.08-0.16-0.12-0.36-0.12-0.6c0-0.47,0.17-0.84,0.52-1.12c0.35-0.28,0.82-0.41,1.42-0.41c0.15,0,0.3,0.01,0.45,0.03
			c0.15,0.02,0.29,0.04,0.42,0.06c0.13,0.02,0.24,0.05,0.34,0.08c0.1,0.03,0.18,0.05,0.23,0.07l-0.17,0.82
			c-0.1-0.05-0.26-0.11-0.48-0.17c-0.22-0.06-0.48-0.09-0.79-0.09c-0.27,0-0.5,0.05-0.7,0.16c-0.2,0.11-0.3,0.27-0.3,0.5
			c0,0.12,0.02,0.22,0.07,0.31c0.04,0.09,0.11,0.17,0.2,0.24c0.09,0.07,0.21,0.14,0.34,0.2c0.14,0.06,0.3,0.13,0.49,0.19
			c0.25,0.1,0.48,0.19,0.67,0.28c0.2,0.09,0.37,0.2,0.51,0.32c0.14,0.12,0.25,0.27,0.32,0.44c0.07,0.17,0.11,0.39,0.11,0.64
			c0,0.49-0.18,0.86-0.55,1.12c-0.36,0.25-0.88,0.38-1.56,0.38c-0.47,0-0.84-0.04-1.1-0.12s-0.45-0.14-0.54-0.18l0.17-0.82
			c0.11,0.04,0.28,0.1,0.52,0.18C100.5,46.25,100.81,46.29,101.21,46.29z"/>
	</g>
	<g>
		<path class="st2" d="M108.77,46.82c-0.22,0.05-0.51,0.11-0.86,0.17c-0.36,0.06-0.77,0.09-1.24,0.09c-0.41,0-0.75-0.06-1.03-0.18
			c-0.28-0.12-0.5-0.29-0.67-0.51c-0.17-0.22-0.29-0.48-0.37-0.77c-0.08-0.3-0.11-0.62-0.11-0.99v-2.99h0.95v2.78
			c0,0.65,0.1,1.11,0.31,1.39c0.2,0.28,0.55,0.42,1.03,0.42c0.1,0,0.21,0,0.32-0.01c0.11-0.01,0.21-0.01,0.31-0.02
			c0.1-0.01,0.18-0.02,0.26-0.03c0.08-0.01,0.13-0.02,0.17-0.04v-4.49h0.95V46.82z"/>
	</g>
	<g>
		<path class="st2" d="M112,47.07c-0.59-0.01-1-0.14-1.25-0.38c-0.25-0.24-0.37-0.61-0.37-1.11V39.2l0.95-0.16v6.39
			c0,0.16,0.01,0.29,0.04,0.39c0.03,0.1,0.07,0.18,0.13,0.25c0.06,0.06,0.14,0.11,0.25,0.14c0.1,0.03,0.23,0.06,0.38,0.08L112,47.07
			z"/>
	</g>
	<g>
		<path class="st2" d="M114.08,41.65h2.01v0.8h-2.01v2.45c0,0.27,0.02,0.49,0.06,0.66c0.04,0.17,0.1,0.31,0.18,0.41
			c0.08,0.1,0.18,0.17,0.31,0.21s0.27,0.06,0.43,0.06c0.29,0,0.52-0.03,0.69-0.1c0.17-0.06,0.3-0.11,0.36-0.14l0.18,0.79
			c-0.1,0.05-0.26,0.11-0.5,0.18c-0.24,0.07-0.51,0.11-0.82,0.11c-0.36,0-0.66-0.05-0.9-0.14c-0.24-0.09-0.42-0.23-0.57-0.41
			c-0.14-0.18-0.24-0.41-0.3-0.68c-0.06-0.27-0.09-0.58-0.09-0.94v-4.75l0.95-0.16V41.65z"/>
	</g>
	<g>
		<path class="st2" d="M121.86,44.31c0,0.42-0.06,0.8-0.18,1.15c-0.12,0.34-0.3,0.63-0.52,0.88c-0.22,0.25-0.49,0.43-0.79,0.57
			c-0.31,0.13-0.64,0.2-1,0.2c-0.36,0-0.7-0.07-1-0.2c-0.31-0.13-0.57-0.32-0.79-0.57c-0.22-0.25-0.39-0.54-0.52-0.88
			c-0.12-0.34-0.18-0.72-0.18-1.15c0-0.42,0.06-0.8,0.18-1.14c0.12-0.34,0.29-0.64,0.52-0.88c0.22-0.25,0.49-0.43,0.79-0.57
			c0.31-0.13,0.64-0.2,1-0.2c0.36,0,0.7,0.07,1,0.2c0.31,0.13,0.57,0.32,0.79,0.57c0.22,0.25,0.39,0.54,0.52,0.88
			C121.8,43.52,121.86,43.9,121.86,44.31z M120.86,44.31c0-0.6-0.13-1.08-0.4-1.43c-0.27-0.35-0.64-0.53-1.1-0.53
			s-0.83,0.18-1.1,0.53c-0.27,0.35-0.4,0.83-0.4,1.43s0.13,1.08,0.4,1.43c0.27,0.35,0.64,0.53,1.1,0.53s0.83-0.18,1.1-0.53
			C120.73,45.39,120.86,44.91,120.86,44.31z"/>
	</g>
	<g>
		<path class="st2" d="M125.16,41.54c0.08,0,0.18,0,0.28,0.02c0.11,0.01,0.21,0.02,0.31,0.04c0.1,0.02,0.2,0.03,0.28,0.05
			c0.09,0.02,0.15,0.03,0.19,0.05l-0.16,0.83c-0.07-0.03-0.2-0.06-0.37-0.1c-0.17-0.04-0.4-0.06-0.67-0.06
			c-0.18,0-0.35,0.02-0.53,0.06c-0.17,0.04-0.29,0.06-0.34,0.08v4.47h-0.95v-5.09c0.23-0.08,0.5-0.16,0.84-0.23
			C124.37,41.58,124.74,41.54,125.16,41.54z"/>
	</g>
	<g>
		<path class="st2" d="M128.86,39.64l-1.44,1.4l-0.48-0.43l1.31-1.57L128.86,39.64z M128.09,46.97h-0.95v-5.32h0.95V46.97z"/>
	</g>
	<g>
		<path class="st2" d="M131.45,41.52c0.38,0,0.7,0.05,0.97,0.15c0.26,0.1,0.47,0.24,0.63,0.42c0.16,0.18,0.27,0.4,0.34,0.64
			c0.07,0.25,0.1,0.52,0.1,0.82v3.32c-0.08,0.01-0.2,0.03-0.34,0.06c-0.15,0.02-0.31,0.05-0.5,0.07c-0.18,0.02-0.38,0.04-0.6,0.06
			c-0.21,0.02-0.43,0.03-0.64,0.03c-0.3,0-0.58-0.03-0.83-0.09c-0.25-0.06-0.47-0.16-0.65-0.29c-0.18-0.13-0.33-0.31-0.43-0.53
			c-0.1-0.22-0.15-0.48-0.15-0.79c0-0.29,0.06-0.55,0.18-0.76c0.12-0.21,0.28-0.38,0.49-0.51c0.2-0.13,0.44-0.23,0.72-0.29
			c0.27-0.06,0.56-0.09,0.86-0.09c0.1,0,0.19,0,0.3,0.01c0.1,0.01,0.2,0.02,0.29,0.04c0.09,0.02,0.17,0.03,0.24,0.05
			c0.07,0.01,0.12,0.02,0.14,0.03v-0.27c0-0.16-0.02-0.31-0.05-0.47c-0.03-0.15-0.1-0.29-0.18-0.41c-0.09-0.12-0.21-0.21-0.36-0.29
			c-0.15-0.07-0.35-0.11-0.6-0.11c-0.31,0-0.59,0.02-0.82,0.07c-0.24,0.04-0.41,0.09-0.53,0.14l-0.11-0.79
			c0.12-0.05,0.33-0.11,0.61-0.16C130.8,41.55,131.11,41.52,131.45,41.52z M131.53,46.29c0.23,0,0.42,0,0.6-0.02
			c0.17-0.01,0.32-0.03,0.43-0.06v-1.59c-0.07-0.03-0.18-0.06-0.33-0.09c-0.15-0.02-0.34-0.04-0.56-0.04c-0.14,0-0.3,0.01-0.46,0.03
			c-0.16,0.02-0.31,0.06-0.44,0.13c-0.13,0.06-0.24,0.15-0.33,0.27c-0.09,0.11-0.13,0.26-0.13,0.44c0,0.34,0.11,0.58,0.33,0.71
			C130.86,46.22,131.16,46.29,131.53,46.29z"/>
	</g>
	<g>
		<path class="st2" d="M136.31,46.29c0.39,0,0.68-0.05,0.86-0.15c0.19-0.1,0.28-0.27,0.28-0.49c0-0.23-0.09-0.42-0.28-0.55
			c-0.18-0.14-0.49-0.29-0.91-0.46c-0.2-0.08-0.4-0.16-0.59-0.25c-0.19-0.08-0.35-0.19-0.49-0.3c-0.14-0.12-0.25-0.26-0.33-0.42
			c-0.08-0.16-0.12-0.36-0.12-0.6c0-0.47,0.17-0.84,0.52-1.12c0.35-0.28,0.82-0.41,1.42-0.41c0.15,0,0.3,0.01,0.45,0.03
			c0.15,0.02,0.29,0.04,0.42,0.06c0.13,0.02,0.24,0.05,0.34,0.08c0.1,0.03,0.18,0.05,0.23,0.07l-0.17,0.82
			c-0.1-0.05-0.26-0.11-0.48-0.17c-0.22-0.06-0.48-0.09-0.79-0.09c-0.27,0-0.5,0.05-0.7,0.16c-0.2,0.11-0.3,0.27-0.3,0.5
			c0,0.12,0.02,0.22,0.07,0.31c0.04,0.09,0.11,0.17,0.2,0.24c0.09,0.07,0.21,0.14,0.34,0.2c0.14,0.06,0.3,0.13,0.49,0.19
			c0.25,0.1,0.48,0.19,0.67,0.28c0.2,0.09,0.37,0.2,0.51,0.32c0.14,0.12,0.25,0.27,0.32,0.44c0.07,0.17,0.11,0.39,0.11,0.64
			c0,0.49-0.18,0.86-0.55,1.12c-0.36,0.25-0.88,0.38-1.56,0.38c-0.47,0-0.84-0.04-1.1-0.12c-0.27-0.08-0.45-0.14-0.54-0.18
			l0.17-0.82c0.11,0.04,0.28,0.1,0.52,0.18C135.59,46.25,135.91,46.29,136.31,46.29z"/>
	</g>
	<g>
		<path class="st2" d="M143.94,39.81c0.99,0,1.76,0.19,2.3,0.57c0.54,0.38,0.8,0.94,0.8,1.69c0,0.41-0.07,0.76-0.22,1.05
			c-0.15,0.29-0.36,0.52-0.63,0.7c-0.28,0.18-0.61,0.31-1.01,0.39c-0.4,0.08-0.84,0.12-1.34,0.12h-0.79v2.63h-0.99v-6.98
			c0.28-0.07,0.59-0.11,0.94-0.14C143.33,39.83,143.65,39.81,143.94,39.81z M144.02,40.68c-0.42,0-0.75,0.01-0.97,0.03v2.78h0.75
			c0.34,0,0.65-0.02,0.92-0.07c0.27-0.04,0.5-0.12,0.69-0.22c0.19-0.11,0.33-0.25,0.43-0.43c0.1-0.18,0.15-0.42,0.15-0.71
			c0-0.27-0.05-0.5-0.16-0.67c-0.11-0.18-0.25-0.32-0.43-0.42s-0.39-0.18-0.63-0.22C144.53,40.7,144.28,40.68,144.02,40.68z"/>
	</g>
	<g>
		<path class="st2" d="M150.17,41.54c0.08,0,0.18,0,0.28,0.02c0.11,0.01,0.21,0.02,0.31,0.04c0.1,0.02,0.2,0.03,0.28,0.05
			c0.09,0.02,0.15,0.03,0.19,0.05l-0.16,0.83c-0.07-0.03-0.2-0.06-0.37-0.1c-0.17-0.04-0.4-0.06-0.67-0.06
			c-0.18,0-0.35,0.02-0.53,0.06c-0.17,0.04-0.29,0.06-0.34,0.08v4.47h-0.95v-5.09c0.23-0.08,0.5-0.16,0.84-0.23
			C149.38,41.58,149.76,41.54,150.17,41.54z"/>
	</g>
	<g>
		<path class="st2" d="M156.85,44.31c0,0.42-0.06,0.8-0.18,1.15c-0.12,0.34-0.3,0.63-0.52,0.88c-0.22,0.25-0.49,0.43-0.79,0.57
			c-0.31,0.13-0.64,0.2-1,0.2c-0.36,0-0.7-0.07-1-0.2c-0.31-0.13-0.57-0.32-0.79-0.57c-0.22-0.25-0.39-0.54-0.52-0.88
			c-0.12-0.34-0.18-0.72-0.18-1.15c0-0.42,0.06-0.8,0.18-1.14c0.12-0.34,0.29-0.64,0.52-0.88c0.22-0.25,0.49-0.43,0.79-0.57
			c0.31-0.13,0.64-0.2,1-0.2c0.36,0,0.7,0.07,1,0.2c0.31,0.13,0.57,0.32,0.79,0.57c0.22,0.25,0.39,0.54,0.52,0.88
			C156.79,43.52,156.85,43.9,156.85,44.31z M155.86,44.31c0-0.6-0.13-1.08-0.4-1.43c-0.27-0.35-0.64-0.53-1.1-0.53
			c-0.46,0-0.83,0.18-1.1,0.53c-0.27,0.35-0.4,0.83-0.4,1.43s0.13,1.08,0.4,1.43c0.27,0.35,0.64,0.53,1.1,0.53
			c0.46,0,0.83-0.18,1.1-0.53C155.72,45.39,155.86,44.91,155.86,44.31z"/>
	</g>
	<g>
		<path class="st2" d="M160.27,39.04c0.28,0,0.52,0.02,0.72,0.06c0.2,0.04,0.34,0.08,0.42,0.11l-0.17,0.82
			c-0.08-0.04-0.2-0.08-0.35-0.12s-0.33-0.06-0.55-0.06c-0.44,0-0.75,0.12-0.93,0.36c-0.18,0.24-0.27,0.57-0.27,0.98v0.46h2.05v0.8
			h-2.05v4.52h-0.95v-5.8c0-0.68,0.17-1.21,0.5-1.58C159.02,39.22,159.55,39.04,160.27,39.04z"/>
	</g>
	<g>
		<path class="st2" d="M161.84,44.32c0-0.47,0.07-0.88,0.2-1.23c0.14-0.35,0.32-0.64,0.54-0.87c0.23-0.23,0.48-0.41,0.78-0.52
			c0.29-0.12,0.59-0.17,0.9-0.17c0.72,0,1.26,0.22,1.65,0.67c0.38,0.45,0.57,1.13,0.57,2.04c0,0.04,0,0.09,0,0.16
			c0,0.06,0,0.12-0.01,0.18h-3.64c0.04,0.55,0.2,0.97,0.48,1.26c0.28,0.29,0.72,0.43,1.31,0.43c0.33,0,0.62-0.03,0.84-0.09
			c0.23-0.06,0.4-0.11,0.52-0.17l0.13,0.8c-0.11,0.06-0.32,0.13-0.61,0.19c-0.29,0.07-0.62,0.1-0.99,0.1c-0.46,0-0.86-0.07-1.2-0.21
			c-0.34-0.14-0.62-0.33-0.83-0.58c-0.22-0.25-0.38-0.54-0.49-0.87C161.89,45.1,161.84,44.73,161.84,44.32z M165.49,43.8
			c0.01-0.43-0.1-0.78-0.32-1.06c-0.22-0.28-0.53-0.41-0.92-0.41c-0.22,0-0.41,0.04-0.58,0.13c-0.17,0.08-0.31,0.2-0.42,0.33
			c-0.12,0.14-0.21,0.29-0.27,0.47c-0.06,0.18-0.11,0.36-0.13,0.54H165.49z"/>
	</g>
	<g>
		<path class="st2" d="M169.09,46.29c0.39,0,0.68-0.05,0.86-0.15c0.19-0.1,0.28-0.27,0.28-0.49c0-0.23-0.09-0.42-0.28-0.55
			c-0.18-0.14-0.49-0.29-0.91-0.46c-0.2-0.08-0.4-0.16-0.59-0.25c-0.19-0.08-0.35-0.19-0.49-0.3c-0.14-0.12-0.24-0.26-0.33-0.42
			c-0.08-0.16-0.12-0.36-0.12-0.6c0-0.47,0.17-0.84,0.52-1.12c0.35-0.28,0.82-0.41,1.42-0.41c0.15,0,0.3,0.01,0.45,0.03
			c0.15,0.02,0.29,0.04,0.42,0.06c0.13,0.02,0.24,0.05,0.34,0.08c0.1,0.03,0.17,0.05,0.23,0.07l-0.17,0.82
			c-0.1-0.05-0.26-0.11-0.48-0.17c-0.22-0.06-0.48-0.09-0.79-0.09c-0.27,0-0.5,0.05-0.7,0.16c-0.2,0.11-0.3,0.27-0.3,0.5
			c0,0.12,0.02,0.22,0.07,0.31c0.04,0.09,0.11,0.17,0.2,0.24c0.09,0.07,0.21,0.14,0.34,0.2c0.14,0.06,0.3,0.13,0.49,0.19
			c0.25,0.1,0.48,0.19,0.67,0.28c0.2,0.09,0.37,0.2,0.51,0.32c0.14,0.12,0.25,0.27,0.32,0.44c0.07,0.17,0.11,0.39,0.11,0.64
			c0,0.49-0.18,0.86-0.55,1.12c-0.37,0.25-0.88,0.38-1.56,0.38c-0.47,0-0.84-0.04-1.1-0.12c-0.27-0.08-0.45-0.14-0.54-0.18
			l0.17-0.82c0.11,0.04,0.28,0.1,0.52,0.18C168.38,46.25,168.69,46.29,169.09,46.29z"/>
	</g>
	<g>
		<path class="st2" d="M172.88,40.69c-0.17,0-0.32-0.06-0.43-0.17c-0.12-0.11-0.18-0.26-0.18-0.45c0-0.19,0.06-0.34,0.18-0.46
			c0.12-0.11,0.26-0.17,0.43-0.17s0.32,0.06,0.44,0.17c0.12,0.11,0.18,0.26,0.18,0.46c0,0.19-0.06,0.34-0.18,0.45
			C173.2,40.64,173.05,40.69,172.88,40.69z M173.37,46.97h-0.95v-5.32h0.95V46.97z"/>
	</g>
	<g>
		<path class="st2" d="M179.7,44.31c0,0.42-0.06,0.8-0.18,1.15c-0.12,0.34-0.29,0.63-0.52,0.88c-0.22,0.25-0.49,0.43-0.79,0.57
			c-0.31,0.13-0.64,0.2-1,0.2c-0.36,0-0.7-0.07-1-0.2c-0.31-0.13-0.57-0.32-0.79-0.57c-0.22-0.25-0.39-0.54-0.52-0.88
			c-0.12-0.34-0.18-0.72-0.18-1.15c0-0.42,0.06-0.8,0.18-1.14c0.12-0.34,0.29-0.64,0.52-0.88c0.22-0.25,0.49-0.43,0.79-0.57
			c0.31-0.13,0.64-0.2,1-0.2c0.36,0,0.7,0.07,1,0.2c0.31,0.13,0.57,0.32,0.79,0.57c0.22,0.25,0.39,0.54,0.52,0.88
			C179.63,43.52,179.7,43.9,179.7,44.31z M178.7,44.31c0-0.6-0.13-1.08-0.4-1.43c-0.27-0.35-0.64-0.53-1.1-0.53
			c-0.46,0-0.83,0.18-1.1,0.53s-0.4,0.83-0.4,1.43s0.13,1.08,0.4,1.43s0.64,0.53,1.1,0.53c0.46,0,0.83-0.18,1.1-0.53
			C178.57,45.39,178.7,44.91,178.7,44.31z"/>
	</g>
	<g>
		<path class="st2" d="M181.03,41.81c0.22-0.05,0.51-0.11,0.87-0.17c0.36-0.06,0.78-0.09,1.25-0.09c0.42,0,0.77,0.06,1.05,0.18
			c0.28,0.12,0.5,0.29,0.67,0.5c0.17,0.21,0.28,0.47,0.35,0.77c0.07,0.3,0.1,0.63,0.1,0.99v2.99h-0.95v-2.78
			c0-0.33-0.02-0.61-0.07-0.84c-0.04-0.23-0.12-0.42-0.22-0.56c-0.1-0.14-0.24-0.25-0.41-0.31c-0.17-0.06-0.38-0.1-0.63-0.1
			c-0.1,0-0.21,0-0.32,0.01c-0.11,0.01-0.21,0.01-0.31,0.03c-0.1,0.01-0.19,0.02-0.27,0.04c-0.08,0.01-0.13,0.02-0.17,0.03v4.49
			h-0.95V41.81z"/>
	</g>
	<g>
		<path class="st2" d="M188.62,41.52c0.38,0,0.7,0.05,0.97,0.15c0.26,0.1,0.47,0.24,0.63,0.42c0.16,0.18,0.27,0.4,0.34,0.64
			c0.07,0.25,0.1,0.52,0.1,0.82v3.32c-0.08,0.01-0.2,0.03-0.34,0.06s-0.31,0.05-0.5,0.07c-0.18,0.02-0.38,0.04-0.6,0.06
			c-0.21,0.02-0.43,0.03-0.64,0.03c-0.3,0-0.58-0.03-0.83-0.09c-0.25-0.06-0.47-0.16-0.65-0.29c-0.18-0.13-0.33-0.31-0.43-0.53
			c-0.1-0.22-0.15-0.48-0.15-0.79c0-0.29,0.06-0.55,0.18-0.76c0.12-0.21,0.28-0.38,0.49-0.51c0.2-0.13,0.44-0.23,0.72-0.29
			c0.27-0.06,0.56-0.09,0.86-0.09c0.1,0,0.19,0,0.3,0.01c0.1,0.01,0.2,0.02,0.29,0.04c0.09,0.02,0.17,0.03,0.24,0.05
			c0.07,0.01,0.12,0.02,0.14,0.03v-0.27c0-0.16-0.02-0.31-0.05-0.47s-0.09-0.29-0.18-0.41c-0.09-0.12-0.21-0.21-0.36-0.29
			c-0.15-0.07-0.35-0.11-0.6-0.11c-0.31,0-0.59,0.02-0.82,0.07c-0.24,0.04-0.41,0.09-0.53,0.14l-0.11-0.79
			c0.12-0.05,0.33-0.11,0.61-0.16C187.98,41.55,188.29,41.52,188.62,41.52z M188.7,46.29c0.22,0,0.42,0,0.6-0.02
			c0.17-0.01,0.32-0.03,0.43-0.06v-1.59c-0.07-0.03-0.18-0.06-0.33-0.09c-0.15-0.02-0.34-0.04-0.56-0.04c-0.14,0-0.3,0.01-0.46,0.03
			c-0.16,0.02-0.31,0.06-0.44,0.13c-0.13,0.06-0.24,0.15-0.33,0.27c-0.09,0.11-0.13,0.26-0.13,0.44c0,0.34,0.11,0.58,0.33,0.71
			C188.03,46.22,188.33,46.29,188.7,46.29z"/>
	</g>
	<g>
		<path class="st2" d="M193.84,47.07c-0.59-0.01-1-0.14-1.25-0.38c-0.25-0.24-0.37-0.61-0.37-1.11V39.2l0.95-0.16v6.39
			c0,0.16,0.01,0.29,0.04,0.39c0.03,0.1,0.07,0.18,0.13,0.25c0.06,0.06,0.14,0.11,0.25,0.14c0.1,0.03,0.23,0.06,0.38,0.08
			L193.84,47.07z"/>
	</g>
	<g>
		<path class="st2" d="M194.74,44.32c0-0.47,0.07-0.88,0.2-1.23c0.14-0.35,0.32-0.64,0.54-0.87c0.22-0.23,0.48-0.41,0.78-0.52
			c0.29-0.12,0.59-0.17,0.9-0.17c0.72,0,1.26,0.22,1.65,0.67c0.38,0.45,0.57,1.13,0.57,2.04c0,0.04,0,0.09,0,0.16
			c0,0.06,0,0.12-0.01,0.18h-3.64c0.04,0.55,0.2,0.97,0.48,1.26c0.28,0.29,0.72,0.43,1.31,0.43c0.33,0,0.62-0.03,0.84-0.09
			c0.23-0.06,0.4-0.11,0.52-0.17l0.13,0.8c-0.12,0.06-0.32,0.13-0.61,0.19c-0.29,0.07-0.62,0.1-0.99,0.1c-0.46,0-0.86-0.07-1.2-0.21
			c-0.34-0.14-0.62-0.33-0.83-0.58s-0.38-0.54-0.49-0.87C194.79,45.1,194.74,44.73,194.74,44.32z M198.39,43.8
			c0.01-0.43-0.1-0.78-0.32-1.06c-0.22-0.28-0.53-0.41-0.91-0.41c-0.22,0-0.41,0.04-0.58,0.13c-0.17,0.08-0.31,0.2-0.42,0.33
			c-0.12,0.14-0.21,0.29-0.27,0.47c-0.06,0.18-0.11,0.36-0.13,0.54H198.39z"/>
	</g>
	<g>
		<path class="st2" d="M201.99,46.29c0.39,0,0.68-0.05,0.86-0.15c0.19-0.1,0.28-0.27,0.28-0.49c0-0.23-0.09-0.42-0.28-0.55
			c-0.18-0.14-0.49-0.29-0.91-0.46c-0.2-0.08-0.4-0.16-0.59-0.25c-0.19-0.08-0.35-0.19-0.49-0.3c-0.14-0.12-0.24-0.26-0.33-0.42
			c-0.08-0.16-0.12-0.36-0.12-0.6c0-0.47,0.17-0.84,0.52-1.12c0.35-0.28,0.82-0.41,1.42-0.41c0.15,0,0.3,0.01,0.45,0.03
			c0.15,0.02,0.29,0.04,0.42,0.06c0.13,0.02,0.24,0.05,0.34,0.08c0.1,0.03,0.17,0.05,0.23,0.07l-0.17,0.82
			c-0.1-0.05-0.26-0.11-0.48-0.17c-0.22-0.06-0.48-0.09-0.79-0.09c-0.27,0-0.5,0.05-0.7,0.16c-0.2,0.11-0.3,0.27-0.3,0.5
			c0,0.12,0.02,0.22,0.07,0.31c0.04,0.09,0.11,0.17,0.2,0.24c0.09,0.07,0.21,0.14,0.34,0.2c0.14,0.06,0.3,0.13,0.49,0.19
			c0.25,0.1,0.48,0.19,0.67,0.28c0.2,0.09,0.37,0.2,0.51,0.32c0.14,0.12,0.25,0.27,0.32,0.44c0.07,0.17,0.11,0.39,0.11,0.64
			c0,0.49-0.18,0.86-0.55,1.12c-0.37,0.25-0.88,0.38-1.56,0.38c-0.47,0-0.84-0.04-1.1-0.12c-0.27-0.08-0.45-0.14-0.54-0.18
			l0.17-0.82c0.11,0.04,0.28,0.1,0.52,0.18C201.28,46.25,201.59,46.29,201.99,46.29z"/>
	</g>
	<g>
		<path class="st2" d="M207.38,44.32c0-0.47,0.07-0.88,0.2-1.23c0.14-0.35,0.32-0.64,0.54-0.87c0.22-0.23,0.48-0.41,0.78-0.52
			c0.29-0.12,0.59-0.17,0.9-0.17c0.72,0,1.26,0.22,1.65,0.67c0.38,0.45,0.57,1.13,0.57,2.04c0,0.04,0,0.09,0,0.16
			c0,0.06,0,0.12-0.01,0.18h-3.64c0.04,0.55,0.2,0.97,0.48,1.26c0.28,0.29,0.72,0.43,1.31,0.43c0.33,0,0.61-0.03,0.84-0.09
			c0.23-0.06,0.4-0.11,0.52-0.17l0.13,0.8c-0.12,0.06-0.32,0.13-0.61,0.19c-0.29,0.07-0.62,0.1-0.99,0.1c-0.46,0-0.86-0.07-1.2-0.21
			c-0.34-0.14-0.62-0.33-0.83-0.58c-0.22-0.25-0.38-0.54-0.49-0.87C207.43,45.1,207.38,44.73,207.38,44.32z M211.03,43.8
			c0.01-0.43-0.1-0.78-0.32-1.06c-0.22-0.28-0.53-0.41-0.91-0.41c-0.22,0-0.41,0.04-0.58,0.13c-0.17,0.08-0.31,0.2-0.42,0.33
			c-0.12,0.14-0.21,0.29-0.27,0.47c-0.06,0.18-0.11,0.36-0.13,0.54H211.03z"/>
	</g>
	<g>
		<path class="st2" d="M213.39,41.81c0.22-0.05,0.51-0.11,0.87-0.17c0.36-0.06,0.78-0.09,1.25-0.09c0.42,0,0.77,0.06,1.05,0.18
			c0.28,0.12,0.5,0.29,0.67,0.5c0.17,0.21,0.28,0.47,0.35,0.77c0.07,0.3,0.1,0.63,0.1,0.99v2.99h-0.95v-2.78
			c0-0.33-0.02-0.61-0.07-0.84c-0.04-0.23-0.12-0.42-0.22-0.56c-0.1-0.14-0.24-0.25-0.41-0.31c-0.17-0.06-0.38-0.1-0.63-0.1
			c-0.1,0-0.21,0-0.32,0.01c-0.11,0.01-0.21,0.01-0.31,0.03c-0.1,0.01-0.19,0.02-0.27,0.04c-0.08,0.01-0.13,0.02-0.17,0.03v4.49
			h-0.95V41.81z"/>
	</g>
	<g>
		<path class="st2" d="M225.95,46.11v0.86h-4.26v-7.09h0.99v6.23H225.95z"/>
	</g>
	<g>
		<path class="st2" d="M227.4,40.69c-0.17,0-0.32-0.06-0.43-0.17c-0.12-0.11-0.18-0.26-0.18-0.45c0-0.19,0.06-0.34,0.18-0.46
			c0.12-0.11,0.26-0.17,0.43-0.17c0.17,0,0.32,0.06,0.44,0.17c0.12,0.11,0.18,0.26,0.18,0.46c0,0.19-0.06,0.34-0.18,0.45
			C227.71,40.64,227.57,40.69,227.4,40.69z M227.88,46.97h-0.95v-5.32h0.95V46.97z"/>
	</g>
	<g>
		<path class="st2" d="M229.52,41.81c0.22-0.05,0.51-0.11,0.87-0.17c0.36-0.06,0.78-0.09,1.25-0.09c0.42,0,0.77,0.06,1.05,0.18
			c0.28,0.12,0.5,0.29,0.67,0.5c0.17,0.21,0.28,0.47,0.35,0.77c0.07,0.3,0.1,0.63,0.1,0.99v2.99h-0.95v-2.78
			c0-0.33-0.02-0.61-0.07-0.84c-0.04-0.23-0.12-0.42-0.22-0.56c-0.1-0.14-0.24-0.25-0.41-0.31c-0.17-0.06-0.38-0.1-0.63-0.1
			c-0.1,0-0.21,0-0.32,0.01c-0.11,0.01-0.21,0.01-0.31,0.03c-0.1,0.01-0.19,0.02-0.27,0.04c-0.08,0.01-0.13,0.02-0.17,0.03v4.49
			h-0.95V41.81z"/>
	</g>
	<g>
		<path class="st2" d="M235.09,44.32c0-0.47,0.07-0.88,0.2-1.23c0.14-0.35,0.32-0.64,0.54-0.87c0.22-0.23,0.48-0.41,0.78-0.52
			c0.29-0.12,0.59-0.17,0.9-0.17c0.72,0,1.26,0.22,1.65,0.67c0.38,0.45,0.57,1.13,0.57,2.04c0,0.04,0,0.09,0,0.16
			c0,0.06,0,0.12-0.01,0.18h-3.64c0.04,0.55,0.2,0.97,0.48,1.26c0.28,0.29,0.72,0.43,1.31,0.43c0.33,0,0.62-0.03,0.84-0.09
			c0.23-0.06,0.4-0.11,0.52-0.17l0.13,0.8c-0.12,0.06-0.32,0.13-0.61,0.19c-0.29,0.07-0.62,0.1-0.99,0.1c-0.46,0-0.86-0.07-1.2-0.21
			c-0.34-0.14-0.62-0.33-0.83-0.58c-0.22-0.25-0.38-0.54-0.49-0.87C235.14,45.1,235.09,44.73,235.09,44.32z M238.74,43.8
			c0.01-0.43-0.1-0.78-0.32-1.06c-0.22-0.28-0.53-0.41-0.91-0.41c-0.22,0-0.41,0.04-0.58,0.13c-0.17,0.08-0.31,0.2-0.42,0.33
			c-0.12,0.14-0.21,0.29-0.27,0.47c-0.06,0.18-0.11,0.36-0.13,0.54H238.74z"/>
	</g>
	<g>
		<path class="st2" d="M242.82,41.52c0.38,0,0.7,0.05,0.97,0.15c0.26,0.1,0.47,0.24,0.63,0.42c0.16,0.18,0.27,0.4,0.34,0.64
			c0.07,0.25,0.1,0.52,0.1,0.82v3.32c-0.08,0.01-0.2,0.03-0.34,0.06s-0.31,0.05-0.5,0.07c-0.18,0.02-0.38,0.04-0.6,0.06
			c-0.21,0.02-0.43,0.03-0.64,0.03c-0.3,0-0.58-0.03-0.83-0.09c-0.25-0.06-0.47-0.16-0.65-0.29c-0.18-0.13-0.33-0.31-0.43-0.53
			c-0.1-0.22-0.15-0.48-0.15-0.79c0-0.29,0.06-0.55,0.18-0.76c0.12-0.21,0.28-0.38,0.49-0.51c0.2-0.13,0.44-0.23,0.72-0.29
			c0.27-0.06,0.56-0.09,0.86-0.09c0.1,0,0.19,0,0.3,0.01c0.1,0.01,0.2,0.02,0.29,0.04c0.09,0.02,0.17,0.03,0.24,0.05
			c0.07,0.01,0.12,0.02,0.14,0.03v-0.27c0-0.16-0.02-0.31-0.05-0.47s-0.09-0.29-0.18-0.41c-0.09-0.12-0.21-0.21-0.36-0.29
			c-0.15-0.07-0.35-0.11-0.6-0.11c-0.31,0-0.59,0.02-0.82,0.07c-0.24,0.04-0.41,0.09-0.53,0.14l-0.11-0.79
			c0.12-0.05,0.33-0.11,0.61-0.16C242.18,41.55,242.49,41.52,242.82,41.52z M242.9,46.29c0.22,0,0.42,0,0.6-0.02
			c0.17-0.01,0.32-0.03,0.43-0.06v-1.59c-0.07-0.03-0.18-0.06-0.33-0.09c-0.15-0.02-0.34-0.04-0.56-0.04c-0.14,0-0.3,0.01-0.46,0.03
			c-0.16,0.02-0.31,0.06-0.44,0.13c-0.13,0.06-0.24,0.15-0.33,0.27c-0.09,0.11-0.13,0.26-0.13,0.44c0,0.34,0.11,0.58,0.33,0.71
			C242.23,46.22,242.53,46.29,242.9,46.29z"/>
	</g>
</g>
<g>
	<g>
		<path class="st0" d="M90.53,31.89v2.57h-8.87V21.18h2.99v10.71H90.53z"/>
	</g>
	<g>
		<path class="st0" d="M101.94,34.45c-0.15-0.46-0.31-0.94-0.48-1.42c-0.17-0.48-0.34-0.97-0.51-1.45h-5.18
			c-0.17,0.48-0.34,0.97-0.5,1.46s-0.33,0.96-0.47,1.42h-3.1c0.5-1.43,0.97-2.75,1.42-3.96c0.45-1.21,0.89-2.35,1.32-3.43
			c0.43-1.07,0.85-2.09,1.27-3.05c0.42-0.96,0.85-1.91,1.3-2.83h2.83c0.44,0.92,0.87,1.86,1.29,2.83c0.42,0.96,0.85,1.98,1.28,3.05
			c0.43,1.07,0.87,2.21,1.32,3.43c0.45,1.21,0.92,2.54,1.42,3.96H101.94z M98.35,24.19c-0.07,0.19-0.16,0.46-0.29,0.79
			c-0.13,0.33-0.27,0.72-0.44,1.15c-0.16,0.43-0.35,0.91-0.55,1.44c-0.2,0.52-0.41,1.07-0.62,1.64h3.8c-0.2-0.58-0.4-1.13-0.59-1.65
			c-0.19-0.53-0.37-1.01-0.54-1.44s-0.32-0.82-0.45-1.15C98.53,24.64,98.43,24.38,98.35,24.19z"/>
	</g>
	<g>
		<path class="st0" d="M115.12,21.18v2.55h-4v10.72h-2.99V23.73h-4v-2.55H115.12z"/>
	</g>
	<g>
		<path class="st0" d="M124.36,34.45c-0.15-0.46-0.31-0.94-0.48-1.42c-0.17-0.48-0.34-0.97-0.51-1.45h-5.18
			c-0.17,0.48-0.34,0.97-0.5,1.46s-0.33,0.96-0.47,1.42h-3.1c0.5-1.43,0.97-2.75,1.42-3.96c0.45-1.21,0.89-2.35,1.32-3.43
			c0.43-1.07,0.85-2.09,1.27-3.05c0.42-0.96,0.85-1.91,1.3-2.83h2.83c0.44,0.92,0.87,1.86,1.29,2.83c0.42,0.96,0.85,1.98,1.28,3.05
			c0.43,1.07,0.87,2.21,1.32,3.43c0.45,1.21,0.92,2.54,1.42,3.96H124.36z M120.77,24.19c-0.07,0.19-0.16,0.46-0.29,0.79
			c-0.13,0.33-0.27,0.72-0.44,1.15c-0.16,0.43-0.35,0.91-0.55,1.44c-0.2,0.52-0.41,1.07-0.62,1.64h3.8c-0.2-0.58-0.4-1.13-0.59-1.65
			c-0.19-0.53-0.37-1.01-0.54-1.44s-0.32-0.82-0.45-1.15C120.96,24.64,120.85,24.38,120.77,24.19z"/>
	</g>
	<g>
		<path class="st0" d="M132.79,21.18c0.23,0.42,0.5,0.94,0.8,1.56c0.3,0.62,0.61,1.29,0.94,2.01c0.33,0.72,0.65,1.46,0.97,2.21
			c0.32,0.75,0.62,1.46,0.9,2.13c0.28-0.66,0.58-1.37,0.9-2.13c0.32-0.75,0.64-1.49,0.97-2.21c0.33-0.72,0.64-1.39,0.94-2.01
			c0.3-0.62,0.57-1.14,0.8-1.56h2.72c0.13,0.88,0.25,1.87,0.35,2.96c0.11,1.09,0.2,2.23,0.29,3.41c0.08,1.18,0.16,2.37,0.23,3.55
			c0.07,1.19,0.13,2.3,0.18,3.35h-2.91c-0.04-1.29-0.09-2.69-0.15-4.21c-0.06-1.52-0.16-3.05-0.29-4.6
			c-0.23,0.54-0.49,1.13-0.77,1.78c-0.28,0.65-0.56,1.3-0.84,1.95c-0.28,0.65-0.54,1.27-0.8,1.87c-0.26,0.59-0.47,1.1-0.65,1.52
			h-2.09c-0.18-0.42-0.4-0.93-0.65-1.52c-0.26-0.59-0.52-1.22-0.8-1.87c-0.28-0.65-0.55-1.3-0.84-1.95
			c-0.28-0.65-0.54-1.24-0.77-1.78c-0.13,1.54-0.22,3.08-0.29,4.6c-0.06,1.52-0.12,2.92-0.15,4.21h-2.91
			c0.05-1.05,0.11-2.16,0.18-3.35c0.07-1.19,0.15-2.37,0.23-3.55c0.08-1.18,0.18-2.32,0.29-3.41c0.11-1.09,0.23-2.08,0.35-2.96
			H132.79z"/>
	</g>
	<g>
		<path class="st0" d="M151.04,34.45V21.18h8.96v2.51h-5.98v2.6h5.3v2.45h-5.3v3.2h6.42v2.51H151.04z"/>
	</g>
	<g>
		<path class="st0" d="M170.66,34.45c-0.37-0.74-0.78-1.49-1.23-2.25c-0.44-0.76-0.95-1.4-1.53-1.92c-0.18,0.2-0.41,0.47-0.68,0.82
			c-0.27,0.35-0.55,0.72-0.82,1.12c-0.27,0.39-0.53,0.8-0.77,1.23c-0.24,0.42-0.42,0.76-0.53,1h-3.41c0.56-1.04,1.22-2.11,1.98-3.21
			c0.76-1.1,1.61-2.27,2.54-3.51l-4.33-6.55h3.62l2.53,3.84l2.58-3.84h3.41l-4.31,6.41c1.13,1.42,2.06,2.71,2.79,3.89
			c0.73,1.18,1.31,2.17,1.73,2.98H170.66z"/>
	</g>
	<g>
		<path class="st0" d="M179.94,21.03c1.98,0,3.5,0.35,4.56,1.04c1.06,0.7,1.59,1.84,1.59,3.42c0,1.6-0.54,2.75-1.61,3.46
			c-1.07,0.71-2.6,1.06-4.6,1.06h-0.94v4.44h-2.99V21.37c0.65-0.13,1.34-0.22,2.07-0.27C178.75,21.05,179.39,21.03,179.94,21.03z
			 M180.13,23.57c-0.22,0-0.43,0.01-0.64,0.02c-0.21,0.01-0.39,0.02-0.55,0.04v3.83h0.94c1.03,0,1.81-0.14,2.34-0.42
			c0.52-0.28,0.79-0.81,0.79-1.57c0-0.37-0.07-0.68-0.2-0.92c-0.13-0.24-0.33-0.44-0.57-0.58c-0.25-0.15-0.55-0.25-0.91-0.31
			C180.96,23.6,180.57,23.57,180.13,23.57z"/>
	</g>
	<g>
		<path class="st0" d="M200.93,27.81c0,1.14-0.17,2.14-0.51,3c-0.34,0.86-0.8,1.58-1.39,2.16s-1.29,1.02-2.1,1.31
			c-0.81,0.29-1.68,0.44-2.61,0.44c-0.91,0-1.76-0.15-2.57-0.44c-0.8-0.29-1.51-0.73-2.11-1.31s-1.07-1.3-1.42-2.16
			c-0.34-0.86-0.52-1.86-0.52-3c0-1.14,0.18-2.14,0.54-3c0.36-0.86,0.84-1.59,1.45-2.17c0.61-0.59,1.31-1.03,2.11-1.32
			c0.8-0.29,1.64-0.44,2.52-0.44c0.91,0,1.76,0.15,2.57,0.44c0.8,0.29,1.51,0.74,2.11,1.32c0.6,0.59,1.07,1.31,1.42,2.17
			C200.76,25.67,200.93,26.67,200.93,27.81z M190.8,27.81c0,0.65,0.08,1.24,0.24,1.76c0.16,0.52,0.39,0.97,0.69,1.35
			c0.3,0.38,0.67,0.67,1.1,0.87c0.43,0.2,0.93,0.31,1.49,0.31c0.55,0,1.04-0.1,1.48-0.31c0.44-0.2,0.81-0.49,1.11-0.87
			c0.3-0.38,0.53-0.83,0.69-1.35c0.16-0.52,0.24-1.11,0.24-1.76s-0.08-1.24-0.24-1.77c-0.16-0.53-0.39-0.98-0.69-1.36
			c-0.3-0.38-0.67-0.67-1.11-0.87c-0.44-0.2-0.94-0.31-1.48-0.31c-0.56,0-1.06,0.11-1.49,0.32c-0.43,0.21-0.8,0.5-1.1,0.88
			c-0.3,0.38-0.53,0.83-0.69,1.36C190.88,26.59,190.8,27.17,190.8,27.81z"/>
	</g>
	<g>
		<path class="st0" d="M212.33,34.45c-0.86-1.52-1.78-3.02-2.78-4.5c-1-1.48-2.06-2.88-3.18-4.19v8.7h-2.95V21.18h2.43
			c0.42,0.42,0.89,0.94,1.4,1.55s1.03,1.27,1.56,1.96c0.53,0.7,1.06,1.42,1.58,2.16c0.52,0.75,1.01,1.47,1.47,2.15v-7.83h2.97v13.27
			H212.33z"/>
	</g>
	<g>
		<path class="st0" d="M217.9,34.45V21.18h8.96v2.51h-5.98v2.6h5.3v2.45h-5.3v3.2h6.42v2.51H217.9z"/>
	</g>
	<g>
		<path class="st0" d="M238.41,34.45c-0.86-1.52-1.78-3.02-2.78-4.5c-1-1.48-2.06-2.88-3.18-4.19v8.7h-2.95V21.18h2.43
			c0.42,0.42,0.89,0.94,1.4,1.55s1.03,1.27,1.56,1.96c0.53,0.7,1.06,1.42,1.58,2.16c0.52,0.75,1.01,1.47,1.47,2.15v-7.83h2.97v13.27
			H238.41z"/>
	</g>
	<g>
		<path class="st0" d="M253.83,21.18v2.55h-4v10.72h-2.99V23.73h-4v-2.55H253.83z"/>
	</g>
	<g>
		<path class="st0" d="M255.74,21.18h2.99v13.27h-2.99V21.18z"/>
	</g>
	<g>
		<path class="st0" d="M270.7,34.45c-0.15-0.46-0.31-0.94-0.48-1.42c-0.17-0.48-0.34-0.97-0.51-1.45h-5.18
			c-0.17,0.48-0.34,0.97-0.5,1.46c-0.17,0.49-0.32,0.96-0.47,1.42h-3.1c0.5-1.43,0.97-2.75,1.42-3.96c0.45-1.21,0.89-2.35,1.32-3.43
			c0.43-1.07,0.85-2.09,1.27-3.05c0.42-0.96,0.85-1.91,1.3-2.83h2.83c0.44,0.92,0.86,1.86,1.29,2.83c0.42,0.96,0.85,1.98,1.28,3.05
			c0.43,1.07,0.87,2.21,1.32,3.43c0.45,1.21,0.92,2.54,1.42,3.96H270.7z M267.11,24.19c-0.07,0.19-0.16,0.46-0.29,0.79
			c-0.13,0.33-0.27,0.72-0.44,1.15c-0.16,0.43-0.35,0.91-0.55,1.44c-0.2,0.52-0.41,1.07-0.62,1.64h3.8c-0.2-0.58-0.4-1.13-0.59-1.65
			c-0.19-0.53-0.37-1.01-0.54-1.44s-0.32-0.82-0.45-1.15C267.29,24.64,267.19,24.38,267.11,24.19z"/>
	</g>
	<g>
		<path class="st0" d="M284.47,31.89v2.57h-8.87V21.18h2.99v10.71H284.47z"/>
	</g>
</g>
<g>
	<path class="st1" d="M19,52.75c-0.96,0-1.92-0.37-2.65-1.1c-1.46-1.46-1.46-3.84,0-5.3l30-30c1.46-1.46,3.84-1.46,5.3,0
		c1.46,1.46,1.46,3.84,0,5.3l-30,30C20.92,52.38,19.96,52.75,19,52.75z"/>
</g>
<g>
	<path class="st1" d="M35.88,54.62c-0.96,0-1.92-0.37-2.65-1.1c-1.46-1.46-1.46-3.84,0-5.3l15-15c1.46-1.46,3.84-1.46,5.3,0
		c1.46,1.46,1.46,3.84,0,5.3l-15,15C37.79,54.26,36.83,54.62,35.88,54.62z"/>
</g>
<g>
	<path class="st1" d="M17.13,35.87c-0.96,0-1.92-0.37-2.65-1.1c-1.46-1.46-1.46-3.84,0-5.3l15-15c1.46-1.46,3.84-1.46,5.3,0
		c1.46,1.46,1.46,3.84,0,5.3l-15,15C19.04,35.51,18.08,35.87,17.13,35.87z"/>
</g>
</svg>
